{
.appVersion = "909";
DisplayStrings = (
"change abechan hefende"
);
customParameters = (
{
name = glyphOrder;
value = (
A,
Aacute,
Abreve,
Acaron,
Acircumflex,
Adblgrave,
Adieresis,
Adotaccent,
Agrave,
Ainvertedbreve,
Amacron,
Aogonek,
Aring,
Aringacute,
Atilde,
AE,
AEacute,
AEmacron,
B,
Bdotaccent,
C,
Cacute,
Ccaron,
Ccedilla,
Ccircumflex,
Cdotaccent,
D,
DZ,
DZcaron,
Eth,
Dcaron,
Dcroat,
Ddotaccent,
Dz,
Dzcaron,
E,
Eacute,
Ebreve,
Ecaron,
uni0228,
Ecircumflex,
Edblgrave,
Edieresis,
Edotaccent,
Egrave,
Einvertedbreve,
Emacron,
Eogonek,
Etilde,
F,
Fdotaccent,
G,
Gacute,
Gbreve,
Gcaron,
Gcircumflex,
Gcommaaccent,
Gdotaccent,
H,
Hbar,
uni021E,
Hcircumflex,
I,
IJ,
Iacute,
Ibreve,
Icaron,
Icircumflex,
Idblgrave,
Idieresis,
Idotaccent,
Igrave,
Iinvertedbreve,
Imacron,
Iogonek,
Itilde,
J,
Jcircumflex,
K,
Kcaron,
Kcommaaccent,
L,
LJ,
Lacute,
Lcaron,
Lcommaaccent,
Ldot,
Lj,
Lslash,
M,
Mdotaccent,
N,
NJ,
Nacute,
Ncaron,
Ncommaaccent,
uni01F8,
Eng,
Nj,
Ntilde,
O,
Oacute,
Obreve,
Ocaron,
Ocircumflex,
Odblgrave,
Odieresis,
Ograve,
Ohungarumlaut,
Oinvertedbreve,
Omacron,
Oogonek,
Oslash,
Oslashacute,
Otilde,
OE,
P,
Pdotaccent,
Thorn,
Q,
R,
Racute,
Rcaron,
Rcommaaccent,
Rdblgrave,
Rinvertedbreve,
S,
Sacute,
Scaron,
Scedilla,
Scircumflex,
Scommaaccent,
Sdotaccent,
T,
Tbar,
Tcaron,
Tcedilla,
uni021A,
Tdotaccent,
U,
Uacute,
Ubreve,
Ucaron,
Ucircumflex,
Udblgrave,
Udieresis,
Ugrave,
Uhungarumlaut,
Uinvertedbreve,
Umacron,
Uogonek,
Uring,
Utilde,
V,
W,
Wacute,
Wcircumflex,
Wdieresis,
Wgrave,
X,
Y,
Yacute,
Ycircumflex,
Ydieresis,
Ygrave,
Ymacron,
Ytilde,
Z,
Zacute,
Zcaron,
Zdotaccent,
a,
aacute,
abreve,
acaron,
acircumflex,
adblgrave,
adieresis,
adotaccent,
agrave,
ainvertedbreve,
amacron,
aogonek,
aring,
aringacute,
atilde,
ae,
aeacute,
aemacron,
b,
bdotaccent,
c,
cacute,
ccaron,
ccedilla,
ccircumflex,
cdotaccent,
d,
eth,
dcaron,
dcroat,
ddotaccent,
dz,
dzcaron,
e,
eacute,
ebreve,
ecaron,
uni0229,
ecircumflex,
edblgrave,
edieresis,
edotaccent,
egrave,
einvertedbreve,
emacron,

glyphs = (
{
glyphname = A;
lastChange = "2016-06-28 17:14:25 +0000";
layers = (
{
anchors = (
{
name = ogonek;
position = "{545, -56}";
},
{
name = top;
position = "{587, 708}";
}
);
layerId = "1677BB6F-42BC-4502-A615-23038A63E498";
paths = (
{
closed = 1;
nodes = (
"606 19 CURVE SMOOTH",
"582 19 OFFCURVE",
"572 37 OFFCURVE",
"572 68 CURVE SMOOTH",
"572 89 OFFCURVE",
"577 120 OFFCURVE",
"587 164 CURVE SMOOTH",
"660 477 LINE SMOOTH",
"661 483 OFFCURVE",
"662 489 OFFCURVE",
"662 494 CURVE SMOOTH",
"662 517 OFFCURVE",
"647 530 OFFCURVE",
"611 530 CURVE SMOOTH",
"585 530 OFFCURVE",
"567 524 OFFCURVE",
"562 501 CURVE SMOOTH",
"485 207 LINE SMOOTH",
"458 101 OFFCURVE",
"402 25 OFFCURVE",
"298 25 CURVE SMOOTH",
"203 25 OFFCURVE",
"160 104 OFFCURVE",
"160 204 CURVE SMOOTH",
"160 379 OFFCURVE",
"295 620 OFFCURVE",
"530 620 CURVE SMOOTH",
"532 620 LINE SMOOTH",
"597 620 OFFCURVE",
"662 599 OFFCURVE",
"721 557 CURVE SMOOTH",
"729 550 OFFCURVE",
"739 548 OFFCURVE",
"747 548 CURVE SMOOTH",
"769 548 OFFCURVE",
"786 567 OFFCURVE",
"786 591 CURVE SMOOTH",
"786 600 OFFCURVE",
"784 615 OFFCURVE",
"771 625 CURVE SMOOTH",
"705 684 OFFCURVE",
"621 713 OFFCURVE",
"535 713 CURVE SMOOTH",
"312 713 OFFCURVE",
"72 524 OFFCURVE",
"55 197 CURVE SMOOTH",
"55 188 OFFCURVE",
"54 180 OFFCURVE",
"54 172 CURVE SMOOTH",
"54 0 OFFCURVE",
"150 -72 OFFCURVE",
"271 -72 CURVE SMOOTH",
"278 -72 OFFCURVE",
"285 -71 OFFCURVE",
"292 -71 CURVE SMOOTH",
"388 -64 OFFCURVE",
"464 9 OFFCURVE",
"487 60 CURVE",
"486 52 OFFCURVE",
"485 43 OFFCURVE",
"485 33 CURVE SMOOTH",
"485 -21 OFFCURVE",
"515 -67 OFFCURVE",
"581 -67 CURVE SMOOTH",
"628 -67 OFFCURVE",
"682 -42 OFFCURVE",
"710 -11 CURVE SMOOTH",
"717 -3 OFFCURVE",
"719 7 OFFCURVE",
"719 14 CURVE SMOOTH",
"719 38 OFFCURVE",
"701 55 OFFCURVE",
"682 55 CURVE SMOOTH",
"673 55 OFFCURVE",
"667 52 OFFCURVE",
"660 46 CURVE SMOOTH",
"644 32 OFFCURVE",
"624 19 OFFCURVE"
);
}
);
width = 706;
}
);
unicode = 0041;
userData = {
com.typemytype.robofont.layerData = {
};
};
},
{
glyphname = B;
lastChange = "2016-06-28 17:14:25 +0000";
layers = (
{
anchors = (
{
name = top;
position = "{417, 708}";
}
);
layerId = "1677BB6F-42BC-4502-A615-23038A63E498";
paths = (
{
closed = 1;
nodes = (
"223 -90 CURVE SMOOTH",
"414 -90 OFFCURVE",
"598 39 OFFCURVE",
"598 176 CURVE SMOOTH",
"598 253 OFFCURVE",
"511 303 OFFCURVE",
"453 307 CURVE",
"576 307 OFFCURVE",
"640 398 OFFCURVE",
"653 458 CURVE SMOOTH",
"656 469 OFFCURVE",
"657 480 OFFCURVE",
"657 491 CURVE SMOOTH",
"657 587 OFFCURVE",
"564 681 OFFCURVE",
"370 681 CURVE SMOOTH",
"197 681 OFFCURVE",
"98 618 OFFCURVE",
"31 559 CURVE SMOOTH",
"23 552 OFFCURVE",
"20 542 OFFCURVE",
"20 532 CURVE SMOOTH",
"20 509 OFFCURVE",
"40 485 OFFCURVE",
"68 485 CURVE SMOOTH",
"81 485 OFFCURVE",
"96 490 OFFCURVE",
"112 503 CURVE SMOOTH",
"178 559 OFFCURVE",
"246 593 OFFCURVE",
"375 593 CURVE SMOOTH",
"494 593 OFFCURVE",
"538 537 OFFCURVE",
"538 476 CURVE SMOOTH",
"538 468 LINE SMOOTH",
"534 428 OFFCURVE",
"513 336 OFFCURVE",
"372 336 CURVE SMOOTH",
"367 336 LINE SMOOTH",
"334 338 LINE SMOOTH",
"307 337 OFFCURVE",
"282 334 OFFCURVE",
"282 307 CURVE SMOOTH",
"282 255 OFFCURVE",
"484 300 OFFCURVE",
"484 171 CURVE SMOOTH",
"484 85 OFFCURVE",
"365 -13 OFFCURVE",
"213 -13 CURVE SMOOTH",
"179 -13 OFFCURVE",
"180 -8 OFFCURVE",
"180 15 CURVE SMOOTH",
"180 163 OFFCURVE",
"215 397 OFFCURVE",
"283 480 CURVE",
"271 501 OFFCURVE",
"256 512 OFFCURVE",
"233 512 CURVE SMOOTH",
"138 512 OFFCURVE",
"63 350 OFFCURVE",
"63 -23 CURVE SMOOTH",
"63 -65 OFFCURVE",
"124 -90 OFFCURVE"
);
}
);
width = 609;
}
);
unicode = 0042;
userData = {
com.typemytype.robofont.layerData = {
};
};
},
{
glyphname = C;
lastChange = "2016-06-28 17:14:25 +0000";
layers = (
{
anchors = (
{
name = bot;
position = "{305, -70}";
},
{
name = top;
position = "{507, 708}";
}
);
layerId = "1677BB6F-42BC-4502-A615-23038A63E498";
paths = (
{
closed = 1;
nodes = (
"55 190 CURVE SMOOTH",
"55 37 OFFCURVE",
"136 -95 OFFCURVE",
"320 -95 CURVE SMOOTH",
"465 -95 OFFCURVE",
"587 7 OFFCURVE",
"629 121 CURVE SMOOTH",
"631 125 OFFCURVE",
"631 129 OFFCURVE",
"631 133 CURVE SMOOTH",
"631 152 OFFCURVE",
"612 165 OFFCURVE",
"594 165 CURVE SMOOTH",
"585 165 OFFCURVE",
"576 161 OFFCURVE",
"570 153 CURVE SMOOTH",
"518 75 OFFCURVE",
"450 -2 OFFCURVE",
"340 -2 CURVE SMOOTH",
"221 -2 OFFCURVE",
"171 93 OFFCURVE",
"171 207 CURVE SMOOTH",
"171 391 OFFCURVE",
"289 580 OFFCURVE",
"453 580 CURVE SMOOTH",
"510 580 OFFCURVE",
"539 548 OFFCURVE",
"539 503 CURVE SMOOTH",
"539 453 OFFCURVE",
"498 397 OFFCURVE",
"418 387 CURVE SMOOTH",
"380 383 OFFCURVE",
"359 370 OFFCURVE",
"359 341 CURVE SMOOTH",
"359 316 OFFCURVE",
"377 304 OFFCURVE",
"410 304 CURVE SMOOTH",
"416 304 OFFCURVE",
"423 304 OFFCURVE",
"430 305 CURVE SMOOTH",
"559 321 OFFCURVE",
"632 425 OFFCURVE",
"632 521 CURVE SMOOTH",
"632 604 OFFCURVE",
"575 672 OFFCURVE",
"459 672 CURVE SMOOTH",
"234 672 OFFCURVE",
"55 434 OFFCURVE"
);
}
);
width = 603;
}
);
unicode = 0043;
userData = {
com.typemytype.robofont.layerData = {
};
};
},
{
glyphname = D;
lastChange = "2016-06-28 17:14:25 +0000";
layers = (
{
anchors = (
{
name = bot;
position = "{227, -36}";
},
{
name = mid;
position = "{172, 308}";
},
{
name = top;
position = "{397, 708}";
}
);
layerId = "1677BB6F-42BC-4502-A615-23038A63E498";
paths = (
{
closed = 1;
nodes = (
"293 588 CURVE SMOOTH",
"452 588 OFFCURVE",
"534 496 OFFCURVE",
"534 384 CURVE SMOOTH",
"534 195 OFFCURVE",
"376 25 OFFCURVE",
"210 25 CURVE SMOOTH",
"191 25 OFFCURVE",
"188 42 OFFCURVE",
"188 70 CURVE SMOOTH",
"188 86 LINE SMOOTH",
"187 212 OFFCURVE",
"250 428 OFFCURVE",
"309 502 CURVE",
"294 528 OFFCURVE",
"271 543 OFFCURVE",
"249 543 CURVE SMOOTH",
"233 542 OFFCURVE",
"218 535 OFFCURVE",
"207 519 CURVE SMOOTH",
"136 415 OFFCURVE",
"79 193 OFFCURVE",
"80 21 CURVE SMOOTH",
"79 4 OFFCURVE",
"90 -12 OFFCURVE",
"104 -20 CURVE SMOOTH",
"123 -31 OFFCURVE",
"172 -51 OFFCURVE",
"217 -51 CURVE SMOOTH",
"223 -51 LINE SMOOTH",
"399 -43 OFFCURVE",
"633 75 OFFCURVE",
"633 393 CURVE SMOOTH",
"633 573 OFFCURVE",
"517 684 OFFCURVE",
"314 684 CURVE SMOOTH",
"298 684 OFFCURVE",
"282 683 OFFCURVE",
"265 682 CURVE SMOOTH",
"193 676 OFFCURVE",
"111 649 OFFCURVE",
"61 588 CURVE SMOOTH",
"47 571 OFFCURVE",
"31 536 OFFCURVE",
"32 502 CURVE SMOOTH",
"31 486 OFFCURVE",
"38 457 OFFCURVE",
"64 457 CURVE SMOOTH",
"87 457 OFFCURVE",
"129 526 OFFCURVE",
"132 531 CURVE SMOOTH",
"180 580 OFFCURVE",
"236 588 OFFCURVE"
);
}
);
width = 636;
}
);
unicode = 0044;
userData = {
com.typemytype.robofont.layerData = {
};
};
},
{
glyphname = E;
lastChange = "2016-06-28 17:14:25 +0000";
layers = (
{
anchors = (
{
name = bot;
position = "{271, -89}";
},
{
name = ogonek;
position = "{352, -87}";
},
{
name = top;
position = "{413, 708}";
}
);
layerId = "1677BB6F-42BC-4502-A615-23038A63E498";
paths = (
{
closed = 1;
nodes = (
"122 491 CURVE SMOOTH",
"122 409 OFFCURVE",
"184 336 OFFCURVE",
"310 331 CURVE",
"140 331 OFFCURVE",
"45 208 OFFCURVE",
"45 90 CURVE SMOOTH",
"45 -16 OFFCURVE",
"125 -110 OFFCURVE",
"287 -110 CURVE SMOOTH",
"459 -110 OFFCURVE",
"611 -9 OFFCURVE",
"681 69 CURVE SMOOTH",
"690 78 OFFCURVE",
"693 88 OFFCURVE",
"693 99 CURVE SMOOTH",
"693 124 OFFCURVE",
"677 153 OFFCURVE",
"652 153 CURVE SMOOTH",
"642 153 OFFCURVE",
"631 147 OFFCURVE",
"620 136 CURVE SMOOTH",
"536 48 OFFCURVE",
"408 -12 OFFCURVE",
"306 -12 CURVE SMOOTH",
"229 -12 OFFCURVE",
"168 25 OFFCURVE",
"168 112 CURVE SMOOTH",
"168 191 OFFCURVE",
"232 266 OFFCURVE",
"390 274 CURVE SMOOTH",
"433 276 OFFCURVE",
"443 298 OFFCURVE",
"443 325 CURVE SMOOTH",
"443 345 OFFCURVE",
"430 368 OFFCURVE",
"404 372 CURVE SMOOTH",
"288 391 OFFCURVE",
"250 416 OFFCURVE",
"250 498 CURVE SMOOTH",
"250 592 OFFCURVE",
"349 641 OFFCURVE",
"442 641 CURVE SMOOTH",
"488 641 OFFCURVE",
"532 629 OFFCURVE",
"562 604 CURVE",
"519 591 OFFCURVE",
"506 565 OFFCURVE",
"506 539 CURVE SMOOTH",
"506 498 OFFCURVE",
"533 474 OFFCURVE",
"573 474 CURVE SMOOTH",
"612 474 OFFCURVE",
"651 499 OFFCURVE",
"651 556 CURVE SMOOTH",
"651 665 OFFCURVE",
"535 718 OFFCURVE",
"414 718 CURVE SMOOTH",
"272 717 OFFCURVE",
"122 644 OFFCURVE"
);
}
);
width = 576;
}
);
unicode = 0045;
userData = {
com.typemytype.robofont.layerData = {
};
};
},
{
glyphname = F;
lastChange = "2016-06-28 17:14:25 +0000";
layers = (
{
anchors = (
{
name = top;
position = "{507, 708}";
}
);
layerId = "1677BB6F-42BC-4502-A615-23038A63E498";
paths = (
{
closed = 1;
nodes = (
"304 248 LINE",
"254 84 OFFCURVE",
"196 46 OFFCURVE",
"138 46 CURVE SMOOTH",
"100 46 OFFCURVE",
"68 65 OFFCURVE",
"49 80 CURVE SMOOTH",
"45 83 OFFCURVE",
"41 85 OFFCURVE",
"36 85 CURVE SMOOTH",
"12 85 OFFCURVE",
"-19 47 OFFCURVE",
"-19 18 CURVE SMOOTH",
"-19 11 OFFCURVE",
"-17 4 OFFCURVE",
"-13 -1 CURVE SMOOTH",
"18 -37 OFFCURVE",
"76 -66 OFFCURVE",
"134 -66 CURVE SMOOTH",
"310 -66 OFFCURVE",
"354 75 OFFCURVE",
"407 248 CURVE",
"442 248 OFFCURVE",
"501 251 OFFCURVE",
"543 255 CURVE SMOOTH",
"561 257 OFFCURVE",
"567 274 OFFCURVE",
"567 295 CURVE SMOOTH",
"567 321 OFFCURVE",
"558 337 OFFCURVE",
"539 337 CURVE SMOOTH",
"527 337 OFFCURVE",
"440 336 OFFCURVE",
"425 336 CURVE",
"451 421 OFFCURVE",
"477 548 OFFCURVE",
"480 612 CURVE",
"500 613 OFFCURVE",
"522 614 OFFCURVE",
"543 614 CURVE SMOOTH",
"642 614 OFFCURVE",
"748 604 OFFCURVE",
"789 597 CURVE SMOOTH",
"792 597 LINE SMOOTH",
"810 597 OFFCURVE",
"817 628 OFFCURVE",
"817 649 CURVE SMOOTH",
"817 691 OFFCURVE",
"752 710 OFFCURVE",
"599 710 CURVE SMOOTH",
"571 710 OFFCURVE",
"541 709 OFFCURVE",
"507 708 CURVE SMOOTH",
"131 694 OFFCURVE",
"29 501 OFFCURVE",
"29 376 CURVE SMOOTH",
"29 332 OFFCURVE",
"41 297 OFFCURVE",
"59 280 CURVE",
"72 259 OFFCURVE",
"107 252 OFFCURVE",
"136 252 CURVE SMOOTH",
"162 252 OFFCURVE",
"183 257 OFFCURVE",
"183 265 CURVE SMOOTH",
"183 266 OFFCURVE",
"183 268 OFFCURVE",
"181 270 CURVE SMOOTH",
"157 292 OFFCURVE",
"142 332 OFFCURVE",
"142 376 CURVE SMOOTH",
"142 467 OFFCURVE",
"207 579 OFFCURVE",
"396 604 CURVE",
"389 585 OFFCURVE",
"344 402 OFFCURVE",
"324 333 CURVE",
"286 332 OFFCURVE",
"246 326 OFFCURVE",
"246 286 CURVE SMOOTH",
"247 260 OFFCURVE",
"260 248 OFFCURVE",
"286 248 CURVE SMOOTH"
);
}
);
width = 565;
}
);
unicode = 0046;
userData = {
com.typemytype.robofont.layerData = {
};
};
},
{
glyphname = G;
lastChange = "2016-06-28 17:14:25 +0000";
layers = (
{
anchors = (
{
name = bot;
position = "{277, -321}";
},
{
name = top;
position = "{567, 708}";
}
);
layerId = "1677BB6F-42BC-4502-A615-23038A63E498";
paths = (
{
closed = 1;
nodes = (
"45 205 CURVE SMOOTH",
"45 6 OFFCURVE",
"186 -56 OFFCURVE",
"329 -56 CURVE SMOOTH",
"444 -56 OFFCURVE",
"554 -16 OFFCURVE",
"575 20 CURVE",
"521 -152 OFFCURVE",
"475 -212 OFFCURVE",
"396 -212 CURVE SMOOTH",
"371 -212 OFFCURVE",
"343 -206 OFFCURVE",
"311 -196 CURVE SMOOTH",
"307 -195 OFFCURVE",
"303 -194 OFFCURVE",
"299 -194 CURVE SMOOTH",
"269 -194 OFFCURVE",
"241 -226 OFFCURVE",
"241 -258 CURVE SMOOTH",
"241 -279 OFFCURVE",
"253 -299 OFFCURVE",
"284 -311 CURVE SMOOTH",
"324 -326 OFFCURVE",
"362 -334 OFFCURVE",
"396 -334 CURVE SMOOTH",
"546 -334 OFFCURVE",
"639 -188 OFFCURVE",
"691 117 CURVE SMOOTH",
"694 131 OFFCURVE",
"695 144 OFFCURVE",
"695 155 CURVE SMOOTH",
"695 211 OFFCURVE",
"656 227 OFFCURVE",
"556 227 CURVE SMOOTH",
"523 227 OFFCURVE",
"487 215 OFFCURVE",
"487 178 CURVE SMOOTH",
"487 142 OFFCURVE",
"514 134 OFFCURVE",
"553 134 CURVE SMOOTH",
"580 134 OFFCURVE",
"591 134 OFFCURVE",
"591 119 CURVE SMOOTH",
"591 116 OFFCURVE",
"591 112 OFFCURVE",
"590 108 CURVE SMOOTH",
"584 77 LINE",
"498 47 OFFCURVE",
"420 30 OFFCURVE",
"356 30 CURVE SMOOTH",
"238 30 OFFCURVE",
"164 85 OFFCURVE",
"164 209 CURVE SMOOTH",
"164 460 OFFCURVE",
"372 580 OFFCURVE",
"495 580 CURVE SMOOTH",
"547 580 OFFCURVE",
"583 558 OFFCURVE",
"583 517 CURVE SMOOTH",
"583 461 OFFCURVE",
"612 455 OFFCURVE",
"639 455 CURVE SMOOTH",
"669 455 OFFCURVE",
"697 468 OFFCURVE",
"697 513 CURVE SMOOTH",
"697 624 OFFCURVE",
"613 676 OFFCURVE",
"506 676 CURVE SMOOTH",
"314 676 OFFCURVE",
"45 508 OFFCURVE"
);
}
);
width = 703;
}
);
unicode = 0047;
userData = {
com.typemytype.robofont.layerData = {
};
};
},
{
glyphname = H;
lastChange = "2016-06-28 17:14:25 +0000";
layers = (
{
anchors = (
{
name = top;
position = "{587, 708}";
}
);
layerId = "1677BB6F-42BC-4502-A615-23038A63E498";
paths = (
{
closed = 1;
nodes = (
"182 600 CURVE SMOOTH",
"239 600 OFFCURVE",
"281 565 OFFCURVE",
"281 493 CURVE SMOOTH",
"281 467 OFFCURVE",
"275 437 OFFCURVE",
"263 401 CURVE SMOOTH",
"221 278 LINE",
"201 280 OFFCURVE",
"181 282 OFFCURVE",
"160 284 CURVE SMOOTH",
"155 284 LINE SMOOTH",
"128 284 OFFCURVE",
"107 260 OFFCURVE",
"107 238 CURVE SMOOTH",
"107 223 OFFCURVE",
"117 210 OFFCURVE",
"141 207 CURVE SMOOTH",
"159 205 OFFCURVE",
"177 202 OFFCURVE",
"195 200 CURVE",
"107 -56 LINE SMOOTH",
"99 -79 OFFCURVE",
"95 -96 OFFCURVE",
"95 -110 CURVE SMOOTH",
"95 -143 OFFCURVE",
"116 -152 OFFCURVE",
"136 -157 CURVE SMOOTH",
"142 -158 OFFCURVE",
"147 -159 OFFCURVE",
"152 -159 CURVE SMOOTH",
"188 -159 OFFCURVE",
"205 -125 OFFCURVE",
"216 -89 CURVE SMOOTH",
"304 191 LINE",
"338 189 OFFCURVE",
"371 188 OFFCURVE",
"401 188 CURVE SMOOTH",
"433 188 OFFCURVE",
"463 189 OFFCURVE",
"491 191 CURVE",
"476 143 LINE SMOOTH",
"459 89 OFFCURVE",
"451 43 OFFCURVE",
"451 4 CURVE SMOOTH",
"451 -108 OFFCURVE",
"515 -158 OFFCURVE",
"599 -158 CURVE SMOOTH",
"662 -158 OFFCURVE",
"737 -129 OFFCURVE",
"804 -76 CURVE SMOOTH",
"814 -68 OFFCURVE",
"818 -56 OFFCURVE",
"818 -43 CURVE SMOOTH",
"818 -18 OFFCURVE",
"802 9 OFFCURVE",
"783 9 CURVE SMOOTH",
"779 9 OFFCURVE",
"775 8 OFFCURVE",
"771 5 CURVE SMOOTH",
"727 -23 OFFCURVE",
"664 -58 OFFCURVE",
"619 -58 CURVE SMOOTH",
"584 -58 OFFCURVE",
"559 -38 OFFCURVE",
"559 23 CURVE SMOOTH",
"559 51 OFFCURVE",
"564 86 OFFCURVE",
"576 132 CURVE SMOOTH",
"595 203 LINE",
"869 252 OFFCURVE",
"918 403 OFFCURVE",
"918 485 CURVE SMOOTH",
"918 568 OFFCURVE",
"858 628 OFFCURVE",
"784 628 CURVE SMOOTH",
"704 628 OFFCURVE",
"607 559 OFFCURVE",
"549 374 CURVE SMOOTH",
"517 274 LINE",
"483 271 OFFCURVE",
"444 269 OFFCURVE",
"401 269 CURVE SMOOTH",
"378 269 OFFCURVE",
"354 270 OFFCURVE",
"329 271 CURVE",
"356 356 LINE SMOOTH",
"376 420 OFFCURVE",
"387 475 OFFCURVE",
"387 521 CURVE SMOOTH",
"387 586 OFFCURVE",
"365 633 OFFCURVE",
"314 663 CURVE SMOOTH",
"281 682 OFFCURVE",
"242 692 OFFCURVE",
"203 692 CURVE SMOOTH",
"80 692 OFFCURVE",
"-54 601 OFFCURVE",
"-90 439 CURVE SMOOTH",
"-91 435 OFFCURVE",
"-91 431 OFFCURVE",
"-91 427 CURVE SMOOTH",
"-91 402 OFFCURVE",
"-73 383 OFFCURVE",
"-52 383 CURVE SMOOTH",
"-34 383 OFFCURVE",
"-13 397 OFFCURVE",
"0 432 CURVE SMOOTH",
"43 542 OFFCURVE",
"106 600 OFFCURVE"
);
},
{
closed = 1;
nodes = (
"617 289 CURVE",
"634 355 LINE SMOOTH",
"669 491 OFFCURVE",
"733 548 OFFCURVE",
"777 548 CURVE SMOOTH",
"806 548 OFFCURVE",
"827 524 OFFCURVE",
"827 483 CURVE SMOOTH",
"827 479 OFFCURVE",
"826 476 OFFCURVE",
"826 472 CURVE SMOOTH",
"821 420 OFFCURVE",
"795 330 OFFCURVE"
);
}
);
width = 820;
}
);
unicode = 0048;
userData = {
com.typemytype.robofont.layerData = {
};
};
},
{
glyphname = Hbar;
lastChange = "2016-06-28 17:14:25 +0000";
layers = (
{
components = (
{
name = H;
}
);
layerId = "1677BB6F-42BC-4502-A615-23038A63E498";
paths = (
{
closed = 1;
nodes = (
"124 380 CURVE SMOOTH",
"647 381 LINE SMOOTH",
"670 382 OFFCURVE",
"681 402 OFFCURVE",
"681 420 CURVE SMOOTH",
"681 436 OFFCURVE",
"673 451 OFFCURVE",
"656 451 CURVE SMOOTH",
"655 451 LINE",
"134 434 LINE SMOOTH",
"108 433 OFFCURVE",
"96 418 OFFCURVE",
"96 404 CURVE SMOOTH",
"96 392 OFFCURVE",
"105 380 OFFCURVE"
);
}
);
width = 768;
}
);
unicode = 0126;
},
{
glyphname = I;
lastChange = "2016-06-28 17:14:25 +0000";
layers = (
{
anchors = (
{
name = ogonek;
position = "{174, 0}";
},
{
name = top;
position = "{347, 708}";
}
);
layerId = "1677BB6F-42BC-4502-A615-23038A63E498";
paths = (
{
closed = 1;
nodes = (
"-8 6 CURVE SMOOTH",
"-8 -14 OFFCURVE",
"4 -34 OFFCURVE",
"26 -34 CURVE SMOOTH",
"60 -34 OFFCURVE",
"189 -13 OFFCURVE",
"283 -9 CURVE SMOOTH",
"316 -8 OFFCURVE",
"330 14 OFFCURVE",
"330 34 CURVE SMOOTH",
"330 47 OFFCURVE",
"324 59 OFFCURVE",
"314 63 CURVE SMOOTH",
"298 69 OFFCURVE",
"241 72 OFFCURVE",
"223 72 CURVE SMOOTH",
"221 72 LINE",
"223 183 OFFCURVE",
"313 487 OFFCURVE",
"355 559 CURVE",
"420 559 OFFCURVE",
"463 559 OFFCURVE",
"469 589 CURVE SMOOTH",
"472 605 OFFCURVE",
"475 619 OFFCURVE",
"475 631 CURVE SMOOTH",
"475 650 OFFCURVE",
"468 662 OFFCURVE",
"447 662 CURVE SMOOTH",
"345 662 OFFCURVE",
"205 661 OFFCURVE",
"178 661 CURVE SMOOTH",
"154 661 OFFCURVE",
"140 629 OFFCURVE",
"140 601 CURVE SMOOTH",
"140 564 OFFCURVE",
"156 555 OFFCURVE",
"198 555 CURVE SMOOTH",
"215 555 OFFCURVE",
"237 556 OFFCURVE",
"265 557 CURVE",
"209 446 OFFCURVE",
"148 235 OFFCURVE",
"132 67 CURVE",
"93 66 OFFCURVE",
"4 53 OFFCURVE",
"-5 23 CURVE SMOOTH",
"-7 17 OFFCURVE",
"-8 11 OFFCURVE"
);
}
);
width = 346;
}
);
unicode = 0049;
userData = {
com.typemytype.robofont.layerData = {
};
};
},
{
glyphname = IJ;
lastChange = "2016-06-28 17:14:25 +0000";
layers = (
{
layerId = "1677BB6F-42BC-4502-A615-23038A63E498";
paths = (
{
closed = 1;
nodes = (
"401 122 CURVE SMOOTH",
"401 -46 OFFCURVE",
"440 -190 OFFCURVE",
"557 -190 CURVE SMOOTH",
"708 -190 OFFCURVE",
"834 251 OFFCURVE",
"938 575 CURVE",
"955 574 OFFCURVE",
"962 574 OFFCURVE",
"958 576 CURVE",
"977 578 OFFCURVE",
"975 579 OFFCURVE",
"1028 582 CURVE SMOOTH",
"1029 582 LINE SMOOTH",
"1038 582 OFFCURVE",
"1060 613 OFFCURVE",
"1060 638 CURVE SMOOTH",
"1060 654 OFFCURVE",
"1051 667 OFFCURVE",
"1023 667 CURVE SMOOTH",
"986 667 LINE SMOOTH",
"962 667 LINE",
"957 675 OFFCURVE",
"941 686 OFFCURVE",
"915 686 CURVE SMOOTH",
"896 686 OFFCURVE",
"882 681 OFFCURVE",
"873 667 CURVE",
"741 666 OFFCURVE",
"576 664 OFFCURVE",
"458 662 CURVE",
"469 662 OFFCURVE",
"474 661 OFFCURVE",
"474 661 CURVE SMOOTH",
"474 660 OFFCURVE",
"405 658 OFFCURVE",
"334 658 CURVE SMOOTH",
"263 658 OFFCURVE",
"190 659 OFFCURVE",
"178 661 CURVE SMOOTH",
"153 661 OFFCURVE",
"135 623 OFFCURVE",
"135 596 CURVE SMOOTH",
"135 588 OFFCURVE",
"137 581 OFFCURVE",
"140 576 CURVE SMOOTH",
"140 575 OFFCURVE",
"139 573 OFFCURVE",
"139 572 CURVE SMOOTH",
"139 557 OFFCURVE",
"165 555 OFFCURVE",
"194 555 CURVE SMOOTH",
"215 555 OFFCURVE",
"237 556 OFFCURVE",
"255 556 CURVE SMOOTH",
"261 556 LINE",
"204 446 OFFCURVE",
"148 235 OFFCURVE",
"132 67 CURVE",
"93 66 OFFCURVE",
"4 53 OFFCURVE",
"-5 23 CURVE SMOOTH",
"-7 17 OFFCURVE",
"-8 11 OFFCURVE",
"-8 6 CURVE SMOOTH",
"-8 -13 OFFCURVE",
"4 -34 OFFCURVE",
"25 -34 CURVE SMOOTH",
"58 -34 OFFCURVE",
"198 -8 OFFCURVE",
"293 -4 CURVE SMOOTH",
"331 -3 OFFCURVE",
"346 25 OFFCURVE",
"346 45 CURVE SMOOTH",
"346 54 OFFCURVE",
"343 61 OFFCURVE",
"338 65 CURVE SMOOTH",
"321 71 OFFCURVE",
"296 73 OFFCURVE",
"273 73 CURVE SMOOTH",
"250 73 OFFCURVE",
"230 71 OFFCURVE",
"220 69 CURVE",
"221 176 OFFCURVE",
"341 558 OFFCURVE",
"351 558 CURVE",
"351 558 OFFCURVE",
"352 558 OFFCURVE",
"352 557 CURVE",
"383 561 OFFCURVE",
"663 576 OFFCURVE",
"663 579 CURVE SMOOTH",
"664 579 LINE SMOOTH",
"682 579 OFFCURVE",
"833 576 OFFCURVE",
"845 575 CURVE",
"791 368 OFFCURVE",
"637 -81 OFFCURVE",
"545 -81 CURVE SMOOTH",
"485 -81 OFFCURVE",
"478 15 OFFCURVE",
"472 130 CURVE SMOOTH",
"471 159 OFFCURVE",
"453 175 OFFCURVE",
"436 175 CURVE SMOOTH",
"418 175 OFFCURVE",
"401 158 OFFCURVE"
);
}
);
width = 858;
}
);
unicode = 0132;
},
{
glyphname = J;
lastChange = "2016-06-28 17:14:25 +0000";
layers = (
{
anchors = (
{
name = top;
position = "{587, 708}";
}
);
layerId = "1677BB6F-42BC-4502-A615-23038A63E498";
paths = (
{
closed = 1;
nodes = (
"510 578 CURVE",
"459 370 OFFCURVE",
"310 -114 OFFCURVE",
"215 -114 CURVE SMOOTH",
"160 -114 OFFCURVE",
"144 -85 OFFCURVE",
"138 16 CURVE SMOOTH",
"136 45 OFFCURVE",
"118 61 OFFCURVE",
"100 61 CURVE SMOOTH",
"81 61 OFFCURVE",
"63 43 OFFCURVE",
"63 4 CURVE SMOOTH",
"67 -147 OFFCURVE",
"109 -222 OFFCURVE",
"223 -222 CURVE SMOOTH",
"385 -222 OFFCURVE",
"487 126 OFFCURVE",
"608 575 CURVE",
"643 574 OFFCURVE",
"671 573 OFFCURVE",
"687 573 CURVE SMOOTH",
"754 573 OFFCURVE",
"767 577 OFFCURVE",
"779 584 CURVE SMOOTH",
"795 593 OFFCURVE",
"801 610 OFFCURVE",
"801 632 CURVE SMOOTH",
"801 642 LINE SMOOTH",
"801 662 OFFCURVE",
"792 680 OFFCURVE",
"748 681 CURVE SMOOTH",
"704 681 OFFCURVE",
"663 682 OFFCURVE",
"623 685 CURVE",
"616 694 OFFCURVE",
"602 700 OFFCURVE",
"579 700 CURVE SMOOTH",
"565 700 OFFCURVE",
"554 698 OFFCURVE",
"545 690 CURVE",
"465 696 OFFCURVE",
"389 703 OFFCURVE",
"303 703 CURVE SMOOTH",
"166 703 OFFCURVE",
"48 674 OFFCURVE",
"-4 503 CURVE SMOOTH",
"-6 496 OFFCURVE",
"-7 490 OFFCURVE",
"-7 485 CURVE SMOOTH",
"-7 463 OFFCURVE",
"7 454 OFFCURVE",
"23 454 CURVE SMOOTH",
"37 454 OFFCURVE",
"53 462 OFFCURVE",
"60 476 CURVE SMOOTH",
"102 558 OFFCURVE",
"145 582 OFFCURVE",
"325 582 CURVE SMOOTH",
"367 582 OFFCURVE",
"440 580 OFFCURVE"
);
}
);
width = 523;
}
);
unicode = 004A;
userData = {
com.typemytype.robofont.layerData = {
};
};
},
{
glyphname = K;
lastChange = "2016-06-28 17:14:25 +0000";
layers = (
{
anchors = (
{
name = bot;
position = "{280, -152}";
},
{
name = top;
position = "{547, 708}";
}
);
layerId = "1677BB6F-42BC-4502-A615-23038A63E498";
paths = (
{
closed = 1;
nodes = (
"-1 -42 CURVE SMOOTH",
"-18 -42 OFFCURVE",
"-31 -34 OFFCURVE",
"-46 -34 CURVE SMOOTH",
"-75 -34 OFFCURVE",
"-97 -58 OFFCURVE",
"-97 -92 CURVE SMOOTH",
"-97 -95 OFFCURVE",
"-96 -99 OFFCURVE",
"-96 -103 CURVE SMOOTH",
"-92 -139 OFFCURVE",
"-15 -141 OFFCURVE",
"19 -141 CURVE SMOOTH",
"170 -141 OFFCURVE",
"265 5 OFFCURVE",
"320 286 CURVE",
"338 19 OFFCURVE",
"454 -151 OFFCURVE",
"609 -151 CURVE SMOOTH",
"614 -151 OFFCURVE",
"744 -146 OFFCURVE",
"744 -104 CURVE SMOOTH",
"744 -67 OFFCURVE",
"731 -55 OFFCURVE",
"707 -55 CURVE SMOOTH",
"685 -55 OFFCURVE",
"656 -65 OFFCURVE",
"621 -65 CURVE SMOOTH",
"523 -62 OFFCURVE",
"443 73 OFFCURVE",
"411 285 CURVE",
"595 376 OFFCURVE",
"755 553 OFFCURVE",
"783 613 CURVE SMOOTH",
"789 628 OFFCURVE",
"795 645 OFFCURVE",
"795 660 CURVE SMOOTH",
"795 678 OFFCURVE",
"786 692 OFFCURVE",
"760 692 CURVE SMOOTH",
"729 692 OFFCURVE",
"709 660 OFFCURVE",
"685 626 CURVE SMOOTH",
"634 557 OFFCURVE",
"496 416 OFFCURVE",
"327 327 CURVE",
"341 432 OFFCURVE",
"348 593 OFFCURVE",
"348 661 CURVE SMOOTH",
"348 687 OFFCURVE",
"328 703 OFFCURVE",
"306 703 CURVE SMOOTH",
"303 703 OFFCURVE",
"300 703 OFFCURVE",
"297 702 CURVE SMOOTH",
"14 655 OFFCURVE",
"-49 517 OFFCURVE",
"-49 418 CURVE SMOOTH",
"-49 366 OFFCURVE",
"-31 294 OFFCURVE",
"12 294 CURVE SMOOTH",
"14 294 OFFCURVE",
"16 295 OFFCURVE",
"18 295 CURVE SMOOTH",
"51 302 OFFCURVE",
"64 312 OFFCURVE",
"64 332 CURVE SMOOTH",
"64 338 LINE SMOOTH",
"57 354 OFFCURVE",
"43 388 OFFCURVE",
"43 429 CURVE SMOOTH",
"43 494 OFFCURVE",
"79 575 OFFCURVE",
"237 615 CURVE",
"239 572 OFFCURVE",
"241 531 OFFCURVE",
"241 492 CURVE SMOOTH",
"241 162 OFFCURVE",
"155 -42 OFFCURVE"
);
}
);
width = 697;
}
);
unicode = 004B;
userData = {
com.typemytype.robofont.layerData = {
};
};
},
{
glyphname = L;
lastChange = "2016-06-28 17:14:25 +0000";
layers = (
{
anchors = (
{
name = bot;
position = "{401, -160}";
},
{
name = caron.alt;
position = "{703, 481}";
},
{
name = top;
position = "{687, 708}";
}
);
layerId = "1677BB6F-42BC-4502-A615-23038A63E498";
paths = (
{
closed = 1;
nodes = (
"169 110 CURVE SMOOTH",
"86 110 OFFCURVE",
"41 50 OFFCURVE",
"41 -10 CURVE SMOOTH",
"41 -66 OFFCURVE",
"81 -121 OFFCURVE",
"170 -121 CURVE SMOOTH",
"182 -121 LINE SMOOTH",
"262 -117 OFFCURVE",
"323 -92 OFFCURVE",
"368 -52 CURVE",
"491 -126 OFFCURVE",
"638 -225 OFFCURVE",
"753 -225 CURVE SMOOTH",
"810 -225 OFFCURVE",
"859 -200 OFFCURVE",
"894 -136 CURVE SMOOTH",
"898 -128 OFFCURVE",
"900 -120 OFFCURVE",
"900 -113 CURVE SMOOTH",
"900 -89 OFFCURVE",
"879 -71 OFFCURVE",
"857 -71 CURVE SMOOTH",
"845 -71 OFFCURVE",
"832 -77 OFFCURVE",
"824 -89 CURVE SMOOTH",
"802 -123 OFFCURVE",
"772 -137 OFFCURVE",
"738 -137 CURVE SMOOTH",
"654 -137 OFFCURVE",
"541 -54 OFFCURVE",
"422 16 CURVE",
"468 95 OFFCURVE",
"487 201 OFFCURVE",
"495 319 CURVE",
"508 318 OFFCURVE",
"520 318 OFFCURVE",
"532 318 CURVE SMOOTH",
"761 318 OFFCURVE",
"845 409 OFFCURVE",
"858 501 CURVE SMOOTH",
"859 510 OFFCURVE",
"860 519 OFFCURVE",
"860 528 CURVE SMOOTH",
"860 635 OFFCURVE",
"766 701 OFFCURVE",
"635 701 CURVE SMOOTH",
"532 701 OFFCURVE",
"401 655 OFFCURVE",
"383 417 CURVE SMOOTH",
"383 414 OFFCURVE",
"383 411 OFFCURVE",
"382 408 CURVE",
"350 413 OFFCURVE",
"315 419 OFFCURVE",
"277 427 CURVE SMOOTH",
"274 428 OFFCURVE",
"271 428 OFFCURVE",
"268 428 CURVE SMOOTH",
"245 428 OFFCURVE",
"232 407 OFFCURVE",
"232 387 CURVE SMOOTH",
"232 370 OFFCURVE",
"241 354 OFFCURVE",
"261 350 CURVE SMOOTH",
"302 342 OFFCURVE",
"341 335 OFFCURVE",
"377 330 CURVE",
"369 234 OFFCURVE",
"358 137 OFFCURVE",
"331 66 CURVE",
"275 92 OFFCURVE",
"221 110 OFFCURVE"
);
},
{
closed = 1;
nodes = (
"288 -7 CURVE",
"265 -32 OFFCURVE",
"235 -46 OFFCURVE",
"197 -46 CURVE SMOOTH",
"161 -46 OFFCURVE",
"138 -31 OFFCURVE",
"138 -7 CURVE SMOOTH",
"138 13 OFFCURVE",
"154 29 OFFCURVE",
"181 29 CURVE SMOOTH",
"210 29 OFFCURVE",
"246 15 OFFCURVE"
);
},
{
closed = 1;
nodes = (
"501 399 CURVE",
"517 564 OFFCURVE",
"551 614 OFFCURVE",
"640 614 CURVE SMOOTH",
"706 614 OFFCURVE",
"750 583 OFFCURVE",
"750 528 CURVE SMOOTH",
"750 468 OFFCURVE",
"691 399 OFFCURVE",
"511 399 CURVE SMOOTH",
"508 399 OFFCURVE",
"504 399 OFFCURVE"
);
}
);
width = 645;
}
);
unicode = 004C;
userData = {
com.typemytype.robofont.layerData = {
};
};
},
{
glyphname = Lslash;
lastChange = "2016-06-28 17:14:25 +0000";
layers = (
{
components = (
{
name = L;
}
);
layerId = "1677BB6F-42BC-4502-A615-23038A63E498";
paths = (
{
closed = 1;
nodes = (
"558 226 LINE SMOOTH",
"569 233 OFFCURVE",
"576 243 OFFCURVE",
"576 253 CURVE SMOOTH",
"575 267 OFFCURVE",
"560 282 OFFCURVE",
"543 282 CURVE SMOOTH",
"540 282 OFFCURVE",
"537 281 OFFCURVE",
"533 278 CURVE SMOOTH",
"334 170 LINE SMOOTH",
"317 161 OFFCURVE",
"307 150 OFFCURVE",
"307 137 CURVE SMOOTH",
"307 123 OFFCURVE",
"319 111 OFFCURVE",
"335 111 CURVE SMOOTH",
"340 111 OFFCURVE",
"345 111 OFFCURVE",
"349 113 CURVE SMOOTH"
);
}
);
width = 622;
}
);
unicode = 0141;
},
{
glyphname = M;
lastChange = "2016-06-28 17:14:25 +0000";
layers = (
{
anchors = (
{
name = top;
position = "{657, 708}";
}
);
layerId = "1677BB6F-42BC-4502-A615-23038A63E498";
paths = (
{
closed = 1;
nodes = (
"168 571 CURVE SMOOTH",
"184 571 OFFCURVE",
"189 558 OFFCURVE",
"189 531 CURVE SMOOTH",
"189 491 OFFCURVE",
"175 421 OFFCURVE",
"145 318 CURVE SMOOTH",
"41 -32 LINE",
"47 -37 OFFCURVE",
"79 -59 OFFCURVE",
"121 -59 CURVE SMOOTH",
"160 -59 OFFCURVE",
"165 -23 OFFCURVE",
"177 14 CURVE SMOOTH",
"296 381 OFFCURVE",
"359 536 OFFCURVE",
"459 536 CURVE SMOOTH",
"499 536 OFFCURVE",
"512 507 OFFCURVE",
"512 470 CURVE SMOOTH",
"512 442 OFFCURVE",
"504 408 OFFCURVE",
"497 381 CURVE SMOOTH",
"378 -23 LINE",
"383 -27 OFFCURVE",
"411 -49 OFFCURVE",
"445 -49 CURVE SMOOTH",
"484 -49 OFFCURVE",
"489 -9 OFFCURVE",
"506 39 CURVE SMOOTH",
"594 289 OFFCURVE",
"674 545 OFFCURVE",
"767 562 CURVE SMOOTH",
"772 563 OFFCURVE",
"777 563 OFFCURVE",
"781 563 CURVE SMOOTH",
"811 563 OFFCURVE",
"822 541 OFFCURVE",
"822 507 CURVE SMOOTH",
"822 467 OFFCURVE",
"807 412 OFFCURVE",
"791 358 CURVE SMOOTH",
"721 123 LINE SMOOTH",
"711 90 OFFCURVE",
"705 57 OFFCURVE",
"705 28 CURVE SMOOTH",
"705 -40 OFFCURVE",
"744 -94 OFFCURVE",
"843 -94 CURVE SMOOTH",
"886 -94 OFFCURVE",
"933 -80 OFFCURVE",
"974 -33 CURVE SMOOTH",
"983 -23 OFFCURVE",
"987 -12 OFFCURVE",
"987 -2 CURVE SMOOTH",
"987 20 OFFCURVE",
"968 37 OFFCURVE",
"949 37 CURVE SMOOTH",
"941 37 OFFCURVE",
"933 34 OFFCURVE",
"927 27 CURVE SMOOTH",
"907 4 OFFCURVE",
"879 -7 OFFCURVE",
"855 -7 CURVE SMOOTH",
"825 -7 OFFCURVE",
"801 10 OFFCURVE",
"801 47 CURVE SMOOTH",
"801 56 OFFCURVE",
"803 66 OFFCURVE",
"806 78 CURVE SMOOTH",
"881 334 LINE SMOOTH",
"901 402 OFFCURVE",
"916 465 OFFCURVE",
"920 530 CURVE SMOOTH",
"920 542 LINE SMOOTH",
"920 584 OFFCURVE",
"904 661 OFFCURVE",
"813 661 CURVE SMOOTH",
"806 661 OFFCURVE",
"799 661 OFFCURVE",
"791 660 CURVE SMOOTH",
"708 650 OFFCURVE",
"639 569 OFFCURVE",
"572 398 CURVE",
"587 454 OFFCURVE",
"595 500 OFFCURVE",
"595 537 CURVE SMOOTH",
"595 615 OFFCURVE",
"562 650 OFFCURVE",
"505 650 CURVE SMOOTH",
"495 650 LINE SMOOTH",
"416 645 OFFCURVE",
"331 598 OFFCURVE",
"241 388 CURVE",
"263 463 OFFCURVE",
"278 523 OFFCURVE",
"278 567 CURVE SMOOTH",
"278 623 OFFCURVE",
"251 657 OFFCURVE",
"179 657 CURVE SMOOTH",
"106 657 OFFCURVE",
"11 596 OFFCURVE",
"-9 510 CURVE SMOOTH",
"-9 508 OFFCURVE",
"-10 506 OFFCURVE",
"-10 504 CURVE SMOOTH",
"-10 469 OFFCURVE",
"52 433 OFFCURVE",
"58 433 CURVE",
"86 494 OFFCURVE",
"126 571 OFFCURVE"
);
}
);
width = 919;
}
);
unicode = 004D;
userData = {
com.typemytype.robofont.layerData = {
};
};
},
{
glyphname = N;
lastChange = "2016-06-28 17:14:25 +0000";
layers = (
{
anchors = (
{
name = top;
position = "{547, 708}";
}
);
layerId = "1677BB6F-42BC-4502-A615-23038A63E498";
paths = (
{
closed = 1;
nodes = (
"661 566 CURVE SMOOTH",
"661 635 OFFCURVE",
"617 674 OFFCURVE",
"538 674 CURVE SMOOTH",
"402 674 OFFCURVE",
"317 561 OFFCURVE",
"267 450 CURVE",
"280 491 OFFCURVE",
"289 532 OFFCURVE",
"289 569 CURVE SMOOTH",
"289 631 OFFCURVE",
"264 677 OFFCURVE",
"189 677 CURVE SMOOTH",
"105 677 OFFCURVE",
"1 620 OFFCURVE",
"-25 493 CURVE SMOOTH",
"-26 486 OFFCURVE",
"-27 480 OFFCURVE",
"-27 475 CURVE SMOOTH",
"-27 432 OFFCURVE",
"13 426 OFFCURVE",
"49 424 CURVE",
"83 544 OFFCURVE",
"131 589 OFFCURVE",
"174 589 CURVE SMOOTH",
"195 589 OFFCURVE",
"208 572 OFFCURVE",
"208 535 CURVE SMOOTH",
"208 493 OFFCURVE",
"191 426 OFFCURVE",
"150 328 CURVE SMOOTH",
"96 201 OFFCURVE",
"6 -9 OFFCURVE",
"-6 -41 CURVE",
"4 -48 OFFCURVE",
"32 -58 OFFCURVE",
"68 -58 CURVE SMOOTH",
"104 -58 OFFCURVE",
"118 -34 OFFCURVE",
"144 30 CURVE SMOOTH",
"247 260 LINE SMOOTH",
"324 438 OFFCURVE",
"395 564 OFFCURVE",
"517 564 CURVE SMOOTH",
"539 564 OFFCURVE",
"554 549 OFFCURVE",
"554 528 CURVE SMOOTH",
"554 438 OFFCURVE",
"436 286 OFFCURVE",
"407 101 CURVE SMOOTH",
"406 94 OFFCURVE",
"405 86 OFFCURVE",
"405 79 CURVE SMOOTH",
"405 4 OFFCURVE",
"469 -43 OFFCURVE",
"543 -43 CURVE SMOOTH",
"594 -43 OFFCURVE",
"650 -20 OFFCURVE",
"694 31 CURVE SMOOTH",
"709 49 OFFCURVE",
"716 66 OFFCURVE",
"716 80 CURVE SMOOTH",
"716 101 OFFCURVE",
"701 116 OFFCURVE",
"683 116 CURVE SMOOTH",
"672 116 OFFCURVE",
"659 110 OFFCURVE",
"647 97 CURVE SMOOTH",
"624 70 OFFCURVE",
"592 57 OFFCURVE",
"566 57 CURVE SMOOTH",
"539 57 OFFCURVE",
"517 71 OFFCURVE",
"517 100 CURVE SMOOTH",
"517 105 OFFCURVE",
"518 110 OFFCURVE",
"519 115 CURVE SMOOTH",
"557 300 OFFCURVE",
"661 434 OFFCURVE"
);
}
);
width = 626;
}
);
unicode = 004E;
userData = {
com.typemytype.robofont.layerData = {
};
};
},
{
glyphname = Eng;
lastChange = "2016-06-28 17:14:25 +0000";
layers = (
{
layerId = "1677BB6F-42BC-4502-A615-23038A63E498";
paths = (
{
closed = 1;
nodes = (
"278 -62 CURVE",
"252 -130 OFFCURVE",
"171 -261 OFFCURVE",
"108 -261 CURVE SMOOTH",
"102 -261 OFFCURVE",
"98 -259 OFFCURVE",
"99 -249 CURVE SMOOTH",
"98 -223 OFFCURVE",
"137 -130 OFFCURVE"
);
},
{
closed = 1;
nodes = (
"39 -274 CURVE SMOOTH",
"39 -302 OFFCURVE",
"64 -320 OFFCURVE",
"107 -320 CURVE SMOOTH",
"171 -320 OFFCURVE",
"300 -243 OFFCURVE",
"392 -24 CURVE",
"454 13 OFFCURVE",
"510 14 OFFCURVE",
"561 44 CURVE SMOOTH",
"590 58 OFFCURVE",
"603 76 OFFCURVE",
"603 89 CURVE SMOOTH",
"603 99 OFFCURVE",
"596 106 OFFCURVE",
"584 106 CURVE SMOOTH",
"581 106 OFFCURVE",
"577 105 OFFCURVE",
"573 104 CURVE SMOOTH",
"571 104 LINE SMOOTH",
"549 104 OFFCURVE",
"457 72 OFFCURVE",
"405 43 CURVE",
"499 321 OFFCURVE",
"573 465 OFFCURVE",
"573 566 CURVE SMOOTH",
"573 635 OFFCURVE",
"530 674 OFFCURVE",
"452 674 CURVE SMOOTH",
"269 674 OFFCURVE",
"195 500 OFFCURVE",
"152 372 CURVE",
"178 468 OFFCURVE",
"199 557 OFFCURVE",
"199 597 CURVE SMOOTH",
"199 644 OFFCURVE",
"151 673 OFFCURVE",
"107 673 CURVE SMOOTH",
"101 673 OFFCURVE",
"96 672 OFFCURVE",
"90 671 CURVE SMOOTH",
"-7 657 OFFCURVE",
"-77 584 OFFCURVE",
"-110 504 CURVE SMOOTH",
"-113 497 OFFCURVE",
"-114 491 OFFCURVE",
"-114 485 CURVE SMOOTH",
"-114 437 OFFCURVE",
"-35 409 OFFCURVE",
"-41 412 CURVE",
"-33 461 OFFCURVE",
"41 589 OFFCURVE",
"85 589 CURVE SMOOTH",
"86 589 LINE SMOOTH",
"103 589 OFFCURVE",
"106 560 OFFCURVE",
"106 542 CURVE SMOOTH",
"106 533 OFFCURVE",
"105 527 OFFCURVE",
"105 527 CURVE",
"104 403 OFFCURVE",
"-34 96 OFFCURVE",
"-92 -40 CURVE",
"-91 -40 OFFCURVE",
"-90 -39 OFFCURVE",
"-89 -39 CURVE SMOOTH",
"-80 -39 OFFCURVE",
"-51 -58 OFFCURVE",
"-20 -58 CURVE SMOOTH",
"36 -58 OFFCURVE",
"37 -10 OFFCURVE",
"56 30 CURVE SMOOTH",
"187 310 OFFCURVE",
"260 564 OFFCURVE",
"428 564 CURVE SMOOTH",
"449 564 OFFCURVE",
"466 548 OFFCURVE",
"466 526 CURVE SMOOTH",
"466 460 OFFCURVE",
"413 331 OFFCURVE",
"295 -2 CURVE",
"105 -94 OFFCURVE",
"39 -214 OFFCURVE"
);
},
{
closed = 1;
nodes = (
"-92 -40 CURVE",
"-92 -41 OFFCURVE",
"-92 -41 OFFCURVE",
"-92 -41 CURVE",
"-92 -41 OFFCURVE",
"-92 -41 OFFCURVE"
);
}
);
width = 538;
}
);
unicode = 014A;
},
{
glyphname = O;
lastChange = "2016-06-28 17:14:25 +0000";
layers = (
{
anchors = (
{
name = ogonek;
position = "{348, -90}";
},
{
name = top;
position = "{467, 708}";
}
);
layerId = "1677BB6F-42BC-4502-A615-23038A63E498";
paths = (
{
closed = 1;
nodes = (
"56 235 CURVE SMOOTH",
"56 53 OFFCURVE",
"149 -104 OFFCURVE",
"342 -104 CURVE SMOOTH",
"578 -104 OFFCURVE",
"698 114 OFFCURVE",
"698 316 CURVE SMOOTH",
"698 493 OFFCURVE",
"604 658 OFFCURVE",
"416 658 CURVE SMOOTH",
"178 658 OFFCURVE",
"56 438 OFFCURVE"
);
},
{
closed = 1;
nodes = (
"411 562 CURVE SMOOTH",
"522 562 OFFCURVE",
"576 447 OFFCURVE",
"576 318 CURVE SMOOTH",
"576 163 OFFCURVE",
"499 -5 OFFCURVE",
"342 -5 CURVE SMOOTH",
"226 -5 OFFCURVE",
"172 113 OFFCURVE",
"172 244 CURVE SMOOTH",
"172 397 OFFCURVE",
"249 562 OFFCURVE"
);
}
);
width = 662;
}
);
unicode = 004F;
userData = {
com.typemytype.robofont.layerData = {
};
};
},
{
glyphname = Oslash;
lastChange = "2016-06-28 17:14:25 +0000";
layers = (
{
components = (
{
name = O;
}
);
layerId = "1677BB6F-42BC-4502-A615-23038A63E498";
paths = (
{
closed = 1;
nodes = (
"136 -201 CURVE SMOOTH",
"711 702 LINE SMOOTH",
"715 708 OFFCURVE",
"717 713 OFFCURVE",
"717 718 CURVE SMOOTH",
"717 730 OFFCURVE",
"706 737 OFFCURVE",
"695 737 CURVE SMOOTH",
"687 737 OFFCURVE",
"678 734 OFFCURVE",
"674 725 CURVE SMOOTH",
"76 -158 LINE SMOOTH",
"71 -167 OFFCURVE",
"69 -175 OFFCURVE",
"69 -182 CURVE SMOOTH",
"69 -203 OFFCURVE",
"88 -216 OFFCURVE",
"107 -216 CURVE SMOOTH",
"118 -216 OFFCURVE",
"129 -212 OFFCURVE"
);
}
);
width = 678;
}
);
unicode = 00D8;
userData = {
com.typemytype.robofont.layerData = {
};
};
},
{
glyphname = OE;
lastChange = "2016-06-28 17:14:25 +0000";
layers = (
{
layerId = "1677BB6F-42BC-4502-A615-23038A63E498";
paths = (
{
closed = 1;
nodes = (
"587 316 CURVE SMOOTH",
"587 112 OFFCURVE",
"536 -5 OFFCURVE",
"364 -5 CURVE SMOOTH",
"357 -5 OFFCURVE",
"350 -4 OFFCURVE",
"342 -4 CURVE SMOOTH",
"241 2 OFFCURVE",
"186 127 OFFCURVE",
"186 233 CURVE SMOOTH",
"186 345 OFFCURVE",
"245 562 OFFCURVE",
"436 562 CURVE SMOOTH",
"535 562 OFFCURVE",
"587 448 OFFCURVE"
);
},
{
closed = 1;
nodes = (
"77 211 CURVE SMOOTH",
"77 82 OFFCURVE",
"158 -103 OFFCURVE",
"336 -103 CURVE SMOOTH",
"468 -103 OFFCURVE",
"563 -35 OFFCURVE",
"587 16 CURVE",
"597 -49 OFFCURVE",
"648 -104 OFFCURVE",
"758 -104 CURVE SMOOTH",
"887 -104 OFFCURVE",
"1105 -12 OFFCURVE",
"1182 69 CURVE SMOOTH",
"1189 78 OFFCURVE",
"1193 88 OFFCURVE",
"1193 99 CURVE SMOOTH",
"1193 124 OFFCURVE",
"1176 153 OFFCURVE",
"1152 153 CURVE SMOOTH",
"1141 153 OFFCURVE",
"1132 147 OFFCURVE",
"1120 136 CURVE SMOOTH",
"1056 67 OFFCURVE",
"875 -1 OFFCURVE",
"760 -1 CURVE SMOOTH",
"658 -1 OFFCURVE",
"656 76 OFFCURVE",
"652 98 CURVE",
"678 136 OFFCURVE",
"697 229 OFFCURVE",
"697 262 CURVE SMOOTH",
"697 268 OFFCURVE",
"696 272 OFFCURVE",
"695 273 CURVE",
"742 270 OFFCURVE",
"748 265 OFFCURVE",
"813 265 CURVE SMOOTH",
"857 265 OFFCURVE",
"880 298 OFFCURVE",
"880 325 CURVE SMOOTH",
"880 344 OFFCURVE",
"867 372 OFFCURVE",
"833 372 CURVE SMOOTH",
"829 372 LINE SMOOTH",
"697 372 LINE",
"693 392 OFFCURVE",
"685 430 OFFCURVE",
"679 453 CURVE SMOOTH",
"678 458 OFFCURVE",
"678 462 OFFCURVE",
"678 467 CURVE SMOOTH",
"678 556 OFFCURVE",
"803 637 OFFCURVE",
"932 637 CURVE SMOOTH",
"978 637 OFFCURVE",
"1017 624 OFFCURVE",
"1047 598 CURVE SMOOTH",
"1048 599 OFFCURVE",
"1048 600 OFFCURVE",
"1048 600 CURVE SMOOTH",
"1049 600 OFFCURVE",
"1027 542 OFFCURVE",
"1023 542 CURVE SMOOTH",
"1023 542 OFFCURVE",
"1022 542 OFFCURVE",
"1022 544 CURVE",
"1012 526 OFFCURVE",
"1007 512 OFFCURVE",
"1007 502 CURVE SMOOTH",
"1007 489 OFFCURVE",
"1016 483 OFFCURVE",
"1033 483 CURVE SMOOTH",
"1047 483 LINE SMOOTH",
"1082 483 OFFCURVE",
"1138 491 OFFCURVE",
"1138 573 CURVE SMOOTH",
"1138 672 OFFCURVE",
"1048 717 OFFCURVE",
"943 717 CURVE SMOOTH",
"818 717 OFFCURVE",
"654 655 OFFCURVE",
"616 545 CURVE",
"610 591 OFFCURVE",
"549 658 OFFCURVE",
"432 658 CURVE SMOOTH",
"188 658 OFFCURVE",
"77 446 OFFCURVE"
);
}
);
width = 1076;
}
);
unicode = 0152;
},
{
glyphname = P;
lastChange = "2016-06-28 17:14:25 +0000";
layers = (
{
anchors = (
{
name = top;
position = "{477, 708}";
}
);
layerId = "1677BB6F-42BC-4502-A615-23038A63E498";
paths = (
{
closed = 1;
nodes = (
"728 507 CURVE SMOOTH",
"728 638 OFFCURVE",
"621 726 OFFCURVE",
"456 726 CURVE SMOOTH",
"438 726 OFFCURVE",
"419 725 OFFCURVE",
"399 723 CURVE SMOOTH",
"176 698 OFFCURVE",
"71 471 OFFCURVE",
"71 198 CURVE SMOOTH",
"71 23 OFFCURVE",
"110 -129 OFFCURVE",
"226 -129 CURVE SMOOTH",
"337 -129 OFFCURVE",
"369 -34 OFFCURVE",
"385 97 CURVE SMOOTH",
"403 240 LINE",
"603 255 OFFCURVE",
"728 375 OFFCURVE"
);
},
{
closed = 1;
nodes = (
"472 485 CURVE SMOOTH",
"472 513 OFFCURVE",
"447 520 OFFCURVE",
"425 520 CURVE SMOOTH",
"373 520 OFFCURVE",
"355 478 OFFCURVE",
"324 328 CURVE",
"313 331 OFFCURVE",
"280 344 OFFCURVE",
"254 358 CURVE SMOOTH",
"251 360 OFFCURVE",
"248 361 OFFCURVE",
"245 361 CURVE SMOOTH",
"233 361 OFFCURVE",
"227 344 OFFCURVE",
"227 328 CURVE SMOOTH",
"227 278 OFFCURVE",
"261 274 OFFCURVE",
"312 254 CURVE",
"288 67 OFFCURVE",
"298 -45 OFFCURVE",
"238 -45 CURVE SMOOTH",
"175 -45 OFFCURVE",
"170 103 OFFCURVE",
"170 205 CURVE SMOOTH",
"170 383 OFFCURVE",
"218 602 OFFCURVE",
"392 625 CURVE SMOOTH",
"408 627 OFFCURVE",
"424 628 OFFCURVE",
"438 628 CURVE SMOOTH",
"540 628 OFFCURVE",
"601 577 OFFCURVE",
"601 495 CURVE SMOOTH",
"601 410 OFFCURVE",
"529 337 OFFCURVE",
"412 319 CURVE",
"433 416 OFFCURVE",
"472 451 OFFCURVE"
);
}
);
width = 579;
}
);
unicode = 0050;
userData = {
com.typemytype.robofont.layerData = {
};
};
},
{
glyphname = Thorn;
lastChange = "2016-06-28 17:14:25 +0000";
layers = (
{
layerId = "1677BB6F-42BC-4502-A615-23038A63E498";
paths = (
{
closed = 1;
nodes = (
"397 326 CURVE",
"414 383 OFFCURVE",
"439 514 OFFCURVE",
"458 630 CURVE",
"543 616 OFFCURVE",
"587 570 OFFCURVE",
"587 495 CURVE SMOOTH",
"587 410 OFFCURVE",
"515 344 OFFCURVE"
);
},
{
closed = 1;
nodes = (
"229 360 CURVE SMOOTH",
"212 360 OFFCURVE",
"212 350 OFFCURVE",
"212 328 CURVE SMOOTH",
"212 278 OFFCURVE",
"249 274 OFFCURVE",
"299 248 CURVE",
"274 61 OFFCURVE",
"285 -46 OFFCURVE",
"226 -46 CURVE SMOOTH",
"162 -46 OFFCURVE",
"154 103 OFFCURVE",
"154 205 CURVE SMOOTH",
"154 376 OFFCURVE",
"201 600 OFFCURVE",
"361 628 CURVE",
"347 546 OFFCURVE",
"332 446 OFFCURVE",
"311 328 CURVE",
"296 330 OFFCURVE",
"258 360 OFFCURVE"
);
},
{
closed = 1;
nodes = (
"213 -125 CURVE SMOOTH",
"323 -125 OFFCURVE",
"355 -24 OFFCURVE",
"369 97 CURVE SMOOTH",
"380 180 OFFCURVE",
"380 255 OFFCURVE",
"393 258 CURVE SMOOTH",
"578 288 OFFCURVE",
"691 383 OFFCURVE",
"691 504 CURVE SMOOTH",
"691 607 OFFCURVE",
"609 698 OFFCURVE",
"473 720 CURVE",
"482 779 OFFCURVE",
"489 824 OFFCURVE",
"489 830 CURVE SMOOTH",
"490 844 OFFCURVE",
"485 849 OFFCURVE",
"472 849 CURVE SMOOTH",
"424 849 OFFCURVE",
"398 793 OFFCURVE",
"378 723 CURVE",
"161 708 OFFCURVE",
"59 468 OFFCURVE",
"59 198 CURVE SMOOTH",
"59 23 OFFCURVE",
"97 -125 OFFCURVE"
);
}
);
width = 384;
}
);
unicode = 00DE;
},
{
glyphname = Q;
lastChange = "2016-06-28 17:14:25 +0000";
layers = (
{
components = (
{
name = O;
}
);
layerId = "1677BB6F-42BC-4502-A615-23038A63E498";
paths = (
{
closed = 1;
nodes = (
"1069 -271 CURVE SMOOTH",
"1069 -249 OFFCURVE",
"1040 -232 OFFCURVE",
"1022 -232 CURVE SMOOTH",
"1006 -232 OFFCURVE",
"998 -240 OFFCURVE",
"990 -250 CURVE SMOOTH",
"977 -266 OFFCURVE",
"962 -284 OFFCURVE",
"948 -294 CURVE SMOOTH",
"939 -301 OFFCURVE",
"926 -305 OFFCURVE",
"910 -305 CURVE SMOOTH",
"831 -305 OFFCURVE",
"671 -213 OFFCURVE",
"413 2 CURVE SMOOTH",
"411 4 OFFCURVE",
"407 4 OFFCURVE",
"404 4 CURVE SMOOTH",
"383 4 OFFCURVE",
"350 -28 OFFCURVE",
"350 -47 CURVE SMOOTH",
"350 -51 OFFCURVE",
"352 -55 OFFCURVE",
"355 -57 CURVE SMOOTH",
"593 -248 OFFCURVE",
"770 -406 OFFCURVE",
"899 -406 CURVE SMOOTH",
"929 -406 OFFCURVE",
"955 -398 OFFCURVE",
"980 -380 CURVE SMOOTH",
"1050 -328 OFFCURVE",
"1066 -287 OFFCURVE",
"1068 -277 CURVE SMOOTH",
"1068 -275 OFFCURVE",
"1069 -273 OFFCURVE"
);
}
);
width = 736;
}
);
unicode = 0051;
},
{
glyphname = R;
lastChange = "2016-06-28 17:14:25 +0000";
layers = (
{
anchors = (
{
name = top;
position = "{517, 708}";
}
);
layerId = "1677BB6F-42BC-4502-A615-23038A63E498";
paths = (
{
closed = 1;
nodes = (
"972 -107 CURVE SMOOTH",
"972 -88 OFFCURVE",
"949 -64 OFFCURVE",
"929 -64 CURVE SMOOTH",
"925 -64 OFFCURVE",
"921 -66 OFFCURVE",
"918 -69 CURVE SMOOTH",
"875 -114 OFFCURVE",
"848 -123 OFFCURVE",
"823 -123 CURVE SMOOTH",
"816 -123 OFFCURVE",
"809 -123 OFFCURVE",
"803 -122 CURVE SMOOTH",
"703 -109 OFFCURVE",
"590 151 OFFCURVE",
"548 298 CURVE",
"681 329 OFFCURVE",
"748 416 OFFCURVE",
"748 501 CURVE SMOOTH",
"748 607 OFFCURVE",
"650 710 OFFCURVE",
"452 710 CURVE SMOOTH",
"234 710 OFFCURVE",
"91 515 OFFCURVE",
"78 182 CURVE SMOOTH",
"77 164 OFFCURVE",
"76 147 OFFCURVE",
"76 131 CURVE SMOOTH",
"76 -43 OFFCURVE",
"137 -144 OFFCURVE",
"225 -145 CURVE SMOOTH",
"389 -145 OFFCURVE",
"395 95 OFFCURVE",
"418 286 CURVE",
"436 287 OFFCURVE",
"453 288 OFFCURVE",
"463 289 CURVE",
"474 144 OFFCURVE",
"631 -230 OFFCURVE",
"801 -230 CURVE SMOOTH",
"902 -230 OFFCURVE",
"965 -135 OFFCURVE",
"971 -112 CURVE SMOOTH",
"972 -111 OFFCURVE",
"972 -109 OFFCURVE"
);
},
{
closed = 1;
nodes = (
"342 367 CURVE",
"324 369 OFFCURVE",
"309 371 OFFCURVE",
"299 371 CURVE SMOOTH",
"283 371 OFFCURVE",
"283 346 OFFCURVE",
"283 333 CURVE SMOOTH",
"284 309 OFFCURVE",
"304 296 OFFCURVE",
"331 290 CURVE",
"308 119 OFFCURVE",
"289 -34 OFFCURVE",
"249 -48 CURVE SMOOTH",
"244 -50 OFFCURVE",
"240 -50 OFFCURVE",
"236 -50 CURVE SMOOTH",
"196 -50 OFFCURVE",
"183 24 OFFCURVE",
"183 164 CURVE SMOOTH",
"183 193 LINE SMOOTH",
"186 441 OFFCURVE",
"282 609 OFFCURVE",
"458 609 CURVE SMOOTH",
"577 609 OFFCURVE",
"629 556 OFFCURVE",
"630 498 CURVE SMOOTH",
"630 431 OFFCURVE",
"558 356 OFFCURVE",
"437 356 CURVE SMOOTH",
"434 356 OFFCURVE",
"431 356 OFFCURVE",
"427 356 CURVE",
"429 368 OFFCURVE",
"432 380 OFFCURVE",
"434 391 CURVE SMOOTH",
"440 411 OFFCURVE",
"480 440 OFFCURVE",
"483 476 CURVE SMOOTH",
"483 503 OFFCURVE",
"468 513 OFFCURVE",
"443 514 CURVE SMOOTH",
"393 514 OFFCURVE",
"354 446 OFFCURVE",
"347 400 CURVE SMOOTH",
"345 389 OFFCURVE",
"344 378 OFFCURVE"
);
}
);
width = 750;
}
);
unicode = 0052;
userData = {
com.typemytype.robofont.layerData = {
};
};
},
{
glyphname = S;
lastChange = "2016-06-28 17:14:25 +0000";
layers = (
{
anchors = (
{
name = bot;
position = "{342, -89}";
},
{
name = top;
position = "{507, 708}";
}
);
layerId = "1677BB6F-42BC-4502-A615-23038A63E498";
paths = (
{
closed = 1;
nodes = (
"342 -26 CURVE SMOOTH",
"226 -26 OFFCURVE",
"162 5 OFFCURVE",
"162 90 CURVE SMOOTH",
"162 135 OFFCURVE",
"190 141 OFFCURVE",
"190 173 CURVE SMOOTH",
"190 192 OFFCURVE",
"177 203 OFFCURVE",
"157 203 CURVE SMOOTH",
"88 203 OFFCURVE",
"49 142 OFFCURVE",
"49 87 CURVE SMOOTH",
"49 79 LINE SMOOTH",
"58 -56 OFFCURVE",
"191 -114 OFFCURVE",
"338 -114 CURVE SMOOTH",
"515 -114 OFFCURVE",
"647 -41 OFFCURVE",
"647 91 CURVE SMOOTH",
"647 211 OFFCURVE",
"571 243 OFFCURVE",
"447 309 CURVE SMOOTH",
"314 380 OFFCURVE",
"269 392 OFFCURVE",
"269 454 CURVE SMOOTH",
"269 506 OFFCURVE",
"320 551 OFFCURVE",
"425 551 CURVE SMOOTH",
"516 551 OFFCURVE",
"563 522 OFFCURVE",
"563 474 CURVE SMOOTH",
"563 444 OFFCURVE",
"550 422 OFFCURVE",
"531 405 CURVE SMOOTH",
"523 395 OFFCURVE",
"519 385 OFFCURVE",
"519 375 CURVE SMOOTH",
"519 352 OFFCURVE",
"540 332 OFFCURVE",
"567 332 CURVE SMOOTH",
"590 332 OFFCURVE",
"607 342 OFFCURVE",
"625 360 CURVE SMOOTH",
"649 386 OFFCURVE",
"670 425 OFFCURVE",
"671 474 CURVE SMOOTH",
"668 579 OFFCURVE",
"566 632 OFFCURVE",
"433 632 CURVE SMOOTH",
"292 632 OFFCURVE",
"142 569 OFFCURVE",
"142 446 CURVE SMOOTH",
"142 336 OFFCURVE",
"220 305 OFFCURVE",
"317 253 CURVE SMOOTH",
"419 198 OFFCURVE",
"520 167 OFFCURVE",
"520 84 CURVE SMOOTH",
"520 19 OFFCURVE",
"472 -26 OFFCURVE"
);
}
);
width = 681;
}
);
unicode = 0053;
userData = {
com.typemytype.robofont.layerData = {
};
};
},
{
glyphname = T;
lastChange = "2016-06-28 17:14:25 +0000";
layers = (
{
anchors = (
{
name = bot;
position = "{320, -104}";
},
{
name = top;
position = "{517, 708}";
}
);
layerId = "1677BB6F-42BC-4502-A615-23038A63E498";
paths = (
{
closed = 1;
nodes = (
"254 -24 CURVE SMOOTH",
"254 -61 OFFCURVE",
"270 -86 OFFCURVE",
"312 -86 CURVE SMOOTH",
"344 -86 OFFCURVE",
"368 -67 OFFCURVE",
"377 -6 CURVE SMOOTH",
"388 65 OFFCURVE",
"431 282 OFFCURVE",
"497 546 CURVE",
"571 540 OFFCURVE",
"664 535 OFFCURVE",
"729 535 CURVE SMOOTH",
"768 535 OFFCURVE",
"796 536 OFFCURVE",
"803 541 CURVE SMOOTH",
"817 550 OFFCURVE",
"839 558 OFFCURVE",
"839 586 CURVE SMOOTH",
"839 615 OFFCURVE",
"824 626 OFFCURVE",
"789 627 CURVE SMOOTH",
"619 627 OFFCURVE",
"477 647 OFFCURVE",
"350 647 CURVE SMOOTH",
"320 647 OFFCURVE",
"291 646 OFFCURVE",
"263 643 CURVE SMOOTH",
"166 627 OFFCURVE",
"57 614 OFFCURVE",
"1 454 CURVE SMOOTH",
"-1 449 OFFCURVE",
"-1 445 OFFCURVE",
"-1 441 CURVE SMOOTH",
"-1 423 OFFCURVE",
"15 415 OFFCURVE",
"31 415 CURVE SMOOTH",
"47 415 OFFCURVE",
"64 422 OFFCURVE",
"69 432 CURVE SMOOTH",
"96 475 OFFCURVE",
"155 553 OFFCURVE",
"374 553 CURVE SMOOTH",
"389 553 OFFCURVE",
"405 553 OFFCURVE",
"421 552 CURVE",
"343 332 OFFCURVE",
"297 182 OFFCURVE",
"274 85 CURVE SMOOTH",
"264 46 OFFCURVE",
"254 7 OFFCURVE"
);
}
);
width = 489;
}
);
unicode = 0054;
userData = {
com.typemytype.robofont.layerData = {
};
};
},
{
glyphname = U;
lastChange = "2016-06-28 17:14:25 +0000";
layers = (
{
anchors = (
{
name = ogonek;
position = "{281, -69}";
},
{
name = top;
position = "{507, 708}";
}
);
layerId = "1677BB6F-42BC-4502-A615-23038A63E498";
paths = (
{
closed = 1;
nodes = (
"487 565 CURVE SMOOTH",
"487 593 OFFCURVE",
"501 617 OFFCURVE",
"531 617 CURVE SMOOTH",
"576 617 OFFCURVE",
"598 559 OFFCURVE",
"598 479 CURVE SMOOTH",
"598 471 OFFCURVE",
"598 463 OFFCURVE",
"597 455 CURVE",
"525 458 OFFCURVE",
"487 519 OFFCURVE"
);
},
{
closed = 1;
nodes = (
"692 479 CURVE",
"690 604 OFFCURVE",
"644 699 OFFCURVE",
"547 699 CURVE SMOOTH",
"455 699 OFFCURVE",
"413 636 OFFCURVE",
"413 568 CURVE SMOOTH",
"413 480 OFFCURVE",
"479 382 OFFCURVE",
"589 381 CURVE",
"559 213 OFFCURVE",
"457 18 OFFCURVE",
"289 18 CURVE SMOOTH",
"209 18 OFFCURVE",
"178 85 OFFCURVE",
"178 176 CURVE SMOOTH",
"178 293 OFFCURVE",
"229 450 OFFCURVE",
"293 556 CURVE SMOOTH",
"299 565 OFFCURVE",
"301 573 OFFCURVE",
"301 580 CURVE SMOOTH",
"301 598 OFFCURVE",
"284 607 OFFCURVE",
"263 607 CURVE SMOOTH",
"256 607 OFFCURVE",
"249 606 OFFCURVE",
"242 604 CURVE SMOOTH",
"237 604 OFFCURVE",
"232 602 OFFCURVE",
"226 598 CURVE SMOOTH",
"46 478 LINE SMOOTH",
"34 470 OFFCURVE",
"28 457 OFFCURVE",
"28 445 CURVE SMOOTH",
"28 429 OFFCURVE",
"37 416 OFFCURVE",
"53 416 CURVE SMOOTH",
"59 416 OFFCURVE",
"67 418 OFFCURVE",
"75 423 CURVE SMOOTH",
"150 474 LINE",
"106 377 OFFCURVE",
"76 265 OFFCURVE",
"76 167 CURVE SMOOTH",
"76 31 OFFCURVE",
"134 -75 OFFCURVE",
"289 -75 CURVE SMOOTH",
"521 -75 OFFCURVE",
"663 186 OFFCURVE",
"688 405 CURVE",
"721 420 OFFCURVE",
"756 443 OFFCURVE",
"793 476 CURVE SMOOTH",
"801 483 OFFCURVE",
"805 492 OFFCURVE",
"805 501 CURVE SMOOTH",
"805 517 OFFCURVE",
"794 532 OFFCURVE",
"779 532 CURVE SMOOTH",
"774 532 OFFCURVE",
"768 530 OFFCURVE",
"762 525 CURVE SMOOTH",
"737 505 OFFCURVE",
"714 490 OFFCURVE"
);
}
);
width = 632;
}
);
unicode = 0055;
userData = {
com.typemytype.robofont.layerData = {
};
};
},
{
glyphname = V;
lastChange = "2016-06-28 17:14:25 +0000";
layers = (
{
layerId = "1677BB6F-42BC-4502-A615-23038A63E498";
paths = (
{
closed = 1;
nodes = (
"522 634 CURVE SMOOTH",
"550 634 OFFCURVE",
"567 615 OFFCURVE",
"567 571 CURVE SMOOTH",
"567 548 OFFCURVE",
"562 519 OFFCURVE",
"552 483 CURVE",
"503 500 OFFCURVE",
"479 545 OFFCURVE",
"479 582 CURVE SMOOTH",
"479 611 OFFCURVE",
"494 634 OFFCURVE"
);
},
{
closed = 1;
nodes = (
"629 410 CURVE",
"676 421 OFFCURVE",
"729 447 OFFCURVE",
"788 492 CURVE SMOOTH",
"797 500 OFFCURVE",
"801 510 OFFCURVE",
"801 519 CURVE SMOOTH",
"801 534 OFFCURVE",
"791 548 OFFCURVE",
"775 548 CURVE SMOOTH",
"768 548 OFFCURVE",
"761 546 OFFCURVE",
"753 540 CURVE SMOOTH",
"714 513 OFFCURVE",
"680 495 OFFCURVE",
"650 486 CURVE",
"655 513 OFFCURVE",
"658 538 OFFCURVE",
"658 561 CURVE SMOOTH",
"658 657 OFFCURVE",
"612 709 OFFCURVE",
"537 709 CURVE SMOOTH",
"446 709 OFFCURVE",
"404 647 OFFCURVE",
"404 579 CURVE SMOOTH",
"404 510 OFFCURVE",
"448 434 OFFCURVE",
"528 411 CURVE",
"514 375 OFFCURVE",
"496 335 OFFCURVE",
"474 289 CURVE SMOOTH",
"423 191 OFFCURVE",
"312 40 OFFCURVE",
"247 27 CURVE SMOOTH",
"244 26 OFFCURVE",
"241 26 OFFCURVE",
"238 26 CURVE SMOOTH",
"212 26 OFFCURVE",
"191 60 OFFCURVE",
"191 143 CURVE SMOOTH",
"191 347 OFFCURVE",
"294 531 OFFCURVE",
"302 539 CURVE SMOOTH",
"303 541 OFFCURVE",
"304 543 OFFCURVE",
"304 545 CURVE SMOOTH",
"304 558 OFFCURVE",
"286 579 OFFCURVE",
"262 579 CURVE SMOOTH",
"251 579 OFFCURVE",
"239 575 OFFCURVE",
"227 564 CURVE SMOOTH",
"1 427 LINE SMOOTH",
"-11 419 OFFCURVE",
"-17 406 OFFCURVE",
"-17 394 CURVE SMOOTH",
"-17 378 OFFCURVE",
"-7 363 OFFCURVE",
"9 363 CURVE SMOOTH",
"15 363 OFFCURVE",
"22 365 OFFCURVE",
"30 370 CURVE SMOOTH",
"163 453 LINE",
"130 378 OFFCURVE",
"94 265 OFFCURVE",
"94 148 CURVE SMOOTH",
"94 20 OFFCURVE",
"141 -51 OFFCURVE",
"232 -51 CURVE SMOOTH",
"236 -51 LINE SMOOTH",
"358 -45 OFFCURVE",
"481 106 OFFCURVE",
"562 258 CURVE SMOOTH",
"592 313 OFFCURVE",
"614 364 OFFCURVE"
);
}
);
width = 562;
}
);
unicode = 0056;
},
{
glyphname = W;
lastChange = "2016-06-28 17:14:25 +0000";
layers = (
{
anchors = (
{
name = top;
position = "{657, 708}";
}
);
layerId = "1677BB6F-42BC-4502-A615-23038A63E498";
paths = (
{
closed = 1;
nodes = (
"129 428 LINE",
"101 354 OFFCURVE",
"74 255 OFFCURVE",
"74 152 CURVE SMOOTH",
"74 20 OFFCURVE",
"120 -58 OFFCURVE",
"217 -58 CURVE SMOOTH",
"221 -58 LINE SMOOTH",
"317 -55 OFFCURVE",
"410 43 OFFCURVE",
"482 170 CURVE",
"487 60 OFFCURVE",
"522 -58 OFFCURVE",
"606 -58 CURVE SMOOTH",
"734 -58 OFFCURVE",
"842 103 OFFCURVE",
"926 254 CURVE SMOOTH",
"957 312 OFFCURVE",
"980 365 OFFCURVE",
"996 414 CURVE",
"1044 422 OFFCURVE",
"1100 444 OFFCURVE",
"1161 484 CURVE SMOOTH",
"1174 493 OFFCURVE",
"1179 506 OFFCURVE",
"1179 518 CURVE SMOOTH",
"1179 537 OFFCURVE",
"1165 554 OFFCURVE",
"1144 554 CURVE SMOOTH",
"1135 554 OFFCURVE",
"1125 551 OFFCURVE",
"1114 543 CURVE SMOOTH",
"1077 518 OFFCURVE",
"1045 501 OFFCURVE",
"1017 492 CURVE",
"1022 521 OFFCURVE",
"1025 548 OFFCURVE",
"1025 572 CURVE SMOOTH",
"1025 668 OFFCURVE",
"948 678 OFFCURVE",
"916 722 CURVE",
"813 722 OFFCURVE",
"765 656 OFFCURVE",
"765 585 CURVE SMOOTH",
"765 516 OFFCURVE",
"809 443 OFFCURVE",
"892 418 CURVE",
"878 382 OFFCURVE",
"861 342 OFFCURVE",
"839 297 CURVE SMOOTH",
"789 202 OFFCURVE",
"690 49 OFFCURVE",
"619 38 CURVE SMOOTH",
"615 38 LINE SMOOTH",
"581 38 OFFCURVE",
"576 103 OFFCURVE",
"576 149 CURVE SMOOTH",
"576 171 OFFCURVE",
"577 189 OFFCURVE",
"577 192 CURVE SMOOTH",
"577 215 OFFCURVE",
"577 212 OFFCURVE",
"578 236 CURVE SMOOTH",
"594 380 OFFCURVE",
"614 380 OFFCURVE",
"631 435 CURVE SMOOTH",
"634 446 OFFCURVE",
"635 455 OFFCURVE",
"635 464 CURVE SMOOTH",
"635 497 OFFCURVE",
"616 515 OFFCURVE",
"597 515 CURVE SMOOTH",
"591 515 LINE SMOOTH",
"575 515 OFFCURVE",
"559 511 OFFCURVE",
"549 497 CURVE SMOOTH",
"532 473 OFFCURVE",
"517 436 OFFCURVE",
"506 393 CURVE",
"490 354 OFFCURVE",
"484 348 OFFCURVE",
"464 308 CURVE SMOOTH",
"382 127 OFFCURVE",
"285 44 OFFCURVE",
"231 38 CURVE SMOOTH",
"227 38 LINE SMOOTH",
"203 38 OFFCURVE",
"183 64 OFFCURVE",
"183 145 CURVE SMOOTH",
"183 344 OFFCURVE",
"286 523 OFFCURVE",
"295 532 CURVE SMOOTH",
"298 536 OFFCURVE",
"299 540 OFFCURVE",
"299 545 CURVE SMOOTH",
"299 565 OFFCURVE",
"278 590 OFFCURVE",
"249 590 CURVE SMOOTH",
"236 590 OFFCURVE",
"221 585 OFFCURVE",
"206 571 CURVE",
"-18 436 LINE SMOOTH",
"-34 427 OFFCURVE",
"-41 410 OFFCURVE",
"-41 394 CURVE SMOOTH",
"-41 372 OFFCURVE",
"-28 352 OFFCURVE",
"-6 352 CURVE SMOOTH",
"2 352 OFFCURVE",
"11 355 OFFCURVE",
"21 361 CURVE SMOOTH"
);
},
{
closed = 1;
nodes = (
"916 490 CURVE",
"879 506 OFFCURVE",
"863 545 OFFCURVE",
"863 581 CURVE SMOOTH",
"863 618 OFFCURVE",
"880 650 OFFCURVE",
"909 650 CURVE SMOOTH",
"924 650 OFFCURVE",
"935 633 OFFCURVE",
"935 596 CURVE SMOOTH",
"935 570 OFFCURVE",
"929 535 OFFCURVE"
);
}
);
width = 982;
}
);
unicode = 0057;
userData = {
com.typemytype.robofont.layerData = {
};
};
},
{
glyphname = X;
lastChange = "2016-06-28 17:14:25 +0000";
layers = (
{
layerId = "1677BB6F-42BC-4502-A615-23038A63E498";
paths = (
{
closed = 1;
nodes = (
"10 413 CURVE SMOOTH",
"69 469 OFFCURVE",
"102 491 OFFCURVE",
"123 491 CURVE SMOOTH",
"144 491 OFFCURVE",
"153 469 OFFCURVE",
"166 437 CURVE SMOOTH",
"259 211 LINE",
"236 182 OFFCURVE",
"214 155 OFFCURVE",
"193 130 CURVE SMOOTH",
"115 38 OFFCURVE",
"60 10 OFFCURVE",
"-21 10 CURVE SMOOTH",
"-45 10 OFFCURVE",
"-58 -16 OFFCURVE",
"-58 -42 CURVE SMOOTH",
"-58 -69 OFFCURVE",
"-44 -97 OFFCURVE",
"-13 -97 CURVE SMOOTH",
"59 -97 OFFCURVE",
"111 -89 OFFCURVE",
"224 58 CURVE SMOOTH",
"246 86 OFFCURVE",
"267 113 OFFCURVE",
"289 140 CURVE",
"343 9 LINE SMOOTH",
"374 -64 OFFCURVE",
"407 -95 OFFCURVE",
"445 -95 CURVE SMOOTH",
"480 -95 OFFCURVE",
"519 -68 OFFCURVE",
"564 -24 CURVE SMOOTH",
"674 83 LINE SMOOTH",
"679 89 OFFCURVE",
"681 95 OFFCURVE",
"681 101 CURVE SMOOTH",
"681 119 OFFCURVE",
"662 135 OFFCURVE",
"649 135 CURVE SMOOTH",
"646 135 OFFCURVE",
"643 134 OFFCURVE",
"641 132 CURVE SMOOTH",
"531 30 LINE SMOOTH",
"517 16 OFFCURVE",
"505 11 OFFCURVE",
"495 11 CURVE SMOOTH",
"471 11 OFFCURVE",
"458 44 OFFCURVE",
"445 77 CURVE SMOOTH",
"380 254 LINE",
"454 345 OFFCURVE",
"526 428 OFFCURVE",
"594 498 CURVE SMOOTH",
"625 529 OFFCURVE",
"636 555 OFFCURVE",
"636 574 CURVE SMOOTH",
"636 597 OFFCURVE",
"619 610 OFFCURVE",
"598 610 CURVE SMOOTH",
"581 610 OFFCURVE",
"561 602 OFFCURVE",
"546 584 CURVE SMOOTH",
"487 503 OFFCURVE",
"419 413 OFFCURVE",
"352 328 CURVE",
"295 484 LINE SMOOTH",
"273 542 OFFCURVE",
"231 578 OFFCURVE",
"174 578 CURVE SMOOTH",
"119 578 OFFCURVE",
"50 544 OFFCURVE",
"-26 466 CURVE SMOOTH",
"-35 457 OFFCURVE",
"-38 448 OFFCURVE",
"-38 439 CURVE SMOOTH",
"-38 421 OFFCURVE",
"-22 406 OFFCURVE",
"-6 406 CURVE SMOOTH",
"0 406 OFFCURVE",
"5 408 OFFCURVE"
);
}
);
width = 589;
}
);
unicode = 0058;
},
{
glyphname = Y;
lastChange = "2016-06-28 17:14:25 +0000";
layers = (
{
anchors = (
{
name = top;
position = "{457, 708}";
}
);
layerId = "1677BB6F-42BC-4502-A615-23038A63E498";
paths = (
{
closed = 1;
nodes = (
"522 158 CURVE",
"620 537 LINE SMOOTH",
"623 550 OFFCURVE",
"625 562 OFFCURVE",
"625 572 CURVE SMOOTH",
"625 596 OFFCURVE",
"614 609 OFFCURVE",
"577 609 CURVE SMOOTH",
"555 609 OFFCURVE",
"539 592 OFFCURVE",
"531 560 CURVE SMOOTH",
"442 210 LINE",
"387 141 OFFCURVE",
"317 95 OFFCURVE",
"263 95 CURVE SMOOTH",
"214 95 OFFCURVE",
"178 132 OFFCURVE",
"178 222 CURVE SMOOTH",
"178 300 OFFCURVE",
"205 419 OFFCURVE",
"275 589 CURVE SMOOTH",
"277 593 OFFCURVE",
"277 596 OFFCURVE",
"277 599 CURVE SMOOTH",
"277 616 OFFCURVE",
"254 620 OFFCURVE",
"239 620 CURVE SMOOTH",
"202 620 OFFCURVE",
"187 595 OFFCURVE",
"179 582 CURVE SMOOTH",
"104 450 OFFCURVE",
"72 332 OFFCURVE",
"72 240 CURVE SMOOTH",
"72 104 OFFCURVE",
"140 21 OFFCURVE",
"238 21 CURVE SMOOTH",
"292 21 OFFCURVE",
"355 46 OFFCURVE",
"420 102 CURVE",
"416 88 OFFCURVE",
"413 74 OFFCURVE",
"409 60 CURVE",
"283 -55 OFFCURVE",
"168 -187 OFFCURVE",
"168 -274 CURVE SMOOTH",
"168 -312 OFFCURVE",
"194 -345 OFFCURVE",
"240 -345 CURVE SMOOTH",
"365 -345 OFFCURVE",
"422 -213 OFFCURVE",
"493 49 CURVE",
"566 115 OFFCURVE",
"646 179 OFFCURVE",
"716 228 CURVE SMOOTH",
"722 232 OFFCURVE",
"725 240 OFFCURVE",
"725 248 CURVE SMOOTH",
"725 265 OFFCURVE",
"713 285 OFFCURVE",
"697 285 CURVE SMOOTH",
"693 285 OFFCURVE",
"688 283 OFFCURVE",
"683 280 CURVE SMOOTH",
"645 254 OFFCURVE",
"586 211 OFFCURVE"
);
},
{
closed = 1;
nodes = (
"366 -74 CURVE",
"321 -198 OFFCURVE",
"276 -265 OFFCURVE",
"262 -265 CURVE SMOOTH",
"254 -265 OFFCURVE",
"250 -259 OFFCURVE",
"250 -241 CURVE SMOOTH",
"250 -209 OFFCURVE",
"297 -146 OFFCURVE"
);
}
);
width = 589;
}
);
unicode = 0059;
userData = {
com.typemytype.robofont.layerData = {
};
};
},
{
glyphname = Z;
lastChange = "2016-06-28 17:14:25 +0000";
layers = (
{
anchors = (
{
name = top;
position = "{497, 679}";
}
);
layerId = "1677BB6F-42BC-4502-A615-23038A63E498";
paths = (
{
closed = 1;
nodes = (
"780 32 CURVE SMOOTH",
"780 57 OFFCURVE",
"764 72 OFFCURVE",
"746 72 CURVE SMOOTH",
"734 72 OFFCURVE",
"721 67 OFFCURVE",
"711 61 CURVE SMOOTH",
"657 20 OFFCURVE",
"613 5 OFFCURVE",
"573 5 CURVE SMOOTH",
"489 5 OFFCURVE",
"425 75 OFFCURVE",
"316 129 CURVE",
"367 184 OFFCURVE",
"555 418 OFFCURVE",
"695 523 CURVE",
"729 524 OFFCURVE",
"759 528 OFFCURVE",
"771 531 CURVE SMOOTH",
"792 536 OFFCURVE",
"810 548 OFFCURVE",
"810 576 CURVE SMOOTH",
"810 620 OFFCURVE",
"774 623 OFFCURVE",
"737 627 CURVE SMOOTH",
"604 631 OFFCURVE",
"470 647 OFFCURVE",
"334 647 CURVE SMOOTH",
"211 647 OFFCURVE",
"95 628 OFFCURVE",
"41 454 CURVE SMOOTH",
"40 449 OFFCURVE",
"39 445 OFFCURVE",
"39 441 CURVE SMOOTH",
"39 422 OFFCURVE",
"53 415 OFFCURVE",
"69 415 CURVE SMOOTH",
"84 415 OFFCURVE",
"101 422 OFFCURVE",
"106 432 CURVE SMOOTH",
"132 477 OFFCURVE",
"191 525 OFFCURVE",
"418 525 CURVE SMOOTH",
"465 525 OFFCURVE",
"528 522 OFFCURVE",
"573 522 CURVE",
"561 514 LINE SMOOTH",
"404 410 OFFCURVE",
"214 186 OFFCURVE",
"178 151 CURVE SMOOTH",
"120 94 OFFCURVE",
"80 51 OFFCURVE",
"80 23 CURVE SMOOTH",
"80 0 OFFCURVE",
"108 -14 OFFCURVE",
"128 -14 CURVE SMOOTH",
"135 -14 OFFCURVE",
"141 -13 OFFCURVE",
"147 -9 CURVE SMOOTH",
"166 4 OFFCURVE",
"216 41 OFFCURVE",
"249 63 CURVE",
"352 13 OFFCURVE",
"454 -75 OFFCURVE",
"578 -75 CURVE SMOOTH",
"629 -75 OFFCURVE",
"685 -60 OFFCURVE",
"745 -21 CURVE SMOOTH",
"749 -18 OFFCURVE",
"780 2 OFFCURVE"
);
}
);
width = 631;
}
);
unicode = 005A;
userData = {
com.typemytype.robofont.layerData = {
};
};
},
{
glyphname = a;
lastChange = "2016-06-28 17:14:25 +0000";
layers = (
{
anchors = (
{
name = ogonek;
position = "{301, 1}";
},
{
name = top;
position = "{257, 343}";
}
);
layerId = "1677BB6F-42BC-4502-A615-23038A63E498";
paths = (
{
closed = 1;
nodes = (
"149 79 CURVE SMOOTH",
"121 79 OFFCURVE",
"109 98 OFFCURVE",
"109 125 CURVE SMOOTH",
"109 182 OFFCURVE",
"165 272 OFFCURVE",
"249 276 CURVE",
"226 168 LINE SMOOTH",
"212 101 OFFCURVE",
"177 79 OFFCURVE"
);
},
{
closed = 1;
nodes = (
"23 114 CURVE SMOOTH",
"23 47 OFFCURVE",
"60 -5 OFFCURVE",
"129 -5 CURVE SMOOTH",
"165 -5 OFFCURVE",
"196 15 OFFCURVE",
"217 44 CURVE SMOOTH",
"230 62 LINE",
"233 30 OFFCURVE",
"260 1 OFFCURVE",
"301 1 CURVE SMOOTH",
"360 1 OFFCURVE",
"415 54 OFFCURVE",
"441 88 CURVE SMOOTH",
"443 93 OFFCURVE",
"443 99 OFFCURVE",
"444 102 CURVE SMOOTH",
"444 127 OFFCURVE",
"434 158 OFFCURVE",
"414 158 CURVE SMOOTH",
"407 158 OFFCURVE",
"401 153 OFFCURVE",
"395 147 CURVE SMOOTH",
"367 109 OFFCURVE",
"331 84 OFFCURVE",
"311 84 CURVE SMOOTH",
"302 84 OFFCURVE",
"296 89 OFFCURVE",
"296 102 CURVE SMOOTH",
"296 105 OFFCURVE",
"296 108 OFFCURVE",
"297 111 CURVE SMOOTH",
"325 272 LINE SMOOTH",
"326 275 OFFCURVE",
"326 279 OFFCURVE",
"326 282 CURVE SMOOTH",
"326 301 OFFCURVE",
"314 310 OFFCURVE",
"297 310 CURVE SMOOTH",
"291 310 LINE SMOOTH",
"264 307 LINE SMOOTH",
"264 310 OFFCURVE",
"265 312 OFFCURVE",
"265 315 CURVE SMOOTH",
"265 326 OFFCURVE",
"259 337 OFFCURVE",
"224 337 CURVE SMOOTH",
"140 337 OFFCURVE",
"23 250 OFFCURVE"
);
}
);
width = 360;
}
);
unicode = 0061;
userData = {
com.typemytype.robofont.layerData = {
};
};
},
{
glyphname = ae;
lastChange = "2016-06-28 17:14:25 +0000";
layers = (
{
anchors = (
{
name = ogonek;
position = "{363, 0}";
},
{
name = top;
position = "{354, 343}";
}
);
layerId = "1677BB6F-42BC-4502-A615-23038A63E498";
paths = (
{
closed = 1;
nodes = (
"420 223 CURVE SMOOTH",
"414 194 OFFCURVE",
"342 168 OFFCURVE",
"312 168 CURVE SMOOTH",
"308 168 LINE",
"318 205 OFFCURVE",
"356 251 OFFCURVE",
"397 251 CURVE SMOOTH",
"411 251 OFFCURVE",
"421 247 OFFCURVE",
"421 230 CURVE SMOOTH",
"421 228 OFFCURVE",
"420 226 OFFCURVE"
);
},
{
closed = 1;
nodes = (
"144 81 CURVE SMOOTH",
"119 81 OFFCURVE",
"107 95 OFFCURVE",
"107 118 CURVE SMOOTH",
"107 171 OFFCURVE",
"173 261 OFFCURVE",
"271 261 CURVE",
"244 240 OFFCURVE",
"225 190 OFFCURVE",
"217 141 CURVE SMOOTH",
"214 123 OFFCURVE",
"186 81 OFFCURVE"
);
},
{
closed = 1;
nodes = (
"223 73 CURVE",
"244 18 OFFCURVE",
"306 -6 OFFCURVE",
"358 -6 CURVE SMOOTH",
"440 -6 OFFCURVE",
"523 42 OFFCURVE",
"555 86 CURVE SMOOTH",
"561 94 OFFCURVE",
"564 102 OFFCURVE",
"564 109 CURVE SMOOTH",
"564 126 OFFCURVE",
"548 138 OFFCURVE",
"533 138 CURVE SMOOTH",
"527 138 OFFCURVE",
"521 136 OFFCURVE",
"516 132 CURVE SMOOTH",
"478 94 OFFCURVE",
"415 74 OFFCURVE",
"372 74 CURVE SMOOTH",
"369 74 LINE SMOOTH",
"338 74 OFFCURVE",
"309 88 OFFCURVE",
"302 120 CURVE",
"318 120 LINE SMOOTH",
"437 120 OFFCURVE",
"490 163 OFFCURVE",
"490 239 CURVE SMOOTH",
"490 296 OFFCURVE",
"448 329 OFFCURVE",
"393 329 CURVE SMOOTH",
"371 329 OFFCURVE",
"350 324 OFFCURVE",
"332 315 CURVE",
"331 323 OFFCURVE",
"327 337 OFFCURVE",
"296 337 CURVE SMOOTH",
"166 337 OFFCURVE",
"5 271 OFFCURVE",
"5 103 CURVE SMOOTH",
"5 62 OFFCURVE",
"25 2 OFFCURVE",
"93 -4 CURVE SMOOTH",
"98 -4 OFFCURVE",
"103 -5 OFFCURVE",
"109 -5 CURVE SMOOTH",
"142 -5 OFFCURVE",
"187 6 OFFCURVE"
);
}
);
width = 491;
}
);
unicode = 00E6;
},
{
glyphname = b;
lastChange = "2016-06-28 17:14:25 +0000";
layers = (
{
anchors = (
{
name = top;
position = "{437, 343}";
}
);
layerId = "1677BB6F-42BC-4502-A615-23038A63E498";
paths = (
{
closed = 1;
nodes = (
"134 260 CURVE",
"128 285 OFFCURVE",
"195 558 OFFCURVE",
"261 558 CURVE SMOOTH",
"268 558 OFFCURVE",
"273 554 OFFCURVE",
"273 538 CURVE SMOOTH",
"273 534 OFFCURVE",
"273 529 OFFCURVE",
"272 524 CURVE SMOOTH",
"259 452 OFFCURVE",
"221 376 OFFCURVE"
);
},
{
closed = 1;
nodes = (
"365 251 CURVE SMOOTH",
"365 295 OFFCURVE",
"332 319 OFFCURVE",
"306 319 CURVE SMOOTH",
"270 319 OFFCURVE",
"236 302 OFFCURVE",
"221 292 CURVE",
"288 354 OFFCURVE",
"349 494 OFFCURVE",
"360 557 CURVE SMOOTH",
"361 565 OFFCURVE",
"362 573 OFFCURVE",
"362 581 CURVE SMOOTH",
"362 617 OFFCURVE",
"347 656 OFFCURVE",
"295 656 CURVE SMOOTH",
"145 656 OFFCURVE",
"40 354 OFFCURVE",
"34 147 CURVE SMOOTH",
"34 141 LINE SMOOTH",
"34 50 OFFCURVE",
"98 -5 OFFCURVE",
"192 -5 CURVE SMOOTH",
"265 -5 OFFCURVE",
"320 42 OFFCURVE",
"347 123 CURVE",
"393 127 OFFCURVE",
"441 143 OFFCURVE",
"464 164 CURVE SMOOTH",
"476 175 OFFCURVE",
"478 183 OFFCURVE",
"478 196 CURVE SMOOTH",
"478 213 OFFCURVE",
"469 227 OFFCURVE",
"450 227 CURVE SMOOTH",
"435 227 OFFCURVE",
"404 193 OFFCURVE",
"361 184 CURVE",
"364 205 OFFCURVE",
"365 227 OFFCURVE"
);
},
{
closed = 1;
nodes = (
"259 132 CURVE",
"248 98 OFFCURVE",
"228 73 OFFCURVE",
"198 73 CURVE SMOOTH",
"156 73 OFFCURVE",
"147 115 OFFCURVE",
"147 145 CURVE SMOOTH",
"147 200 OFFCURVE",
"187 252 OFFCURVE",
"237 252 CURVE SMOOTH",
"267 252 OFFCURVE",
"273 246 OFFCURVE",
"273 235 CURVE SMOOTH",
"273 232 OFFCURVE",
"273 228 OFFCURVE",
"272 224 CURVE SMOOTH",
"252 216 OFFCURVE",
"234 196 OFFCURVE",
"234 179 CURVE SMOOTH",
"234 154 OFFCURVE",
"243 140 OFFCURVE"
);
}
);
width = 390;
}
);
unicode = 0062;
userData = {
com.typemytype.robofont.layerData = {
};
};
},
{
glyphname = c;
lastChange = "2016-06-28 17:14:25 +0000";
layers = (
{
anchors = (
{
name = bot;
position = "{130, 0}";
},
{
name = top;
position = "{227, 343}";
}
);
layerId = "1677BB6F-42BC-4502-A615-23038A63E498";
paths = (
{
closed = 1;
nodes = (
"196 196 CURVE SMOOTH",
"196 178 OFFCURVE",
"211 161 OFFCURVE",
"224 161 CURVE SMOOTH",
"259 161 OFFCURVE",
"290 198 OFFCURVE",
"290 248 CURVE SMOOTH",
"290 288 OFFCURVE",
"254 330 OFFCURVE",
"190 330 CURVE SMOOTH",
"80 330 OFFCURVE",
"19 223 OFFCURVE",
"19 138 CURVE SMOOTH",
"19 131 OFFCURVE",
"19 125 OFFCURVE",
"20 118 CURVE SMOOTH",
"29 14 OFFCURVE",
"104 -6 OFFCURVE",
"156 -6 CURVE SMOOTH",
"251 -6 OFFCURVE",
"316 59 OFFCURVE",
"351 105 CURVE SMOOTH",
"354 110 OFFCURVE",
"356 115 OFFCURVE",
"356 121 CURVE SMOOTH",
"356 137 OFFCURVE",
"345 152 OFFCURVE",
"332 152 CURVE SMOOTH",
"328 152 OFFCURVE",
"323 150 OFFCURVE",
"319 146 CURVE SMOOTH",
"278 112 OFFCURVE",
"239 60 OFFCURVE",
"173 60 CURVE SMOOTH",
"134 60 OFFCURVE",
"104 86 OFFCURVE",
"104 131 CURVE SMOOTH",
"104 222 OFFCURVE",
"147 255 OFFCURVE",
"186 255 CURVE SMOOTH",
"200 255 OFFCURVE",
"209 249 OFFCURVE",
"209 238 CURVE SMOOTH",
"209 222 OFFCURVE",
"196 210 OFFCURVE"
);
}
);
width = 270;
}
);
unicode = 0063;
userData = {
com.typemytype.robofont.layerData = {
};
};
},
{
glyphname = d;
lastChange = "2016-06-28 17:14:25 +0000";
layers = (
{
anchors = (
{
name = caron.alt;
position = "{521, 555}";
},
{
name = mid;
position = "{283, 474}";
},
{
name = top;
position = "{103, 343}";
}
);
layerId = "1677BB6F-42BC-4502-A615-23038A63E498";
paths = (
{
closed = 1;
nodes = (
"298 263 CURVE",
"315 399 OFFCURVE",
"341 561 OFFCURVE",
"401 561 CURVE SMOOTH",
"412 561 OFFCURVE",
"418 553 OFFCURVE",
"418 540 CURVE SMOOTH",
"418 484 OFFCURVE",
"350 354 OFFCURVE"
);
},
{
closed = 1;
nodes = (
"157 77 CURVE SMOOTH",
"125 77 OFFCURVE",
"111 104 OFFCURVE",
"111 142 CURVE SMOOTH",
"111 197 OFFCURVE",
"145 263 OFFCURVE",
"222 270 CURVE",
"214 194 LINE SMOOTH",
"204 99 OFFCURVE",
"183 77 OFFCURVE"
);
},
{
closed = 1;
nodes = (
"20 121 CURVE SMOOTH",
"20 42 OFFCURVE",
"77 -5 OFFCURVE",
"141 -5 CURVE SMOOTH",
"180 -5 OFFCURVE",
"212 15 OFFCURVE",
"230 62 CURVE",
"248 20 OFFCURVE",
"298 -3 OFFCURVE",
"337 -3 CURVE SMOOTH",
"413 -3 OFFCURVE",
"463 45 OFFCURVE",
"495 87 CURVE SMOOTH",
"498 91 OFFCURVE",
"504 102 OFFCURVE",
"504 113 CURVE SMOOTH",
"504 137 OFFCURVE",
"482 149 OFFCURVE",
"467 150 CURVE SMOOTH",
"459 150 OFFCURVE",
"452 150 OFFCURVE",
"449 147 CURVE SMOOTH",
"437 133 OFFCURVE",
"388 71 OFFCURVE",
"345 71 CURVE SMOOTH",
"323 71 OFFCURVE",
"296 87 OFFCURVE",
"296 147 CURVE SMOOTH",
"296 160 LINE SMOOTH",
"365 265 OFFCURVE",
"502 424 OFFCURVE",
"502 551 CURVE SMOOTH",
"502 609 OFFCURVE",
"473 657 OFFCURVE",
"414 657 CURVE SMOOTH",
"308 657 OFFCURVE",
"257 547 OFFCURVE",
"229 329 CURVE",
"218 332 OFFCURVE",
"208 333 OFFCURVE",
"197 333 CURVE SMOOTH",
"102 333 OFFCURVE",
"20 228 OFFCURVE"
);
}
);
width = 368;
}
);
unicode = 0064;
userData = {
com.typemytype.robofont.layerData = {
};
};
},
{
glyphname = eth;
lastChange = "2016-06-28 17:14:25 +0000";
layers = (
{
layerId = "1677BB6F-42BC-4502-A615-23038A63E498";
paths = (
{
closed = 1;
nodes = (
"187 78 LINE SMOOTH",
"143 83 OFFCURVE",
"114 101 OFFCURVE",
"114 143 CURVE SMOOTH",
"114 187 OFFCURVE",
"167 241 OFFCURVE",
"226 241 CURVE SMOOTH",
"228 241 LINE SMOOTH",
"255 241 OFFCURVE",
"268 237 OFFCURVE",
"283 233 CURVE",
"262 190 OFFCURVE",
"241 78 OFFCURVE",
"191 78 CURVE SMOOTH"
);
},
{
closed = 1;
nodes = (
"22 142 CURVE SMOOTH",
"22 51 OFFCURVE",
"89 0 OFFCURVE",
"181 0 CURVE SMOOTH",
"319 0 OFFCURVE",
"399 169 OFFCURVE",
"402 328 CURVE SMOOTH",
"402 368 OFFCURVE",
"394 408 OFFCURVE",
"383 442 CURVE",
"408 452 LINE SMOOTH",
"428 461 OFFCURVE",
"444 472 OFFCURVE",
"444 494 CURVE SMOOTH",
"444 518 OFFCURVE",
"431 538 OFFCURVE",
"411 538 CURVE SMOOTH",
"401 538 OFFCURVE",
"394 534 OFFCURVE",
"388 532 CURVE SMOOTH",
"346 515 LINE",
"319 554 OFFCURVE",
"278 605 OFFCURVE",
"181 605 CURVE SMOOTH",
"152 605 OFFCURVE",
"118 594 OFFCURVE",
"118 557 CURVE SMOOTH",
"118 536 OFFCURVE",
"128 509 OFFCURVE",
"148 509 CURVE SMOOTH",
"208 509 OFFCURVE",
"233 492 OFFCURVE",
"250 474 CURVE",
"207 457 LINE SMOOTH",
"192 449 OFFCURVE",
"180 442 OFFCURVE",
"180 423 CURVE SMOOTH",
"180 400 OFFCURVE",
"197 377 OFFCURVE",
"220 377 CURVE SMOOTH",
"227 377 OFFCURVE",
"233 378 OFFCURVE",
"239 381 CURVE SMOOTH",
"273 395 OFFCURVE",
"254 388 OFFCURVE",
"288 402 CURVE",
"292 378 OFFCURVE",
"293 355 OFFCURVE",
"293 339 CURVE",
"270 338 OFFCURVE",
"249 339 OFFCURVE",
"220 338 CURVE SMOOTH",
"135 337 OFFCURVE",
"22 248 OFFCURVE"
);
}
);
width = 383;
}
);
unicode = 00F0;
},
{
glyphname = e;
lastChange = "2016-06-28 17:14:25 +0000";
layers = (
{
anchors = (
{
name = bot;
position = "{163, 0}";
},
{
name = ogonek;
position = "{241, 20}";
},
{
name = top;
position = "{217, 343}";
}
);
layerId = "1677BB6F-42BC-4502-A615-23038A63E498";
paths = (
{
closed = 1;
nodes = (
"109 146 CURVE",
"109 202 OFFCURVE",
"155 251 OFFCURVE",
"197 251 CURVE SMOOTH",
"210 251 OFFCURVE",
"220 247 OFFCURVE",
"220 232 CURVE SMOOTH",
"220 197 OFFCURVE",
"150 156 OFFCURVE"
);
},
{
closed = 1;
nodes = (
"20 127 CURVE SMOOTH",
"20 26 OFFCURVE",
"95 -6 OFFCURVE",
"165 -6 CURVE SMOOTH",
"247 -6 OFFCURVE",
"323 42 OFFCURVE",
"354 86 CURVE SMOOTH",
"360 94 OFFCURVE",
"363 102 OFFCURVE",
"363 109 CURVE SMOOTH",
"363 126 OFFCURVE",
"347 139 OFFCURVE",
"333 139 CURVE SMOOTH",
"327 139 OFFCURVE",
"322 137 OFFCURVE",
"317 132 CURVE SMOOTH",
"277 95 OFFCURVE",
"219 73 OFFCURVE",
"175 73 CURVE SMOOTH",
"148 73 OFFCURVE",
"126 81 OFFCURVE",
"116 99 CURVE",
"236 119 OFFCURVE",
"295 169 OFFCURVE",
"295 236 CURVE SMOOTH",
"295 294 OFFCURVE",
"259 329 OFFCURVE",
"202 329 CURVE SMOOTH",
"97 329 OFFCURVE",
"20 213 OFFCURVE"
);
}
);
width = 293;
}
);
unicode = 0065;
userData = {
com.typemytype.robofont.layerData = {
};
};
},
{
glyphname = f;
lastChange = "2016-06-28 17:14:25 +0000";
layers = (
{
anchors = (
{
name = top;
position = "{289, 620}";
}
);
layerId = "1677BB6F-42BC-4502-A615-23038A63E498";
paths = (
{
closed = 1;
nodes = (
"135 241 CURVE",
"139 243 OFFCURVE",
"181 525 OFFCURVE",
"253 525 CURVE SMOOTH",
"261 525 OFFCURVE",
"263 513 OFFCURVE",
"263 494 CURVE SMOOTH",
"263 403 OFFCURVE",
"145 253 OFFCURVE"
);
},
{
closed = 1;
nodes = (
"112 -185 CURVE SMOOTH",
"102 -185 OFFCURVE",
"100 -126 OFFCURVE",
"100 -79 CURVE SMOOTH",
"100 -21 OFFCURVE",
"110 102 OFFCURVE",
"110 167 CURVE SMOOTH",
"110 175 LINE",
"139 125 OFFCURVE",
"156 -3 OFFCURVE",
"156 -91 CURVE SMOOTH",
"156 -97 OFFCURVE",
"157 -106 OFFCURVE",
"157 -117 CURVE SMOOTH",
"157 -144 OFFCURVE",
"152 -185 OFFCURVE"
);
},
{
closed = 1;
nodes = (
"99 -261 CURVE SMOOTH",
"190 -228 OFFCURVE",
"230 -130 OFFCURVE",
"230 -64 CURVE SMOOTH",
"230 -4 OFFCURVE",
"215 88 OFFCURVE",
"202 134 CURVE",
"266 150 OFFCURVE",
"352 141 OFFCURVE",
"352 211 CURVE SMOOTH",
"352 227 OFFCURVE",
"345 244 OFFCURVE",
"336 245 CURVE",
"337 245 OFFCURVE",
"339 246 OFFCURVE",
"342 249 CURVE",
"280 221 OFFCURVE",
"259 208 OFFCURVE",
"198 208 CURVE SMOOTH",
"187 208 OFFCURVE",
"184 205 OFFCURVE",
"177 204 CURVE",
"212 252 OFFCURVE",
"336 401 OFFCURVE",
"336 541 CURVE SMOOTH",
"336 590 OFFCURVE",
"310 620 OFFCURVE",
"264 620 CURVE SMOOTH",
"68 620 OFFCURVE",
"12 102 OFFCURVE",
"12 -90 CURVE SMOOTH",
"12 -165 OFFCURVE",
"18 -265 OFFCURVE",
"78 -265 CURVE SMOOTH",
"84 -265 OFFCURVE",
"91 -263 OFFCURVE"
);
}
);
width = 260;
}
);
unicode = 0066;
userData = {
com.typemytype.robofont.layerData = {
};
};
},
{
glyphname = g;
lastChange = "2016-06-28 17:14:25 +0000";
layers = (
{
anchors = (
{
name = top;
position = "{257, 343}";
}
);
layerId = "1677BB6F-42BC-4502-A615-23038A63E498";
paths = (
{
closed = 1;
nodes = (
"80 -255 CURVE SMOOTH",
"65 -255 OFFCURVE",
"61 -247 OFFCURVE",
"61 -237 CURVE SMOOTH",
"61 -183 OFFCURVE",
"111 -150 OFFCURVE",
"204 -79 CURVE",
"197 -123 OFFCURVE",
"148 -255 OFFCURVE"
);
},
{
closed = 1;
nodes = (
"150 72 CURVE SMOOTH",
"126 72 OFFCURVE",
"121 91 OFFCURVE",
"121 112 CURVE SMOOTH",
"121 160 OFFCURVE",
"183 247 OFFCURVE",
"260 253 CURVE",
"237 164 LINE SMOOTH",
"228 133 OFFCURVE",
"209 72 OFFCURVE"
);
},
{
closed = 1;
nodes = (
"25 97 CURVE SMOOTH",
"25 40 OFFCURVE",
"61 -5 OFFCURVE",
"129 -5 CURVE SMOOTH",
"168 -5 OFFCURVE",
"201 13 OFFCURVE",
"219 35 CURVE",
"212 -5 LINE",
"97 -73 OFFCURVE",
"-19 -158 OFFCURVE",
"-19 -248 CURVE SMOOTH",
"-19 -300 OFFCURVE",
"14 -328 OFFCURVE",
"66 -328 CURVE SMOOTH",
"194 -328 OFFCURVE",
"244 -188 OFFCURVE",
"278 -41 CURVE",
"347 4 OFFCURVE",
"396 20 OFFCURVE",
"445 47 CURVE SMOOTH",
"463 56 OFFCURVE",
"470 68 OFFCURVE",
"470 79 CURVE SMOOTH",
"470 97 OFFCURVE",
"451 114 OFFCURVE",
"431 114 CURVE SMOOTH",
"428 114 OFFCURVE",
"424 114 OFFCURVE",
"421 113 CURVE SMOOTH",
"420 113 LINE SMOOTH",
"400 113 OFFCURVE",
"335 76 OFFCURVE",
"292 39 CURVE",
"346 264 LINE SMOOTH",
"347 267 OFFCURVE",
"347 270 OFFCURVE",
"347 272 CURVE SMOOTH",
"347 292 OFFCURVE",
"330 309 OFFCURVE",
"304 309 CURVE SMOOTH",
"296 309 OFFCURVE",
"288 307 OFFCURVE",
"279 304 CURVE",
"279 304 OFFCURVE",
"277 327 OFFCURVE",
"248 328 CURVE SMOOTH",
"243 328 LINE SMOOTH",
"132 328 OFFCURVE",
"25 224 OFFCURVE"
);
}
);
width = 345;
}
);
unicode = 0067;
userData = {
com.typemytype.robofont.layerData = {
};
};
},
{
glyphname = h;
lastChange = "2016-06-28 17:14:25 +0000";
layers = (
{
anchors = (
{
name = mid;
position = "{152, 482}";
},
{
name = top;
position = "{345, 687}";
}
);
layerId = "1677BB6F-42BC-4502-A615-23038A63E498";
paths = (
{
closed = 1;
nodes = (
"287 592 CURVE SMOOTH",
"300 592 OFFCURVE",
"306 585 OFFCURVE",
"306 572 CURVE SMOOTH",
"306 532 OFFCURVE",
"247 439 OFFCURVE",
"163 354 CURVE",
"172 394 OFFCURVE",
"219 592 OFFCURVE"
);
},
{
closed = 1;
nodes = (
"39 72 CURVE SMOOTH",
"39 36 OFFCURVE",
"45 0 OFFCURVE",
"79 0 CURVE SMOOTH",
"109 0 OFFCURVE",
"112 16 OFFCURVE",
"120 43 CURVE SMOOTH",
"136 103 OFFCURVE",
"236 225 OFFCURVE",
"263 225 CURVE SMOOTH",
"267 225 OFFCURVE",
"268 223 OFFCURVE",
"268 219 CURVE SMOOTH",
"268 194 OFFCURVE",
"215 104 OFFCURVE",
"215 50 CURVE SMOOTH",
"215 10 OFFCURVE",
"243 -7 OFFCURVE",
"280 -7 CURVE SMOOTH",
"334 -7 OFFCURVE",
"404 23 OFFCURVE",
"451 65 CURVE SMOOTH",
"468 80 OFFCURVE",
"475 95 OFFCURVE",
"474 109 CURVE SMOOTH",
"474 116 LINE SMOOTH",
"474 143 OFFCURVE",
"466 157 OFFCURVE",
"452 157 CURVE SMOOTH",
"448 157 OFFCURVE",
"443 155 OFFCURVE",
"438 153 CURVE SMOOTH",
"431 150 OFFCURVE",
"334 77 OFFCURVE",
"315 77 CURVE SMOOTH",
"309 77 OFFCURVE",
"304 81 OFFCURVE",
"304 89 CURVE SMOOTH",
"304 110 OFFCURVE",
"357 197 OFFCURVE",
"383 281 CURVE SMOOTH",
"384 285 OFFCURVE",
"385 288 OFFCURVE",
"385 292 CURVE SMOOTH",
"385 318 OFFCURVE",
"357 332 OFFCURVE",
"323 332 CURVE SMOOTH",
"283 332 OFFCURVE",
"182 278 OFFCURVE",
"126 165 CURVE",
"154 284 LINE",
"333 420 OFFCURVE",
"385 516 OFFCURVE",
"397 596 CURVE SMOOTH",
"397 605 LINE SMOOTH",
"397 655 OFFCURVE",
"367 690 OFFCURVE",
"316 690 CURVE SMOOTH",
"139 690 OFFCURVE",
"57 314 OFFCURVE",
"42 119 CURVE SMOOTH",
"41 107 OFFCURVE",
"39 90 OFFCURVE"
);
}
);
width = 391;
}
);
unicode = 0068;
},
{
glyphname = i;
lastChange = "2016-06-28 17:14:25 +0000";
layers = (
{
anchors = (
{
name = ogonek;
position = "{0, 0}";
}
);
layerId = "1677BB6F-42BC-4502-A615-23038A63E498";
paths = (
{
closed = 1;
nodes = (
"150 438 CURVE SMOOTH",
"150 400 OFFCURVE",
"172 382 OFFCURVE",
"215 382 CURVE SMOOTH",
"252 382 OFFCURVE",
"279 404 OFFCURVE",
"279 442 CURVE SMOOTH",
"279 486 OFFCURVE",
"254 500 OFFCURVE",
"218 500 CURVE SMOOTH",
"182 500 OFFCURVE",
"150 476 OFFCURVE"
);
},
{
closed = 1;
nodes = (
"39 117 CURVE SMOOTH",
"39 43 OFFCURVE",
"79 -4 OFFCURVE",
"143 -4 CURVE SMOOTH",
"194 -4 OFFCURVE",
"256 25 OFFCURVE",
"306 85 CURVE SMOOTH",
"314 95 OFFCURVE",
"319 99 OFFCURVE",
"319 109 CURVE SMOOTH",
"319 136 OFFCURVE",
"300 149 OFFCURVE",
"281 149 CURVE SMOOTH",
"272 149 OFFCURVE",
"264 145 OFFCURVE",
"258 137 CURVE SMOOTH",
"218 91 OFFCURVE",
"186 71 OFFCURVE",
"164 71 CURVE SMOOTH",
"142 71 OFFCURVE",
"133 91 OFFCURVE",
"133 121 CURVE SMOOTH",
"133 176 OFFCURVE",
"158 238 OFFCURVE",
"181 282 CURVE SMOOTH",
"184 288 OFFCURVE",
"186 294 OFFCURVE",
"186 300 CURVE SMOOTH",
"186 318 OFFCURVE",
"168 331 OFFCURVE",
"141 331 CURVE SMOOTH",
"120 331 OFFCURVE",
"102 321 OFFCURVE",
"87 296 CURVE SMOOTH",
"60 251 OFFCURVE",
"39 174 OFFCURVE"
);
}
);
width = 205;
}
);
unicode = 0069;
userData = {
com.typemytype.robofont.layerData = {
};
};
},
{
glyphname = dotlessi;
lastChange = "2016-06-28 17:14:25 +0000";
layers = (
{
anchors = (
{
name = top;
position = "{173, 343}";
}
);
layerId = "1677BB6F-42BC-4502-A615-23038A63E498";
paths = (
{
closed = 1;
nodes = (
"34 101 CURVE SMOOTH",
"34 38 OFFCURVE",
"74 -4 OFFCURVE",
"139 -4 CURVE SMOOTH",
"189 -4 OFFCURVE",
"248 26 OFFCURVE",
"297 85 CURVE SMOOTH",
"305 95 OFFCURVE",
"310 99 OFFCURVE",
"310 109 CURVE SMOOTH",
"310 136 OFFCURVE",
"291 149 OFFCURVE",
"272 149 CURVE SMOOTH",
"263 149 OFFCURVE",
"256 145 OFFCURVE",
"249 137 CURVE SMOOTH",
"209 91 OFFCURVE",
"176 71 OFFCURVE",
"154 71 CURVE SMOOTH",
"135 71 OFFCURVE",
"124 85 OFFCURVE",
"124 111 CURVE SMOOTH",
"124 160 OFFCURVE",
"155 257 OFFCURVE",
"180 303 CURVE SMOOTH",
"182 307 OFFCURVE",
"183 311 OFFCURVE",
"183 315 CURVE SMOOTH",
"183 336 OFFCURVE",
"155 348 OFFCURVE",
"135 348 CURVE SMOOTH",
"116 348 OFFCURVE",
"102 338 OFFCURVE",
"89 314 CURVE SMOOTH",
"61 261 OFFCURVE",
"34 161 OFFCURVE"
);
}
);
width = 218;
}
);
unicode = 0131;
userData = {
com.typemytype.robofont.layerData = {
};
};
},
{
glyphname = j;
lastChange = "2016-06-28 17:14:25 +0000";
layers = (
{
layerId = "1677BB6F-42BC-4502-A615-23038A63E498";
paths = (
{
closed = 1;
nodes = (
"182 388 CURVE SMOOTH",
"219 388 OFFCURVE",
"243 411 OFFCURVE",
"243 447 CURVE SMOOTH",
"243 481 OFFCURVE",
"220 496 OFFCURVE",
"190 496 CURVE SMOOTH",
"154 496 OFFCURVE",
"125 475 OFFCURVE",
"125 438 CURVE SMOOTH",
"125 406 OFFCURVE",
"147 388 OFFCURVE"
);
},
{
closed = 1;
nodes = (
"138 9 CURVE SMOOTH",
"138 -50 OFFCURVE",
"134 -138 OFFCURVE",
"104 -138 CURVE SMOOTH",
"88 -138 OFFCURVE",
"85 -116 OFFCURVE",
"85 -89 CURVE SMOOTH",
"85 -26 OFFCURVE",
"109 82 OFFCURVE",
"131 152 CURVE",
"134 112 OFFCURVE",
"138 59 OFFCURVE"
);
},
{
closed = 1;
nodes = (
"-1 -84 CURVE SMOOTH",
"-1 -151 OFFCURVE",
"18 -209 OFFCURVE",
"98 -209 CURVE SMOOTH",
"188 -209 OFFCURVE",
"208 -107 OFFCURVE",
"208 6 CURVE SMOOTH",
"208 49 OFFCURVE",
"200 107 OFFCURVE",
"197 129 CURVE",
"205 129 LINE SMOOTH",
"258 129 OFFCURVE",
"343 148 OFFCURVE",
"343 215 CURVE SMOOTH",
"343 230 OFFCURVE",
"337 242 OFFCURVE",
"326 242 CURVE SMOOTH",
"323 242 OFFCURVE",
"320 241 OFFCURVE",
"316 239 CURVE SMOOTH",
"239 208 OFFCURVE",
"206 213 OFFCURVE",
"147 194 CURVE",
"164 233 LINE SMOOTH",
"172 250 OFFCURVE",
"186 278 OFFCURVE",
"186 302 CURVE SMOOTH",
"186 316 OFFCURVE",
"178 329 OFFCURVE",
"160 329 CURVE SMOOTH",
"101 329 OFFCURVE",
"87 314 OFFCURVE",
"71 277 CURVE SMOOTH",
"38 198 OFFCURVE",
"15 96 OFFCURVE",
"5 1 CURVE SMOOTH",
"2 -26 OFFCURVE",
"-1 -56 OFFCURVE"
);
}
);
width = 217;
}
);
unicode = 006A;
},
{
glyphname = dotlessj;
lastChange = "2016-06-28 17:14:25 +0000";
layers = (
{
anchors = (
{
name = top;
position = "{163, 343}";
}
);
layerId = "1677BB6F-42BC-4502-A615-23038A63E498";
paths = (
{
closed = 1;
nodes = (
"138 9 CURVE SMOOTH",
"138 -50 OFFCURVE",
"134 -138 OFFCURVE",
"104 -138 CURVE SMOOTH",
"88 -138 OFFCURVE",
"85 -116 OFFCURVE",
"85 -89 CURVE SMOOTH",
"85 -26 OFFCURVE",
"109 82 OFFCURVE",
"131 152 CURVE",
"134 112 OFFCURVE",
"138 59 OFFCURVE"
);
},
{
closed = 1;
nodes = (
"-1 -84 CURVE SMOOTH",
"-1 -151 OFFCURVE",
"18 -209 OFFCURVE",
"98 -209 CURVE SMOOTH",
"188 -209 OFFCURVE",
"208 -107 OFFCURVE",
"208 6 CURVE SMOOTH",
"208 49 OFFCURVE",
"200 107 OFFCURVE",
"197 129 CURVE",
"205 129 LINE SMOOTH",
"258 129 OFFCURVE",
"343 148 OFFCURVE",
"343 215 CURVE SMOOTH",
"343 230 OFFCURVE",
"337 242 OFFCURVE",
"326 242 CURVE SMOOTH",
"323 242 OFFCURVE",
"320 241 OFFCURVE",
"316 239 CURVE SMOOTH",
"239 208 OFFCURVE",
"206 213 OFFCURVE",
"147 194 CURVE",
"164 233 LINE SMOOTH",
"172 250 OFFCURVE",
"186 278 OFFCURVE",
"186 302 CURVE SMOOTH",
"186 316 OFFCURVE",
"178 329 OFFCURVE",
"160 329 CURVE SMOOTH",
"101 329 OFFCURVE",
"87 314 OFFCURVE",
"71 277 CURVE SMOOTH",
"38 198 OFFCURVE",
"15 96 OFFCURVE",
"5 1 CURVE SMOOTH",
"2 -26 OFFCURVE",
"-1 -56 OFFCURVE"
);
}
);
width = 217;
}
);
unicode = 0237;
},
{
glyphname = k;
lastChange = "2016-06-28 17:14:25 +0000";
layers = (
{
anchors = (
{
name = top;
position = "{331, 653}";
}
);
layerId = "1677BB6F-42BC-4502-A615-23038A63E498";
paths = (
{
closed = 1;
nodes = (
"161 318 CURVE",
"171 394 OFFCURVE",
"227 564 OFFCURVE",
"283 564 CURVE SMOOTH",
"292 564 OFFCURVE",
"295 561 OFFCURVE",
"295 550 CURVE SMOOTH",
"295 465 OFFCURVE",
"240 426 OFFCURVE"
);
},
{
closed = 1;
nodes = (
"249 79 CURVE SMOOTH",
"249 15 OFFCURVE",
"309 -9 OFFCURVE",
"340 -9 CURVE SMOOTH",
"412 -9 OFFCURVE",
"489 63 OFFCURVE",
"503 88 CURVE SMOOTH",
"507 93 OFFCURVE",
"508 99 OFFCURVE",
"508 105 CURVE SMOOTH",
"508 125 OFFCURVE",
"491 147 OFFCURVE",
"475 147 CURVE SMOOTH",
"468 147 OFFCURVE",
"460 143 OFFCURVE",
"455 132 CURVE SMOOTH",
"402 59 OFFCURVE",
"371 69 OFFCURVE",
"370 61 CURVE",
"359 59 OFFCURVE",
"350 58 OFFCURVE",
"343 58 CURVE SMOOTH",
"328 58 OFFCURVE",
"321 63 OFFCURVE",
"321 73 CURVE SMOOTH",
"321 75 OFFCURVE",
"321 78 OFFCURVE",
"322 81 CURVE SMOOTH",
"336 152 OFFCURVE",
"456 155 OFFCURVE",
"456 257 CURVE SMOOTH",
"456 293 OFFCURVE",
"433 318 OFFCURVE",
"392 318 CURVE SMOOTH",
"289 318 OFFCURVE",
"185 200 OFFCURVE",
"125 79 CURVE",
"125 86 OFFCURVE",
"138 188 OFFCURVE",
"143 206 CURVE",
"158 224 OFFCURVE",
"387 459 OFFCURVE",
"387 586 CURVE SMOOTH",
"387 633 OFFCURVE",
"362 663 OFFCURVE",
"310 663 CURVE SMOOTH",
"87 663 OFFCURVE",
"42 228 OFFCURVE",
"42 94 CURVE SMOOTH",
"42 78 OFFCURVE",
"43 66 OFFCURVE",
"44 60 CURVE SMOOTH",
"44 60 OFFCURVE",
"50 -5 OFFCURVE",
"87 -5 CURVE SMOOTH",
"196 -5 OFFCURVE",
"243 210 OFFCURVE",
"352 210 CURVE SMOOTH",
"358 210 OFFCURVE",
"353 207 OFFCURVE",
"353 206 CURVE SMOOTH",
"346 174 OFFCURVE",
"249 152 OFFCURVE"
);
}
);
width = 440;
}
);
unicode = 006B;
},
{
glyphname = kgreenlandic;
lastChange = "2016-06-28 17:14:25 +0000";
layers = (
{
layerId = "1677BB6F-42BC-4502-A615-23038A63E498";
paths = (
{
closed = 1;
nodes = (
"152 283 CURVE",
"165 352 OFFCURVE",
"184 396 OFFCURVE",
"208 396 CURVE SMOOTH",
"217 396 OFFCURVE",
"221 391 OFFCURVE",
"221 383 CURVE SMOOTH",
"221 361 OFFCURVE",
"192 317 OFFCURVE"
);
},
{
closed = 1;
nodes = (
"249 79 CURVE SMOOTH",
"249 15 OFFCURVE",
"309 -9 OFFCURVE",
"340 -9 CURVE SMOOTH",
"412 -9 OFFCURVE",
"489 63 OFFCURVE",
"503 88 CURVE SMOOTH",
"507 93 OFFCURVE",
"508 99 OFFCURVE",
"508 105 CURVE SMOOTH",
"508 125 OFFCURVE",
"491 147 OFFCURVE",
"475 147 CURVE SMOOTH",
"468 147 OFFCURVE",
"460 143 OFFCURVE",
"455 132 CURVE SMOOTH",
"402 59 OFFCURVE",
"371 69 OFFCURVE",
"370 61 CURVE",
"359 59 OFFCURVE",
"350 58 OFFCURVE",
"343 58 CURVE SMOOTH",
"328 58 OFFCURVE",
"321 63 OFFCURVE",
"321 73 CURVE SMOOTH",
"321 75 OFFCURVE",
"321 78 OFFCURVE",
"322 81 CURVE SMOOTH",
"336 152 OFFCURVE",
"456 155 OFFCURVE",
"456 257 CURVE SMOOTH",
"456 293 OFFCURVE",
"433 318 OFFCURVE",
"392 318 CURVE SMOOTH",
"289 318 OFFCURVE",
"185 200 OFFCURVE",
"125 79 CURVE",
"125 86 OFFCURVE",
"138 188 OFFCURVE",
"143 206 CURVE",
"246 276 OFFCURVE",
"285 346 OFFCURVE",
"285 396 CURVE SMOOTH",
"285 438 OFFCURVE",
"257 470 OFFCURVE",
"212 470 CURVE SMOOTH",
"105 470 OFFCURVE",
"43 244 OFFCURVE",
"43 91 CURVE SMOOTH",
"43 80 OFFCURVE",
"43 70 OFFCURVE",
"44 60 CURVE",
"44 60 OFFCURVE",
"50 -5 OFFCURVE",
"87 -5 CURVE SMOOTH",
"196 -5 OFFCURVE",
"243 210 OFFCURVE",
"352 210 CURVE SMOOTH",
"358 210 OFFCURVE",
"353 207 OFFCURVE",
"353 206 CURVE SMOOTH",
"346 174 OFFCURVE",
"249 152 OFFCURVE"
);
}
);
width = 440;
}
);
unicode = 0138;
},
{
glyphname = l;
lastChange = "2016-06-28 17:14:25 +0000";
layers = (
{
anchors = (
{
name = caron.alt;
position = "{436, 406}";
},
{
name = mid;
position = "{149, 404}";
},
{
name = top;
position = "{349, 623}";
}
);
layerId = "1677BB6F-42BC-4502-A615-23038A63E498";
paths = (
{
closed = 1;
nodes = (
"303 539 CURVE SMOOTH",
"302 486 OFFCURVE",
"228 341 OFFCURVE",
"160 260 CURVE",
"177 369 OFFCURVE",
"233 558 OFFCURVE",
"290 558 CURVE SMOOTH",
"299 558 OFFCURVE",
"303 551 OFFCURVE"
);
},
{
closed = 1;
nodes = (
"174 -5 CURVE SMOOTH",
"232 -5 OFFCURVE",
"282 18 OFFCURVE",
"338 82 CURVE SMOOTH",
"348 92 OFFCURVE",
"352 103 OFFCURVE",
"352 112 CURVE SMOOTH",
"352 132 OFFCURVE",
"333 148 OFFCURVE",
"315 148 CURVE SMOOTH",
"307 148 OFFCURVE",
"300 145 OFFCURVE",
"294 138 CURVE SMOOTH",
"260 99 OFFCURVE",
"225 72 OFFCURVE",
"189 72 CURVE SMOOTH",
"155 72 OFFCURVE",
"147 115 OFFCURVE",
"147 148 CURVE SMOOTH",
"147 157 OFFCURVE",
"148 166 OFFCURVE",
"149 172 CURVE",
"269 268 OFFCURVE",
"391 471 OFFCURVE",
"391 580 CURVE SMOOTH",
"391 626 OFFCURVE",
"371 655 OFFCURVE",
"320 655 CURVE SMOOTH",
"166 655 OFFCURVE",
"75 355 OFFCURVE",
"57 181 CURVE SMOOTH",
"56 172 OFFCURVE",
"56 163 OFFCURVE",
"56 155 CURVE SMOOTH",
"56 61 OFFCURVE",
"101 -5 OFFCURVE"
);
}
);
width = 247;
}
);
unicode = 006C;
},
{
glyphname = m;
lastChange = "2016-06-28 17:14:25 +0000";
layers = (
{
anchors = (
{
name = top;
position = "{336, 343}";
}
);
layerId = "1677BB6F-42BC-4502-A615-23038A63E498";
paths = (
{
closed = 1;
nodes = (
"400 239 CURVE",
"361 153 OFFCURVE",
"357 109 OFFCURVE",
"357 72 CURVE SMOOTH",
"357 34 OFFCURVE",
"376 -2 OFFCURVE",
"432 -2 CURVE SMOOTH",
"491 -2 OFFCURVE",
"561 41 OFFCURVE",
"604 100 CURVE SMOOTH",
"605 101 OFFCURVE",
"605 103 OFFCURVE",
"605 104 CURVE SMOOTH",
"605 116 OFFCURVE",
"584 137 OFFCURVE",
"568 137 CURVE SMOOTH",
"563 137 OFFCURVE",
"559 135 OFFCURVE",
"556 131 CURVE SMOOTH",
"523 91 OFFCURVE",
"497 69 OFFCURVE",
"474 62 CURVE SMOOTH",
"469 60 OFFCURVE",
"464 60 OFFCURVE",
"460 60 CURVE SMOOTH",
"440 60 OFFCURVE",
"434 77 OFFCURVE",
"434 100 CURVE SMOOTH",
"434 155 OFFCURVE",
"462 227 OFFCURVE",
"482 298 CURVE SMOOTH",
"483 300 OFFCURVE",
"483 302 OFFCURVE",
"483 304 CURVE SMOOTH",
"483 319 OFFCURVE",
"467 333 OFFCURVE",
"441 333 CURVE SMOOTH",
"406 333 OFFCURVE",
"347 304 OFFCURVE",
"279 152 CURVE",
"290 208 OFFCURVE",
"308 271 OFFCURVE",
"308 300 CURVE SMOOTH",
"308 323 OFFCURVE",
"282 335 OFFCURVE",
"265 335 CURVE SMOOTH",
"230 335 OFFCURVE",
"172 287 OFFCURVE",
"114 143 CURVE",
"114 186 OFFCURVE",
"136 274 OFFCURVE",
"143 297 CURVE SMOOTH",
"144 299 OFFCURVE",
"144 302 OFFCURVE",
"144 304 CURVE SMOOTH",
"144 320 OFFCURVE",
"129 330 OFFCURVE",
"113 330 CURVE SMOOTH",
"111 330 LINE SMOOTH",
"88 330 OFFCURVE",
"76 310 OFFCURVE",
"73 303 CURVE SMOOTH",
"50 237 OFFCURVE",
"35 156 OFFCURVE",
"35 103 CURVE SMOOTH",
"35 93 OFFCURVE",
"36 85 OFFCURVE",
"37 77 CURVE SMOOTH",
"38 34 OFFCURVE",
"47 0 OFFCURVE",
"87 0 CURVE SMOOTH",
"106 0 OFFCURVE",
"122 8 OFFCURVE",
"145 55 CURVE SMOOTH",
"182 132 OFFCURVE",
"193 165 OFFCURVE",
"243 233 CURVE",
"212 136 OFFCURVE",
"207 88 OFFCURVE",
"206 71 CURVE SMOOTH",
"206 65 OFFCURVE",
"205 59 OFFCURVE",
"205 53 CURVE SMOOTH",
"205 24 OFFCURVE",
"216 2 OFFCURVE",
"253 2 CURVE SMOOTH",
"268 2 OFFCURVE",
"280 11 OFFCURVE",
"290 29 CURVE SMOOTH",
"325 102 OFFCURVE",
"353 177 OFFCURVE"
);
}
);
width = 489;
}
);
unicode = 006D;
userData = {
com.typemytype.robofont.layerData = {
};
};
},
{
glyphname = n;
lastChange = "2016-06-28 17:14:25 +0000";
layers = (
{
anchors = (
{
name = top;
position = "{257, 343}";
}
);
layerId = "1677BB6F-42BC-4502-A615-23038A63E498";
paths = (
{
closed = 1;
nodes = (
"204 57 CURVE SMOOTH",
"204 15 OFFCURVE",
"229 -2 OFFCURVE",
"268 -2 CURVE SMOOTH",
"321 -2 OFFCURVE",
"384 35 OFFCURVE",
"426 70 CURVE SMOOTH",
"433 76 OFFCURVE",
"436 86 OFFCURVE",
"436 96 CURVE SMOOTH",
"436 115 OFFCURVE",
"425 136 OFFCURVE",
"409 136 CURVE SMOOTH",
"404 136 OFFCURVE",
"399 134 OFFCURVE",
"393 129 CURVE SMOOTH",
"358 99 OFFCURVE",
"329 82 OFFCURVE",
"314 82 CURVE SMOOTH",
"305 82 OFFCURVE",
"300 88 OFFCURVE",
"301 103 CURVE SMOOTH",
"308 169 OFFCURVE",
"355 237 OFFCURVE",
"355 290 CURVE SMOOTH",
"355 322 OFFCURVE",
"334 334 OFFCURVE",
"309 334 CURVE SMOOTH",
"306 334 OFFCURVE",
"302 333 OFFCURVE",
"299 333 CURVE SMOOTH",
"245 328 OFFCURVE",
"175 274 OFFCURVE",
"113 166 CURVE",
"124 216 OFFCURVE",
"141 266 OFFCURVE",
"150 289 CURVE SMOOTH",
"152 294 OFFCURVE",
"153 298 OFFCURVE",
"153 302 CURVE SMOOTH",
"153 321 OFFCURVE",
"137 332 OFFCURVE",
"115 332 CURVE SMOOTH",
"89 332 OFFCURVE",
"77 315 OFFCURVE",
"68 292 CURVE SMOOTH",
"43 230 OFFCURVE",
"25 152 OFFCURVE",
"24 82 CURVE SMOOTH",
"24 46 OFFCURVE",
"29 -2 OFFCURVE",
"68 -2 CURVE SMOOTH",
"93 -2 OFFCURVE",
"103 8 OFFCURVE",
"115 41 CURVE SMOOTH",
"153 148 OFFCURVE",
"206 206 OFFCURVE",
"235 216 CURVE SMOOTH",
"237 216 LINE SMOOTH",
"239 216 OFFCURVE",
"241 215 OFFCURVE",
"241 211 CURVE SMOOTH",
"241 190 OFFCURVE",
"204 114 OFFCURVE"
);
}
);
width = 338;
}
);
unicode = 006E;
userData = {
com.typemytype.robofont.layerData = {
};
};
},
{
glyphname = eng;
lastChange = "2016-06-28 17:14:25 +0000";
layers = (
{
layerId = "1677BB6F-42BC-4502-A615-23038A63E498";
paths = (
{
closed = 1;
nodes = (
"169 -28 CURVE",
"148 -54 OFFCURVE",
"81 -120 OFFCURVE",
"58 -120 CURVE SMOOTH",
"57 -120 OFFCURVE",
"57 -120 OFFCURVE",
"56 -120 CURVE",
"57 -121 OFFCURVE",
"56 -123 OFFCURVE",
"55 -124 CURVE SMOOTH",
"55 -124 OFFCURVE",
"54 -124 OFFCURVE",
"54 -123 CURVE SMOOTH",
"54 -122 OFFCURVE",
"54 -121 OFFCURVE",
"55 -120 CURVE SMOOTH",
"54 -119 OFFCURVE",
"54 -119 OFFCURVE",
"54 -119 CURVE",
"54 -119 OFFCURVE",
"55 -119 OFFCURVE",
"55 -119 CURVE SMOOTH",
"60 -105 OFFCURVE",
"87 -65 OFFCURVE"
);
},
{
closed = 1;
nodes = (
"-21 -148 CURVE SMOOTH",
"-21 -173 OFFCURVE",
"1 -192 OFFCURVE",
"38 -192 CURVE SMOOTH",
"58 -192 OFFCURVE",
"86 -184 OFFCURVE",
"127 -154 CURVE SMOOTH",
"175 -122 OFFCURVE",
"223 -68 OFFCURVE",
"259 17 CURVE",
"303 43 OFFCURVE",
"346 42 OFFCURVE",
"385 62 CURVE SMOOTH",
"408 73 OFFCURVE",
"418 88 OFFCURVE",
"418 98 CURVE SMOOTH",
"418 105 OFFCURVE",
"412 110 OFFCURVE",
"403 110 CURVE SMOOTH",
"401 110 OFFCURVE",
"398 110 OFFCURVE",
"395 109 CURVE SMOOTH",
"393 109 LINE SMOOTH",
"377 109 OFFCURVE",
"308 88 OFFCURVE",
"271 70 CURVE",
"299 146 LINE SMOOTH",
"308 168 OFFCURVE",
"328 233 OFFCURVE",
"328 278 CURVE SMOOTH",
"328 306 OFFCURVE",
"324 328 OFFCURVE",
"290 328 CURVE SMOOTH",
"243 328 OFFCURVE",
"206 262 OFFCURVE",
"123 171 CURVE",
"137 204 OFFCURVE",
"149 253 OFFCURVE",
"159 287 CURVE SMOOTH",
"160 292 OFFCURVE",
"161 297 OFFCURVE",
"161 301 CURVE SMOOTH",
"161 319 OFFCURVE",
"150 332 OFFCURVE",
"130 332 CURVE SMOOTH",
"102 332 OFFCURVE",
"84 313 OFFCURVE",
"77 292 CURVE SMOOTH",
"57 227 OFFCURVE",
"38 150 OFFCURVE",
"38 81 CURVE SMOOTH",
"38 58 LINE SMOOTH",
"38 28 OFFCURVE",
"42 0 OFFCURVE",
"73 0 CURVE SMOOTH",
"92 0 OFFCURVE",
"101 25 OFFCURVE",
"124 59 CURVE",
"173 108 OFFCURVE",
"185 157 OFFCURVE",
"247 205 CURVE",
"224 152 OFFCURVE",
"224 146 OFFCURVE",
"220 141 CURVE SMOOTH",
"181 39 LINE",
"130 17 OFFCURVE",
"99 -3 OFFCURVE",
"76 -23 CURVE SMOOTH",
"51 -41 OFFCURVE",
"34 -60 OFFCURVE",
"12 -78 CURVE",
"-10 -104 OFFCURVE",
"-21 -129 OFFCURVE"
);
},
{
closed = 1;
nodes = (
"55 -119 CURVE SMOOTH",
"55 -119 OFFCURVE",
"56 -120 OFFCURVE",
"56 -120 CURVE",
"55 -120 OFFCURVE",
"55 -120 OFFCURVE",
"55 -120 CURVE SMOOTH",
"55 -119 OFFCURVE",
"55 -119 OFFCURVE"
);
}
);
width = 321;
}
);
unicode = 014B;
},
{
glyphname = o;
lastChange = "2016-06-28 17:14:25 +0000";
layers = (
{
anchors = (
{
name = ogonek;
position = "{175, 15}";
},
{
name = top;
position = "{257, 343}";
}
);
layerId = "1677BB6F-42BC-4502-A615-23038A63E498";
paths = (
{
closed = 1;
nodes = (
"182 66 CURVE SMOOTH",
"144 66 OFFCURVE",
"126 99 OFFCURVE",
"126 139 CURVE SMOOTH",
"126 192 OFFCURVE",
"159 256 OFFCURVE",
"217 256 CURVE SMOOTH",
"218 256 LINE SMOOTH",
"229 256 OFFCURVE",
"236 253 OFFCURVE",
"236 253 CURVE",
"216 228 OFFCURVE",
"206 203 OFFCURVE",
"206 182 CURVE SMOOTH",
"206 158 OFFCURVE",
"219 138 OFFCURVE",
"246 128 CURVE",
"241 99 OFFCURVE",
"223 66 OFFCURVE"
);
},
{
closed = 1;
nodes = (
"44 126 CURVE SMOOTH",
"44 49 OFFCURVE",
"98 -6 OFFCURVE",
"174 -6 CURVE SMOOTH",
"264 -6 OFFCURVE",
"299 63 OFFCURVE",
"317 110 CURVE",
"399 137 OFFCURVE",
"440 167 OFFCURVE",
"462 196 CURVE SMOOTH",
"464 199 OFFCURVE",
"465 203 OFFCURVE",
"465 207 CURVE SMOOTH",
"465 223 OFFCURVE",
"450 243 OFFCURVE",
"435 243 CURVE SMOOTH",
"430 243 OFFCURVE",
"425 241 OFFCURVE",
"421 237 CURVE SMOOTH",
"404 220 OFFCURVE",
"368 194 OFFCURVE",
"328 180 CURVE",
"330 191 OFFCURVE",
"331 202 OFFCURVE",
"331 212 CURVE SMOOTH",
"331 278 OFFCURVE",
"291 330 OFFCURVE",
"222 330 CURVE SMOOTH",
"119 330 OFFCURVE",
"44 234 OFFCURVE"
);
}
);
width = 346;
}
);
unicode = 006F;
userData = {
com.typemytype.robofont.layerData = {
};
};
},
{
glyphname = oslash;
lastChange = "2016-06-28 17:14:25 +0000";
layers = (
{
components = (
{
name = o;
}
);
layerId = "1677BB6F-42BC-4502-A615-23038A63E498";
paths = (
{
closed = 1;
nodes = (
"7 -60 CURVE SMOOTH",
"104 77 OFFCURVE",
"235 241 OFFCURVE",
"407 358 CURVE SMOOTH",
"412 362 OFFCURVE",
"415 368 OFFCURVE",
"415 374 CURVE SMOOTH",
"415 387 OFFCURVE",
"404 401 OFFCURVE",
"389 401 CURVE SMOOTH",
"384 401 OFFCURVE",
"378 399 OFFCURVE",
"372 395 CURVE SMOOTH",
"205 278 OFFCURVE",
"81 101 OFFCURVE",
"-15 -30 CURVE SMOOTH",
"-20 -36 OFFCURVE",
"-22 -42 OFFCURVE",
"-22 -47 CURVE SMOOTH",
"-22 -58 OFFCURVE",
"-12 -66 OFFCURVE",
"-4 -66 CURVE SMOOTH",
"0 -66 OFFCURVE",
"4 -64 OFFCURVE"
);
}
);
width = 332;
}
);
unicode = 00F8;
},
{
glyphname = oe;
lastChange = "2016-06-28 17:14:25 +0000";
layers = (
{
layerId = "1677BB6F-42BC-4502-A615-23038A63E498";
paths = (
{
closed = 1;
nodes = (
"278 146 CURVE",
"278 202 OFFCURVE",
"324 251 OFFCURVE",
"366 251 CURVE SMOOTH",
"380 251 OFFCURVE",
"390 248 OFFCURVE",
"390 231 CURVE SMOOTH",
"390 198 OFFCURVE",
"311 166 OFFCURVE"
);
},
{
closed = 1;
nodes = (
"103 131 CURVE SMOOTH",
"109 187 OFFCURVE",
"113 248 OFFCURVE",
"158 248 CURVE SMOOTH",
"190 248 OFFCURVE",
"188 199 OFFCURVE",
"188 188 CURVE SMOOTH",
"188 116 OFFCURVE",
"162 78 OFFCURVE",
"133 77 CURVE SMOOTH",
"115 80 OFFCURVE",
"102 96 OFFCURVE",
"102 121 CURVE SMOOTH",
"102 124 OFFCURVE",
"103 127 OFFCURVE"
);
},
{
closed = 1;
nodes = (
"209 41 CURVE",
"237 6 OFFCURVE",
"290 -6 OFFCURVE",
"332 -6 CURVE SMOOTH",
"414 -6 OFFCURVE",
"492 42 OFFCURVE",
"525 86 CURVE SMOOTH",
"531 94 OFFCURVE",
"533 102 OFFCURVE",
"533 109 CURVE SMOOTH",
"533 126 OFFCURVE",
"518 139 OFFCURVE",
"503 139 CURVE SMOOTH",
"497 139 OFFCURVE",
"491 137 OFFCURVE",
"486 132 CURVE SMOOTH",
"446 95 OFFCURVE",
"388 73 OFFCURVE",
"344 73 CURVE SMOOTH",
"317 73 OFFCURVE",
"295 81 OFFCURVE",
"285 99 CURVE",
"403 130 OFFCURVE",
"460 160 OFFCURVE",
"460 239 CURVE SMOOTH",
"460 296 OFFCURVE",
"417 329 OFFCURVE",
"362 329 CURVE SMOOTH",
"314 329 OFFCURVE",
"274 303 OFFCURVE",
"244 268 CURVE",
"224 301 OFFCURVE",
"199 326 OFFCURVE",
"156 326 CURVE SMOOTH",
"106 326 OFFCURVE",
"20 278 OFFCURVE",
"10 151 CURVE SMOOTH",
"9 142 OFFCURVE",
"9 133 OFFCURVE",
"9 125 CURVE SMOOTH",
"9 42 OFFCURVE",
"50 2 OFFCURVE",
"122 2 CURVE SMOOTH",
"156 2 OFFCURVE",
"184 22 OFFCURVE"
);
}
);
width = 471;
}
);
unicode = 0153;
},
{
glyphname = p;
lastChange = "2016-06-28 17:14:25 +0000";
layers = (
{
anchors = (
{
name = top;
position = "{287, 343}";
}
);
layerId = "1677BB6F-42BC-4502-A615-23038A63E498";
paths = (
{
closed = 1;
nodes = (
"167 68 CURVE SMOOTH",
"153 68 OFFCURVE",
"140 76 OFFCURVE",
"129 84 CURVE",
"150 145 OFFCURVE",
"167 254 OFFCURVE",
"238 254 CURVE SMOOTH",
"251 254 OFFCURVE",
"261 245 OFFCURVE",
"268 232 CURVE",
"239 213 OFFCURVE",
"231 207 OFFCURVE",
"227 189 CURVE SMOOTH",
"226 184 OFFCURVE",
"226 180 OFFCURVE",
"226 176 CURVE SMOOTH",
"226 156 OFFCURVE",
"236 143 OFFCURVE",
"254 135 CURVE",
"233 98 OFFCURVE",
"200 68 OFFCURVE"
);
},
{
closed = 1;
nodes = (
"356 206 CURVE",
"357 214 OFFCURVE",
"357 223 OFFCURVE",
"357 231 CURVE SMOOTH",
"357 288 OFFCURVE",
"328 331 OFFCURVE",
"272 331 CURVE SMOOTH",
"118 331 OFFCURVE",
"85 205 OFFCURVE",
"44 88 CURVE SMOOTH",
"33 60 OFFCURVE",
"-27 -207 OFFCURVE",
"-27 -239 CURVE SMOOTH",
"-27 -249 OFFCURVE",
"-25 -251 OFFCURVE",
"-21 -251 CURVE SMOOTH",
"-18 -251 OFFCURVE",
"-15 -250 OFFCURVE",
"-10 -250 CURVE SMOOTH",
"13 -250 OFFCURVE",
"45 -226 OFFCURVE",
"53 -208 CURVE",
"54 -208 LINE SMOOTH",
"72 -208 OFFCURVE",
"110 -5 OFFCURVE",
"115 14 CURVE",
"133 -1 OFFCURVE",
"143 -8 OFFCURVE",
"165 -8 CURVE SMOOTH",
"243 -8 OFFCURVE",
"308 58 OFFCURVE",
"338 136 CURVE",
"405 159 OFFCURVE",
"491 224 OFFCURVE",
"523 262 CURVE",
"532 266 OFFCURVE",
"535 274 OFFCURVE",
"536 281 CURVE SMOOTH",
"536 298 OFFCURVE",
"526 314 OFFCURVE",
"511 317 CURVE SMOOTH",
"508 318 OFFCURVE",
"509 321 OFFCURVE",
"506 320 CURVE SMOOTH",
"476 290 OFFCURVE",
"407 220 OFFCURVE"
);
}
);
width = 365;
}
);
unicode = 0070;
userData = {
com.typemytype.robofont.layerData = {
};
};
},
{
glyphname = thorn;
lastChange = "2016-06-28 17:14:25 +0000";
layers = (
{
layerId = "1677BB6F-42BC-4502-A615-23038A63E498";
paths = (
{
closed = 1;
nodes = (
"190 78 CURVE SMOOTH",
"163 78 OFFCURVE",
"132 83 OFFCURVE",
"122 95 CURVE",
"126 139 OFFCURVE",
"136 249 OFFCURVE",
"216 249 CURVE SMOOTH",
"247 249 OFFCURVE",
"261 222 OFFCURVE",
"261 185 CURVE SMOOTH",
"261 154 OFFCURVE",
"228 78 OFFCURVE"
);
},
{
closed = 1;
nodes = (
"331 202 CURVE SMOOTH",
"331 269 OFFCURVE",
"305 329 OFFCURVE",
"246 329 CURVE SMOOTH",
"197 329 OFFCURVE",
"177 308 OFFCURVE",
"158 290 CURVE",
"198 494 LINE SMOOTH",
"199 499 OFFCURVE",
"200 504 OFFCURVE",
"200 508 CURVE SMOOTH",
"200 533 OFFCURVE",
"183 544 OFFCURVE",
"165 544 CURVE SMOOTH",
"144 544 OFFCURVE",
"119 529 OFFCURVE",
"115 505 CURVE SMOOTH",
"89 368 OFFCURVE",
"80 316 OFFCURVE",
"69 256 CURVE SMOOTH",
"-15 -191 LINE SMOOTH",
"-15 -193 OFFCURVE",
"-16 -196 OFFCURVE",
"-16 -198 CURVE SMOOTH",
"-16 -220 OFFCURVE",
"4 -231 OFFCURVE",
"25 -231 CURVE SMOOTH",
"45 -231 OFFCURVE",
"66 -220 OFFCURVE",
"70 -200 CURVE SMOOTH",
"110 24 LINE",
"124 17 OFFCURVE",
"150 0 OFFCURVE",
"190 0 CURVE SMOOTH",
"220 0 OFFCURVE",
"240 4 OFFCURVE",
"269 27 CURVE",
"308 28 OFFCURVE",
"377 68 OFFCURVE",
"428 118 CURVE SMOOTH",
"442 131 OFFCURVE",
"449 149 OFFCURVE",
"449 164 CURVE SMOOTH",
"449 180 OFFCURVE",
"441 192 OFFCURVE",
"429 192 CURVE SMOOTH",
"423 192 OFFCURVE",
"416 189 OFFCURVE",
"408 182 CURVE SMOOTH",
"372 152 OFFCURVE",
"311 103 OFFCURVE",
"297 103 CURVE",
"318 125 OFFCURVE",
"331 157 OFFCURVE"
);
}
);
width = 355;
}
);
unicode = 00FE;
},
{
glyphname = q;
lastChange = "2016-06-28 17:14:25 +0000";
layers = (
{
layerId = "1677BB6F-42BC-4502-A615-23038A63E498";
paths = (
{
closed = 1;
nodes = (
"217 55 CURVE SMOOTH",
"212 54 OFFCURVE",
"208 54 OFFCURVE",
"204 54 CURVE SMOOTH",
"156 54 OFFCURVE",
"135 94 OFFCURVE",
"135 140 CURVE SMOOTH",
"135 201 OFFCURVE",
"173 273 OFFCURVE",
"234 273 CURVE SMOOTH",
"251 273 OFFCURVE",
"277 268 OFFCURVE",
"277 267 CURVE SMOOTH",
"277 250 OFFCURVE",
"262 195 OFFCURVE",
"245 141 CURVE",
"221 134 OFFCURVE",
"209 111 OFFCURVE",
"209 89 CURVE SMOOTH",
"209 78 OFFCURVE",
"212 67 OFFCURVE",
"218 59 CURVE SMOOTH",
"218 57 OFFCURVE",
"217 56 OFFCURVE"
);
},
{
closed = 1;
nodes = (
"313 62 LINE",
"371 80 OFFCURVE",
"465 180 OFFCURVE",
"492 233 CURVE SMOOTH",
"494 238 OFFCURVE",
"495 242 OFFCURVE",
"495 247 CURVE SMOOTH",
"495 265 OFFCURVE",
"481 280 OFFCURVE",
"465 280 CURVE SMOOTH",
"457 280 OFFCURVE",
"449 276 OFFCURVE",
"442 266 CURVE SMOOTH",
"419 233 OFFCURVE",
"378 193 OFFCURVE",
"345 165 CURVE",
"357 205 OFFCURVE",
"367 245 OFFCURVE",
"367 271 CURVE SMOOTH",
"367 300 OFFCURVE",
"298 336 OFFCURVE",
"227 336 CURVE SMOOTH",
"104 332 OFFCURVE",
"44 233 OFFCURVE",
"44 141 CURVE SMOOTH",
"44 59 OFFCURVE",
"91 -17 OFFCURVE",
"183 -17 CURVE SMOOTH",
"189 -17 OFFCURVE",
"195 -17 OFFCURVE",
"202 -16 CURVE",
"184 -85 OFFCURVE",
"154 -172 OFFCURVE",
"131 -240 CURVE SMOOTH",
"130 -242 OFFCURVE",
"130 -243 OFFCURVE",
"130 -245 CURVE SMOOTH",
"130 -264 OFFCURVE",
"161 -284 OFFCURVE",
"187 -284 CURVE SMOOTH",
"203 -284 OFFCURVE",
"218 -277 OFFCURVE",
"223 -257 CURVE SMOOTH"
);
}
);
width = 395;
}
);
unicode = 0071;
},
{
glyphname = r;
lastChange = "2016-06-28 17:14:25 +0000";
layers = (
{
anchors = (
{
name = top;
position = "{257, 343}";
}
);
layerId = "1677BB6F-42BC-4502-A615-23038A63E498";
paths = (
{
closed = 1;
nodes = (
"75 0 CURVE SMOOTH",
"106 0 OFFCURVE",
"118 13 OFFCURVE",
"127 30 CURVE SMOOTH",
"159 117 OFFCURVE",
"185 169 OFFCURVE",
"201 206 CURVE",
"200 199 OFFCURVE",
"199 194 OFFCURVE",
"199 188 CURVE SMOOTH",
"199 157 OFFCURVE",
"219 138 OFFCURVE",
"273 138 CURVE SMOOTH",
"329 138 OFFCURVE",
"376 165 OFFCURVE",
"411 193 CURVE SMOOTH",
"413 194 OFFCURVE",
"414 196 OFFCURVE",
"414 199 CURVE SMOOTH",
"414 214 OFFCURVE",
"389 244 OFFCURVE",
"376 244 CURVE SMOOTH",
"375 244 LINE",
"330 226 OFFCURVE",
"300 217 OFFCURVE",
"286 217 CURVE SMOOTH",
"280 217 OFFCURVE",
"277 219 OFFCURVE",
"277 222 CURVE SMOOTH",
"277 223 OFFCURVE",
"278 225 OFFCURVE",
"279 227 CURVE SMOOTH",
"291 256 OFFCURVE",
"299 279 OFFCURVE",
"299 296 CURVE SMOOTH",
"299 318 OFFCURVE",
"286 329 OFFCURVE",
"249 329 CURVE SMOOTH",
"214 329 OFFCURVE",
"139 220 OFFCURVE",
"110 152 CURVE",
"122 189 OFFCURVE",
"136 259 OFFCURVE",
"142 286 CURVE SMOOTH",
"143 289 OFFCURVE",
"143 293 OFFCURVE",
"143 296 CURVE SMOOTH",
"143 314 OFFCURVE",
"129 330 OFFCURVE",
"109 330 CURVE SMOOTH",
"81 330 OFFCURVE",
"65 315 OFFCURVE",
"52 281 CURVE SMOOTH",
"35 223 OFFCURVE",
"26 157 OFFCURVE",
"26 91 CURVE SMOOTH",
"26 81 LINE SMOOTH",
"26 71 LINE SMOOTH",
"26 36 OFFCURVE",
"37 0 OFFCURVE"
);
}
);
width = 282;
}
);
unicode = 0072;
userData = {
com.typemytype.robofont.layerData = {
};
};
},
{
glyphname = s;
lastChange = "2016-06-28 17:14:25 +0000";
layers = (
{
anchors = (
{
name = bot;
position = "{146, 20}";
},
{
name = top;
position = "{237, 343}";
}
);
layerId = "1677BB6F-42BC-4502-A615-23038A63E498";
paths = (
{
closed = 1;
nodes = (
"152 61 LINE SMOOTH",
"150 61 LINE SMOOTH",
"139 61 OFFCURVE",
"123 70 OFFCURVE",
"105 80 CURVE",
"111 92 OFFCURVE",
"104 82 OFFCURVE",
"127 129 CURVE SMOOTH",
"161 199 LINE",
"187 161 OFFCURVE",
"202 125 OFFCURVE",
"202 100 CURVE SMOOTH",
"202 76 OFFCURVE",
"188 61 OFFCURVE",
"157 61 CURVE SMOOTH"
);
},
{
closed = 1;
nodes = (
"179 -6 LINE SMOOTH",
"299 -6 OFFCURVE",
"386 34 OFFCURVE",
"418 95 CURVE SMOOTH",
"421 101 OFFCURVE",
"423 108 OFFCURVE",
"423 114 CURVE SMOOTH",
"423 137 OFFCURVE",
"404 161 OFFCURVE",
"385 161 CURVE SMOOTH",
"379 161 OFFCURVE",
"372 158 OFFCURVE",
"367 152 CURVE SMOOTH",
"356 138 OFFCURVE",
"317 91 OFFCURVE",
"279 75 CURVE",
"285 85 OFFCURVE",
"288 95 OFFCURVE",
"288 105 CURVE SMOOTH",
"288 166 OFFCURVE",
"192 225 OFFCURVE",
"192 258 CURVE SMOOTH",
"192 261 OFFCURVE",
"193 264 OFFCURVE",
"194 266 CURVE SMOOTH",
"202 280 OFFCURVE",
"206 293 OFFCURVE",
"206 303 CURVE SMOOTH",
"206 327 OFFCURVE",
"186 341 OFFCURVE",
"164 341 CURVE SMOOTH",
"146 341 OFFCURVE",
"125 332 OFFCURVE",
"112 312 CURVE",
"113 312 OFFCURVE",
"20 128 OFFCURVE",
"-6 88 CURVE",
"26 32 OFFCURVE",
"95 -6 OFFCURVE",
"176 -6 CURVE SMOOTH"
);
}
);
width = 291;
}
);
unicode = 0073;
userData = {
com.typemytype.robofont.layerData = {
};
};
},
{
glyphname = germandbls;
lastChange = "2016-06-28 17:14:25 +0000";
layers = (
{
layerId = "1677BB6F-42BC-4502-A615-23038A63E498";
paths = (
{
closed = 1;
nodes = (
"249 71 CURVE SMOOTH",
"227 71 OFFCURVE",
"184 82 OFFCURVE",
"170 82 CURVE SMOOTH",
"158 82 OFFCURVE",
"154 79 OFFCURVE",
"152 74 CURVE SMOOTH",
"149 63 OFFCURVE",
"145 50 OFFCURVE",
"145 39 CURVE SMOOTH",
"145 19 OFFCURVE",
"160 2 OFFCURVE",
"234 -5 CURVE SMOOTH",
"243 -6 OFFCURVE",
"252 -7 OFFCURVE",
"261 -7 CURVE SMOOTH",
"355 -7 OFFCURVE",
"437 51 OFFCURVE",
"437 155 CURVE SMOOTH",
"437 240 OFFCURVE",
"371 291 OFFCURVE",
"294 291 CURVE",
"379 296 OFFCURVE",
"448 334 OFFCURVE",
"448 424 CURVE SMOOTH",
"448 507 OFFCURVE",
"370 552 OFFCURVE",
"285 552 CURVE SMOOTH",
"256 552 OFFCURVE",
"229 548 OFFCURVE",
"207 539 CURVE SMOOTH",
"36 469 OFFCURVE",
"16 209 OFFCURVE",
"16 -23 CURVE SMOOTH",
"16 -48 OFFCURVE",
"41 -60 OFFCURVE",
"65 -60 CURVE SMOOTH",
"95 -60 OFFCURVE",
"119 -44 OFFCURVE",
"119 -13 CURVE SMOOTH",
"119 54 LINE SMOOTH",
"119 221 OFFCURVE",
"122 474 OFFCURVE",
"286 474 CURVE SMOOTH",
"326 474 OFFCURVE",
"359 458 OFFCURVE",
"359 421 CURVE SMOOTH",
"359 360 OFFCURVE",
"319 340 OFFCURVE",
"256 340 CURVE SMOOTH",
"221 340 OFFCURVE",
"215 328 OFFCURVE",
"215 289 CURVE SMOOTH",
"215 267 OFFCURVE",
"227 256 OFFCURVE",
"243 250 CURVE SMOOTH",
"302 222 OFFCURVE",
"347 242 OFFCURVE",
"347 167 CURVE SMOOTH",
"347 105 OFFCURVE",
"304 71 OFFCURVE"
);
}
);
width = 438;
}
);
unicode = 00DF;
},
{
glyphname = t;
lastChange = "2016-06-28 17:14:25 +0000";
layers = (
{
anchors = (
{
name = bot;
position = "{147, 3}";
},
{
name = caron.alt;
position = "{359, 551}";
},
{
name = mid;
position = "{144, 395}";
},
{
name = top;
position = "{310, 552}";
}
);
layerId = "1677BB6F-42BC-4502-A615-23038A63E498";
paths = (
{
closed = 1;
nodes = (
"147 320 CURVE",
"163 421 OFFCURVE",
"215 535 OFFCURVE",
"268 535 CURVE SMOOTH",
"273 535 OFFCURVE",
"276 532 OFFCURVE",
"276 527 CURVE SMOOTH",
"276 446 OFFCURVE",
"220 390 OFFCURVE"
);
},
{
closed = 1;
nodes = (
"357 560 LINE SMOOTH",
"357 596 OFFCURVE",
"335 631 OFFCURVE",
"282 631 CURVE SMOOTH",
"153 631 OFFCURVE",
"66 387 OFFCURVE",
"49 235 CURVE",
"40 230 OFFCURVE",
"31 224 OFFCURVE",
"22 219 CURVE SMOOTH",
"12 214 OFFCURVE",
"8 205 OFFCURVE",
"8 194 CURVE SMOOTH",
"8 177 OFFCURVE",
"20 157 OFFCURVE",
"37 157 CURVE SMOOTH",
"39 157 OFFCURVE",
"42 158 OFFCURVE",
"45 158 CURVE",
"47 76 OFFCURVE",
"73 2 OFFCURVE",
"139 2 CURVE SMOOTH",
"146 2 LINE SMOOTH",
"199 8 OFFCURVE",
"247 26 OFFCURVE",
"304 88 CURVE SMOOTH",
"314 98 OFFCURVE",
"318 109 OFFCURVE",
"318 118 CURVE SMOOTH",
"318 138 OFFCURVE",
"300 153 OFFCURVE",
"282 153 CURVE SMOOTH",
"274 153 OFFCURVE",
"267 150 OFFCURVE",
"261 144 CURVE SMOOTH",
"227 109 OFFCURVE",
"191 85 OFFCURVE",
"163 79 CURVE SMOOTH",
"159 79 LINE SMOOTH",
"136 79 OFFCURVE",
"129 120 OFFCURVE",
"129 166 CURVE SMOOTH",
"129 179 OFFCURVE",
"130 192 OFFCURVE",
"130 204 CURVE",
"188 232 OFFCURVE",
"260 261 OFFCURVE",
"297 269 CURVE SMOOTH",
"311 272 OFFCURVE",
"318 282 OFFCURVE",
"318 293 CURVE SMOOTH",
"318 309 OFFCURVE",
"305 325 OFFCURVE",
"285 325 CURVE SMOOTH",
"282 325 OFFCURVE",
"278 325 OFFCURVE",
"275 324 CURVE SMOOTH",
"258 320 OFFCURVE",
"233 312 OFFCURVE",
"205 302 CURVE",
"279 362 OFFCURVE",
"350 452 OFFCURVE",
"357 551 CURVE SMOOTH"
);
}
);
width = 268;
}
);
unicode = 0074;
userData = {
com.typemytype.robofont.layerData = {
};
};
},
{
glyphname = u;
lastChange = "2016-06-28 17:14:25 +0000";
layers = (
{
anchors = (
{
name = ogonek;
position = "{334, 0}";
},
{
name = top;
position = "{277, 343}";
}
);
layerId = "1677BB6F-42BC-4502-A615-23038A63E498";
paths = (
{
closed = 1;
nodes = (
"50 106 CURVE SMOOTH",
"50 49 OFFCURVE",
"76 -4 OFFCURVE",
"145 -4 CURVE SMOOTH",
"205 -4 OFFCURVE",
"247 41 OFFCURVE",
"269 89 CURVE",
"268 85 OFFCURVE",
"267 78 OFFCURVE",
"267 69 CURVE SMOOTH",
"267 40 OFFCURVE",
"278 -4 OFFCURVE",
"330 -4 CURVE SMOOTH",
"417 -4 OFFCURVE",
"470 66 OFFCURVE",
"487 103 CURVE",
"485 117 OFFCURVE",
"461 139 OFFCURVE",
"444 139 CURVE SMOOTH",
"439 139 OFFCURVE",
"434 135 OFFCURVE",
"428 128 CURVE SMOOTH",
"421 120 OFFCURVE",
"386 80 OFFCURVE",
"358 80 CURVE SMOOTH",
"349 80 OFFCURVE",
"341 84 OFFCURVE",
"341 99 CURVE SMOOTH",
"341 103 OFFCURVE",
"342 108 OFFCURVE",
"343 114 CURVE SMOOTH",
"354 166 OFFCURVE",
"379 255 OFFCURVE",
"392 292 CURVE SMOOTH",
"394 297 OFFCURVE",
"394 302 OFFCURVE",
"394 306 CURVE SMOOTH",
"394 323 OFFCURVE",
"379 332 OFFCURVE",
"350 332 CURVE SMOOTH",
"327 332 OFFCURVE",
"312 324 OFFCURVE",
"299 283 CURVE SMOOTH",
"264 172 LINE SMOOTH",
"245 112 OFFCURVE",
"199 74 OFFCURVE",
"169 74 CURVE SMOOTH",
"145 74 OFFCURVE",
"143 96 OFFCURVE",
"143 119 CURVE SMOOTH",
"144 177 OFFCURVE",
"180 266 OFFCURVE",
"196 299 CURVE SMOOTH",
"197 301 OFFCURVE",
"198 304 OFFCURVE",
"198 306 CURVE SMOOTH",
"198 321 OFFCURVE",
"174 331 OFFCURVE",
"154 331 CURVE SMOOTH",
"137 331 OFFCURVE",
"122 325 OFFCURVE",
"112 311 CURVE SMOOTH",
"103 299 OFFCURVE",
"50 214 OFFCURVE"
);
}
);
width = 394;
}
);
unicode = 0075;
userData = {
com.typemytype.robofont.layerData = {
};
};
},
{
glyphname = v;
lastChange = "2016-06-28 17:14:25 +0000";
layers = (
{
layerId = "1677BB6F-42BC-4502-A615-23038A63E498";
paths = (
{
closed = 1;
nodes = (
"510 249 CURVE SMOOTH",
"513 254 OFFCURVE",
"514 259 OFFCURVE",
"514 265 CURVE SMOOTH",
"514 286 OFFCURVE",
"498 307 OFFCURVE",
"480 307 CURVE SMOOTH",
"473 307 OFFCURVE",
"465 303 OFFCURVE",
"459 295 CURVE SMOOTH",
"430 255 OFFCURVE",
"379 226 OFFCURVE",
"327 214 CURVE",
"336 238 OFFCURVE",
"343 263 OFFCURVE",
"350 289 CURVE SMOOTH",
"351 294 OFFCURVE",
"352 299 OFFCURVE",
"352 303 CURVE SMOOTH",
"352 324 OFFCURVE",
"338 336 OFFCURVE",
"319 336 CURVE SMOOTH",
"284 336 OFFCURVE",
"235 295 OFFCURVE",
"235 197 CURVE SMOOTH",
"235 181 LINE SMOOTH",
"200 104 OFFCURVE",
"163 81 OFFCURVE",
"157 77 CURVE",
"157 77 OFFCURVE",
"157 78 OFFCURVE",
"157 78 CURVE SMOOTH",
"157 86 OFFCURVE",
"141 121 OFFCURVE",
"141 187 CURVE SMOOTH",
"141 216 OFFCURVE",
"144 251 OFFCURVE",
"153 292 CURVE SMOOTH",
"153 294 OFFCURVE",
"154 296 OFFCURVE",
"154 298 CURVE SMOOTH",
"154 319 OFFCURVE",
"129 334 OFFCURVE",
"106 334 CURVE SMOOTH",
"89 334 OFFCURVE",
"72 326 OFFCURVE",
"65 305 CURVE SMOOTH",
"49 252 OFFCURVE",
"42 205 OFFCURVE",
"42 163 CURVE SMOOTH",
"42 56 OFFCURVE",
"87 -10 OFFCURVE",
"135 -10 CURVE SMOOTH",
"143 -10 OFFCURVE",
"152 -8 OFFCURVE",
"160 -4 CURVE SMOOTH",
"210 20 OFFCURVE",
"257 71 OFFCURVE",
"294 140 CURVE",
"372 141 OFFCURVE",
"480 197 OFFCURVE"
);
}
);
width = 348;
}
);
unicode = 0076;
},
{
glyphname = w;
lastChange = "2016-06-28 17:14:25 +0000";
layers = (
{
anchors = (
{
name = top;
position = "{367, 343}";
}
);
layerId = "1677BB6F-42BC-4502-A615-23038A63E498";
paths = (
{
closed = 1;
nodes = (
"372 65 CURVE SMOOTH",
"340 65 OFFCURVE",
"325 87 OFFCURVE",
"325 124 CURVE SMOOTH",
"325 131 OFFCURVE",
"326 138 OFFCURVE",
"327 146 CURVE SMOOTH",
"335 165 OFFCURVE",
"343 184 OFFCURVE",
"352 204 CURVE",
"348 216 LINE SMOOTH",
"349 220 OFFCURVE",
"351 224 OFFCURVE",
"353 228 CURVE SMOOTH",
"367 258 OFFCURVE",
"376 281 OFFCURVE",
"376 295 CURVE SMOOTH",
"376 309 OFFCURVE",
"368 316 OFFCURVE",
"351 316 CURVE SMOOTH",
"348 316 OFFCURVE",
"344 315 OFFCURVE",
"341 315 CURVE SMOOTH",
"326 313 OFFCURVE",
"312 290 OFFCURVE",
"301 259 CURVE SMOOTH",
"272 197 LINE",
"227 86 OFFCURVE",
"204 67 OFFCURVE",
"189 67 CURVE SMOOTH",
"184 67 OFFCURVE",
"180 69 OFFCURVE",
"177 70 CURVE SMOOTH",
"153 73 OFFCURVE",
"144 102 OFFCURVE",
"144 131 CURVE SMOOTH",
"144 141 OFFCURVE",
"145 152 OFFCURVE",
"147 161 CURVE SMOOTH",
"158 212 OFFCURVE",
"224 285 OFFCURVE",
"228 291 CURVE SMOOTH",
"230 293 OFFCURVE",
"230 296 OFFCURVE",
"230 299 CURVE SMOOTH",
"230 315 OFFCURVE",
"209 337 OFFCURVE",
"184 337 CURVE SMOOTH",
"170 337 OFFCURVE",
"154 329 OFFCURVE",
"141 309 CURVE SMOOTH",
"127 287 OFFCURVE",
"54 200 OFFCURVE",
"54 120 CURVE SMOOTH",
"54 40 OFFCURVE",
"106 -7 OFFCURVE",
"176 -7 CURVE SMOOTH",
"224 -7 OFFCURVE",
"254 17 OFFCURVE",
"279 53 CURVE",
"291 21 OFFCURVE",
"315 -10 OFFCURVE",
"364 -10 CURVE SMOOTH",
"374 -10 LINE SMOOTH",
"432 -7 OFFCURVE",
"513 51 OFFCURVE",
"558 144 CURVE SMOOTH",
"559 146 OFFCURVE",
"560 148 OFFCURVE",
"561 150 CURVE SMOOTH",
"575 147 OFFCURVE",
"591 146 OFFCURVE",
"607 146 CURVE SMOOTH",
"638 146 OFFCURVE",
"673 151 OFFCURVE",
"710 162 CURVE SMOOTH",
"723 167 OFFCURVE",
"729 177 OFFCURVE",
"729 188 CURVE SMOOTH",
"729 203 OFFCURVE",
"718 219 OFFCURVE",
"700 219 CURVE SMOOTH",
"694 219 OFFCURVE",
"688 218 OFFCURVE",
"681 214 CURVE SMOOTH",
"656 210 OFFCURVE",
"633 208 OFFCURVE",
"613 208 CURVE SMOOTH",
"602 208 OFFCURVE",
"592 209 OFFCURVE",
"583 210 CURVE",
"589 230 OFFCURVE",
"591 250 OFFCURVE",
"591 268 CURVE SMOOTH",
"591 337 OFFCURVE",
"556 385 OFFCURVE",
"503 386 CURVE SMOOTH",
"439 385 OFFCURVE",
"409 347 OFFCURVE",
"409 301 CURVE SMOOTH",
"409 259 OFFCURVE",
"435 210 OFFCURVE",
"485 179 CURVE SMOOTH",
"484 177 OFFCURVE",
"483 176 OFFCURVE",
"482 174 CURVE SMOOTH",
"457 110 OFFCURVE",
"411 65 OFFCURVE"
);
},
{
closed = 1;
nodes = (
"513 234 CURVE",
"490 250 OFFCURVE",
"482 272 OFFCURVE",
"482 289 CURVE SMOOTH",
"482 306 OFFCURVE",
"489 318 OFFCURVE",
"500 318 CURVE SMOOTH",
"515 318 OFFCURVE",
"524 305 OFFCURVE",
"524 284 CURVE SMOOTH",
"524 270 OFFCURVE",
"520 253 OFFCURVE"
);
}
);
width = 583;
}
);
unicode = 0077;
userData = {
com.typemytype.robofont.layerData = {
};
};
},
{
glyphname = x;
lastChange = "2016-06-28 17:14:25 +0000";
layers = (
{
layerId = "1677BB6F-42BC-4502-A615-23038A63E498";
paths = (
{
closed = 1;
nodes = (
"243 -6 CURVE SMOOTH",
"255 -9 OFFCURVE",
"267 -11 OFFCURVE",
"277 -11 CURVE SMOOTH",
"354 -11 OFFCURVE",
"387 74 OFFCURVE",
"406 106 CURVE SMOOTH",
"411 114 OFFCURVE",
"413 123 OFFCURVE",
"413 131 CURVE SMOOTH",
"413 149 OFFCURVE",
"402 164 OFFCURVE",
"387 164 CURVE SMOOTH",
"378 164 OFFCURVE",
"368 159 OFFCURVE",
"359 147 CURVE SMOOTH",
"341 123 OFFCURVE",
"312 66 OFFCURVE",
"274 66 CURVE SMOOTH",
"249 66 OFFCURVE",
"232 84 OFFCURVE",
"202 134 CURVE",
"281 243 LINE SMOOTH",
"288 252 OFFCURVE",
"297 255 OFFCURVE",
"306 255 CURVE SMOOTH",
"324 255 OFFCURVE",
"343 245 OFFCURVE",
"358 245 CURVE SMOOTH",
"373 245 OFFCURVE",
"381 261 OFFCURVE",
"381 281 CURVE SMOOTH",
"381 315 OFFCURVE",
"353 334 OFFCURVE",
"321 334 CURVE SMOOTH",
"297 334 OFFCURVE",
"271 323 OFFCURVE",
"252 300 CURVE SMOOTH",
"169 191 LINE",
"150 225 OFFCURVE",
"126 266 OFFCURVE",
"96 318 CURVE SMOOTH",
"93 324 OFFCURVE",
"86 327 OFFCURVE",
"78 327 CURVE SMOOTH",
"59 327 OFFCURVE",
"35 312 OFFCURVE",
"35 289 CURVE SMOOTH",
"35 284 OFFCURVE",
"36 278 OFFCURVE",
"39 272 CURVE SMOOTH",
"73 213 OFFCURVE",
"98 166 OFFCURVE",
"119 128 CURVE",
"93 97 OFFCURVE",
"72 80 OFFCURVE",
"54 66 CURVE SMOOTH",
"41 58 OFFCURVE",
"36 46 OFFCURVE",
"36 34 CURVE SMOOTH",
"36 10 OFFCURVE",
"58 -15 OFFCURVE",
"81 -15 CURVE SMOOTH",
"92 -15 OFFCURVE",
"104 -9 OFFCURVE",
"114 5 CURVE SMOOTH",
"128 28 OFFCURVE",
"140 47 OFFCURVE",
"155 68 CURVE",
"181 29 OFFCURVE",
"205 6 OFFCURVE"
);
}
);
width = 326;
}
);
unicode = 0078;
},
{
glyphname = y;
lastChange = "2016-06-28 17:14:25 +0000";
layers = (
{
anchors = (
{
name = top;
position = "{237, 343}";
}
);
layerId = "1677BB6F-42BC-4502-A615-23038A63E498";
paths = (
{
closed = 1;
nodes = (
"66 -244 CURVE SMOOTH",
"61 -244 OFFCURVE",
"61 -237 OFFCURVE",
"61 -236 CURVE SMOOTH",
"61 -207 OFFCURVE",
"151 -106 OFFCURVE",
"178 -92 CURVE",
"166 -154 OFFCURVE",
"122 -245 OFFCURVE",
"73 -245 CURVE SMOOTH",
"71 -245 OFFCURVE",
"68 -244 OFFCURVE"
);
},
{
closed = 1;
nodes = (
"61 -314 CURVE SMOOTH",
"215 -314 OFFCURVE",
"256 -167 OFFCURVE",
"279 -47 CURVE",
"344 -11 OFFCURVE",
"445 44 OFFCURVE",
"498 82 CURVE SMOOTH",
"518 95 OFFCURVE",
"525 110 OFFCURVE",
"525 124 CURVE SMOOTH",
"525 144 OFFCURVE",
"509 159 OFFCURVE",
"492 159 CURVE SMOOTH",
"487 159 OFFCURVE",
"481 158 OFFCURVE",
"476 154 CURVE SMOOTH",
"445 132 OFFCURVE",
"328 59 OFFCURVE",
"293 36 CURVE",
"303 97 OFFCURVE",
"305 108 OFFCURVE",
"312 138 CURVE SMOOTH",
"312 154 OFFCURVE",
"336 230 OFFCURVE",
"336 277 CURVE SMOOTH",
"336 294 OFFCURVE",
"314 302 OFFCURVE",
"298 302 CURVE SMOOTH",
"273 302 OFFCURVE",
"261 283 OFFCURVE",
"253 254 CURVE SMOOTH",
"226 162 LINE SMOOTH",
"210 111 OFFCURVE",
"191 76 OFFCURVE",
"159 69 CURVE SMOOTH",
"152 69 LINE SMOOTH",
"126 69 OFFCURVE",
"119 90 OFFCURVE",
"119 110 CURVE SMOOTH",
"119 153 OFFCURVE",
"130 190 OFFCURVE",
"137 218 CURVE SMOOTH",
"145 237 OFFCURVE",
"161 253 OFFCURVE",
"161 275 CURVE SMOOTH",
"161 297 OFFCURVE",
"140 306 OFFCURVE",
"124 306 CURVE SMOOTH",
"106 306 OFFCURVE",
"78 290 OFFCURVE",
"68 271 CURVE SMOOTH",
"40 218 OFFCURVE",
"23 174 OFFCURVE",
"23 94 CURVE SMOOTH",
"23 37 OFFCURVE",
"67 0 OFFCURVE",
"118 0 CURVE SMOOTH",
"138 0 OFFCURVE",
"196 22 OFFCURVE",
"228 77 CURVE",
"195 -11 LINE",
"143 -49 OFFCURVE",
"82 -80 OFFCURVE",
"40 -128 CURVE SMOOTH",
"12 -161 OFFCURVE",
"-28 -194 OFFCURVE",
"-28 -247 CURVE SMOOTH",
"-28 -300 OFFCURVE",
"6 -314 OFFCURVE"
);
}
);
width = 346;
}
);
unicode = 0079;
userData = {
com.typemytype.robofont.layerData = {
};
};
},
{
glyphname = z;
lastChange = "2016-06-28 17:14:25 +0000";
layers = (
{
anchors = (
{
name = top;
position = "{207, 343}";
}
);
layerId = "1677BB6F-42BC-4502-A615-23038A63E498";
paths = (
{
closed = 1;
nodes = (
"296 64 CURVE SMOOTH",
"305 71 OFFCURVE",
"309 83 OFFCURVE",
"309 95 CURVE SMOOTH",
"309 111 OFFCURVE",
"302 126 OFFCURVE",
"293 126 CURVE SMOOTH",
"291 126 OFFCURVE",
"289 125 OFFCURVE",
"287 124 CURVE SMOOTH",
"209 78 OFFCURVE",
"158 64 OFFCURVE",
"126 64 CURVE SMOOTH",
"92 64 OFFCURVE",
"80 80 OFFCURVE",
"79 91 CURVE",
"94 100 OFFCURVE",
"226 213 OFFCURVE",
"240 224 CURVE SMOOTH",
"258 242 OFFCURVE",
"257 273 OFFCURVE",
"257 287 CURVE SMOOTH",
"257 299 OFFCURVE",
"243 319 OFFCURVE",
"216 319 CURVE SMOOTH",
"199 319 OFFCURVE",
"117 318 OFFCURVE",
"58 318 CURVE SMOOTH",
"35 318 OFFCURVE",
"27 303 OFFCURVE",
"27 287 CURVE SMOOTH",
"27 267 OFFCURVE",
"44 252 OFFCURVE",
"47 245 CURVE",
"71 245 OFFCURVE",
"147 249 OFFCURVE",
"188 255 CURVE",
"39 145 LINE SMOOTH",
"22 133 OFFCURVE",
"-2 107 OFFCURVE",
"-2 72 CURVE SMOOTH",
"-2 24 OFFCURVE",
"44 -5 OFFCURVE",
"109 -5 CURVE SMOOTH",
"164 -5 OFFCURVE",
"232 16 OFFCURVE"
);
}
);
width = 224;
}
);
unicode = 007A;
userData = {
com.typemytype.robofont.layerData = {
};
};
},
{
glyphname = f_f;
lastChange = "2016-06-28 17:14:25 +0000";
layers = (
{
layerId = "1677BB6F-42BC-4502-A615-23038A63E498";
paths = (
{
closed = 1;
nodes = (
"353 247 CURVE",
"359 249 OFFCURVE",
"418 499 OFFCURVE",
"489 499 CURVE SMOOTH",
"500 499 OFFCURVE",
"504 494 OFFCURVE",
"504 483 CURVE SMOOTH",
"504 429 OFFCURVE",
"408 290 OFFCURVE"
);
},
{
closed = 1;
nodes = (
"354 -65 CURVE SMOOTH",
"342 -65 OFFCURVE",
"337 32 OFFCURVE",
"337 105 CURVE SMOOTH",
"337 141 LINE SMOOTH",
"337 145 OFFCURVE",
"337 145 OFFCURVE",
"336 163 CURVE",
"341 160 LINE",
"365 106 OFFCURVE",
"378 27 OFFCURVE",
"378 -15 CURVE SMOOTH",
"378 -46 OFFCURVE",
"371 -65 OFFCURVE"
);
},
{
closed = 1;
nodes = (
"111 -118 CURVE SMOOTH",
"105 -118 OFFCURVE",
"101 -58 OFFCURVE",
"101 -12 CURVE SMOOTH",
"101 47 OFFCURVE",
"107 105 OFFCURVE",
"109 162 CURVE",
"131 115 OFFCURVE",
"146 56 OFFCURVE",
"146 -16 CURVE SMOOTH",
"146 -54 OFFCURVE",
"145 -118 OFFCURVE"
);
},
{
closed = 1;
nodes = (
"96 -214 CURVE SMOOTH",
"191 -214 OFFCURVE",
"229 -101 OFFCURVE",
"229 -43 CURVE SMOOTH",
"229 19 OFFCURVE",
"209 79 OFFCURVE",
"196 131 CURVE",
"222 138 OFFCURVE",
"242 142 OFFCURVE",
"267 148 CURVE",
"265 123 OFFCURVE",
"265 96 OFFCURVE",
"265 70 CURVE SMOOTH",
"265 18 LINE SMOOTH",
"265 -66 OFFCURVE",
"278 -160 OFFCURVE",
"354 -160 CURVE SMOOTH",
"441 -160 OFFCURVE",
"457 -79 OFFCURVE",
"457 -27 CURVE SMOOTH",
"457 39 OFFCURVE",
"435 93 OFFCURVE",
"416 137 CURVE",
"492 144 OFFCURVE",
"595 153 OFFCURVE",
"595 247 CURVE SMOOTH",
"595 268 OFFCURVE",
"588 277 OFFCURVE",
"577 277 CURVE",
"577 279 OFFCURVE",
"577 281 OFFCURVE",
"577 282 CURVE",
"527 242 OFFCURVE",
"477 201 OFFCURVE",
"428 201 CURVE SMOOTH",
"417 201 OFFCURVE",
"405 203 OFFCURVE",
"394 208 CURVE",
"465 288 OFFCURVE",
"580 393 OFFCURVE",
"580 504 CURVE SMOOTH",
"580 554 OFFCURVE",
"552 589 OFFCURVE",
"505 589 CURVE SMOOTH",
"371 589 OFFCURVE",
"303 390 OFFCURVE",
"273 219 CURVE",
"257 212 OFFCURVE",
"225 200 OFFCURVE",
"195 200 CURVE SMOOTH",
"185 200 OFFCURVE",
"175 201 OFFCURVE",
"166 205 CURVE",
"234 286 OFFCURVE",
"347 427 OFFCURVE",
"347 555 CURVE SMOOTH",
"347 607 OFFCURVE",
"321 640 OFFCURVE",
"274 640 CURVE SMOOTH",
"79 640 OFFCURVE",
"12 179 OFFCURVE",
"12 -13 CURVE SMOOTH",
"12 -95 OFFCURVE",
"21 -214 OFFCURVE"
);
},
{
closed = 1;
nodes = (
"131 228 CURVE SMOOTH",
"145 271 OFFCURVE",
"196 550 OFFCURVE",
"267 550 CURVE SMOOTH",
"276 550 OFFCURVE",
"279 538 OFFCURVE",
"279 520 CURVE SMOOTH",
"279 446 OFFCURVE",
"190 299 OFFCURVE",
"133 226 CURVE SMOOTH",
"133 227 OFFCURVE",
"131 228 OFFCURVE"
);
},
{
closed = 1;
nodes = (
"577 282 CURVE",
"577 282 OFFCURVE",
"577 282 OFFCURVE",
"577 282 CURVE",
"577 282 OFFCURVE",
"577 282 OFFCURVE"
);
}
);
width = 511;
}
);
},
{
glyphname = fi;
lastChange = "2016-06-28 17:14:25 +0000";
layers = (
{
layerId = "1677BB6F-42BC-4502-A615-23038A63E498";
paths = (
{
closed = 1;
nodes = (
"139 301 CURVE",
"163 448 OFFCURVE",
"204 551 OFFCURVE",
"236 551 CURVE SMOOTH",
"246 551 OFFCURVE",
"247 535 OFFCURVE",
"247 520 CURVE SMOOTH",
"247 491 OFFCURVE",
"170 380 OFFCURVE"
);
},
{
closed = 1;
nodes = (
"425 383 CURVE SMOOTH",
"469 383 OFFCURVE",
"500 409 OFFCURVE",
"500 456 CURVE SMOOTH",
"500 499 OFFCURVE",
"471 514 OFFCURVE",
"433 514 CURVE SMOOTH",
"390 514 OFFCURVE",
"354 488 OFFCURVE",
"354 446 CURVE SMOOTH",
"354 404 OFFCURVE",
"383 383 OFFCURVE"
);
},
{
closed = 1;
nodes = (
"120 -126 CURVE SMOOTH",
"110 -126 OFFCURVE",
"101 -67 OFFCURVE",
"100 -15 CURVE SMOOTH",
"100 -15 OFFCURVE",
"99 -8 OFFCURVE",
"99 5 CURVE SMOOTH",
"99 48 OFFCURVE",
"102 143 OFFCURVE",
"122 143 CURVE SMOOTH",
"123 146 OFFCURVE",
"124 147 OFFCURVE",
"125 147 CURVE SMOOTH",
"134 147 OFFCURVE",
"150 64 OFFCURVE",
"150 6 CURVE SMOOTH",
"150 -1 OFFCURVE",
"149 -7 OFFCURVE",
"149 -13 CURVE SMOOTH",
"145 -41 OFFCURVE",
"151 -126 OFFCURVE"
);
},
{
closed = 1;
nodes = (
"165 210 LINE",
"245 314 OFFCURVE",
"319 383 OFFCURVE",
"319 563 CURVE SMOOTH",
"319 612 OFFCURVE",
"294 641 OFFCURVE",
"245 641 CURVE SMOOTH",
"86 641 OFFCURVE",
"15 238 OFFCURVE",
"15 -7 CURVE SMOOTH",
"15 -90 OFFCURVE",
"26 -208 OFFCURVE",
"113 -208 CURVE SMOOTH",
"199 -208 OFFCURVE",
"230 -121 OFFCURVE",
"236 -21 CURVE SMOOTH",
"236 -9 LINE SMOOTH",
"236 41 OFFCURVE",
"220 87 OFFCURVE",
"201 126 CURVE",
"228 131 OFFCURVE",
"253 137 OFFCURVE",
"279 139 CURVE",
"275 128 OFFCURVE",
"273 117 OFFCURVE",
"273 104 CURVE SMOOTH",
"273 50 OFFCURVE",
"309 -11 OFFCURVE",
"370 -11 CURVE SMOOTH",
"437 -11 OFFCURVE",
"492 32 OFFCURVE",
"526 62 CURVE SMOOTH",
"546 78 OFFCURVE",
"554 96 OFFCURVE",
"554 111 CURVE SMOOTH",
"554 133 OFFCURVE",
"539 149 OFFCURVE",
"521 149 CURVE SMOOTH",
"514 149 OFFCURVE",
"507 147 OFFCURVE",
"500 141 CURVE SMOOTH",
"447 85 OFFCURVE",
"429 70 OFFCURVE",
"386 70 CURVE SMOOTH",
"378 70 OFFCURVE",
"370 84 OFFCURVE",
"370 99 CURVE SMOOTH",
"370 174 OFFCURVE",
"405 250 OFFCURVE",
"431 301 CURVE SMOOTH",
"432 303 OFFCURVE",
"432 305 OFFCURVE",
"432 307 CURVE SMOOTH",
"432 321 OFFCURVE",
"415 336 OFFCURVE",
"401 336 CURVE SMOOTH",
"373 336 OFFCURVE",
"339 325 OFFCURVE",
"330 301 CURVE SMOOTH",
"322 276 OFFCURVE",
"315 263 OFFCURVE",
"306 241 CURVE",
"278 223 OFFCURVE",
"225 210 OFFCURVE",
"179 210 CURVE SMOOTH"
);
}
);
width = 441;
}
);
unicode = FB01;
},
{
glyphname = ordfeminine;
lastChange = "2016-06-28 17:14:25 +0000";
layers = (
{
layerId = "1677BB6F-42BC-4502-A615-23038A63E498";
paths = (
{
closed = 1;
nodes = (
"121 336 CURVE SMOOTH",
"106 336 OFFCURVE",
"103 352 OFFCURVE",
"103 371 CURVE SMOOTH",
"103 420 OFFCURVE",
"136 490 OFFCURVE",
"182 496 CURVE",
"166 416 LINE SMOOTH",
"161 387 OFFCURVE",
"149 336 OFFCURVE"
);
},
{
closed = 1;
nodes = (
"243 268 CURVE SMOOTH",
"292 268 OFFCURVE",
"320 301 OFFCURVE",
"357 338 CURVE",
"337 432 LINE",
"306 369 OFFCURVE",
"293 346 OFFCURVE",
"252 346 CURVE SMOOTH",
"245 346 OFFCURVE",
"245 356 OFFCURVE",
"245 371 CURVE SMOOTH",
"245 419 OFFCURVE",
"263 459 OFFCURVE",
"263 508 CURVE SMOOTH",
"263 540 OFFCURVE",
"251 541 OFFCURVE",
"215 541 CURVE SMOOTH",
"200 541 OFFCURVE",
"195 563 OFFCURVE",
"173 563 CURVE SMOOTH",
"158 563 OFFCURVE",
"149 559 OFFCURVE",
"143 556 CURVE SMOOTH",
"74 525 OFFCURVE",
"17 449 OFFCURVE",
"17 358 CURVE SMOOTH",
"17 309 OFFCURVE",
"46 269 OFFCURVE",
"96 269 CURVE SMOOTH",
"134 269 OFFCURVE",
"163 290 OFFCURVE",
"186 312 CURVE",
"197 289 OFFCURVE",
"211 268 OFFCURVE"
);
}
);
width = 317;
}
);
unicode = 00AA;
},
{
glyphname = ordmasculine;
lastChange = "2016-06-28 17:14:25 +0000";
layers = (
{
layerId = "1677BB6F-42BC-4502-A615-23038A63E498";
paths = (
{
closed = 1;
nodes = (
"121 268 CURVE SMOOTH",
"209 268 OFFCURVE",
"253 359 OFFCURVE",
"253 445 CURVE SMOOTH",
"253 506 OFFCURVE",
"229 565 OFFCURVE",
"165 565 CURVE SMOOTH",
"78 565 OFFCURVE",
"18 490 OFFCURVE",
"18 403 CURVE SMOOTH",
"18 333 OFFCURVE",
"48 268 OFFCURVE"
);
},
{
closed = 1;
nodes = (
"131 338 CURVE SMOOTH",
"104 338 OFFCURVE",
"94 360 OFFCURVE",
"94 391 CURVE SMOOTH",
"94 430 OFFCURVE",
"113 495 OFFCURVE",
"148 495 CURVE SMOOTH",
"171 495 OFFCURVE",
"177 465 OFFCURVE",
"177 437 CURVE SMOOTH",
"177 401 OFFCURVE",
"161 338 OFFCURVE"
);
}
);
width = 273;
}
);
unicode = 00BA;
},
{
glyphname = Delta;
lastChange = "2016-06-28 17:14:25 +0000";
layers = (
{
layerId = "1677BB6F-42BC-4502-A615-23038A63E498";
paths = (
{
closed = 1;
nodes = (
"233 93 LINE",
"285 177 OFFCURVE",
"366 313 OFFCURVE",
"425 412 CURVE",
"559 93 LINE"
);
},
{
closed = 1;
nodes = (
"151 1 CURVE SMOOTH",
"625 1 LINE SMOOTH",
"664 1 OFFCURVE",
"680 24 OFFCURVE",
"680 58 CURVE",
"491 507 LINE SMOOTH",
"481 528 OFFCURVE",
"460 543 OFFCURVE",
"438 543 CURVE SMOOTH",
"422 543 OFFCURVE",
"406 535 OFFCURVE",
"394 515 CURVE SMOOTH",
"321 398 OFFCURVE",
"251 281 OFFCURVE",
"196 191 CURVE SMOOTH",
"148 116 OFFCURVE",
"114 66 OFFCURVE",
"108 51 CURVE",
"106 23 OFFCURVE",
"123 1 OFFCURVE"
);
}
);
width = 721;
}
);
unicode = 0394;
},
{
glyphname = Omega;
lastChange = "2016-06-28 17:14:25 +0000";
layers = (
{
layerId = "1677BB6F-42BC-4502-A615-23038A63E498";
paths = (
{
closed = 1;
nodes = (
"701 47 CURVE",
"807 119 OFFCURVE",
"862 245 OFFCURVE",
"862 367 CURVE SMOOTH",
"862 536 OFFCURVE",
"756 697 OFFCURVE",
"536 697 CURVE SMOOTH",
"290 697 OFFCURVE",
"157 494 OFFCURVE",
"157 304 CURVE SMOOTH",
"157 210 OFFCURVE",
"190 119 OFFCURVE",
"258 58 CURVE",
"201 58 LINE SMOOTH",
"177 58 LINE SMOOTH",
"158 58 OFFCURVE",
"150 40 OFFCURVE",
"150 26 CURVE SMOOTH",
"150 9 OFFCURVE",
"169 -16 OFFCURVE",
"194 -17 CURVE SMOOTH",
"206 -17 OFFCURVE",
"218 -18 OFFCURVE",
"230 -18 CURVE SMOOTH",
"282 -18 OFFCURVE",
"340 -15 OFFCURVE",
"458 -13 CURVE",
"452 50 LINE",
"305 64 OFFCURVE",
"239 175 OFFCURVE",
"239 294 CURVE SMOOTH",
"239 448 OFFCURVE",
"349 617 OFFCURVE",
"534 617 CURVE SMOOTH",
"696 617 OFFCURVE",
"778 486 OFFCURVE",
"778 350 CURVE SMOOTH",
"778 211 OFFCURVE",
"693 67 OFFCURVE",
"521 50 CURVE",
"508 -12 LINE",
"586 -22 OFFCURVE",
"652 -28 OFFCURVE",
"707 -28 CURVE SMOOTH",
"733 -28 OFFCURVE",
"757 -27 OFFCURVE",
"778 -24 CURVE SMOOTH",
"798 -21 OFFCURVE",
"820 -1 OFFCURVE",
"823 11 CURVE SMOOTH",
"824 15 OFFCURVE",
"824 20 OFFCURVE",
"824 24 CURVE SMOOTH",
"824 38 OFFCURVE",
"819 51 OFFCURVE",
"800 51 CURVE SMOOTH",
"797 51 LINE SMOOTH",
"771 48 OFFCURVE",
"741 47 OFFCURVE"
);
}
);
width = 904;
}
);
unicode = 03A9;
},
{
glyphname = mu;
lastChange = "2016-06-28 17:14:25 +0000";
layers = (
{
layerId = "1677BB6F-42BC-4502-A615-23038A63E498";
paths = (
{
closed = 1;
nodes = (
"119 75 CURVE SMOOTH",
"100 75 OFFCURVE",
"95 91 OFFCURVE",
"95 117 CURVE SMOOTH",
"95 125 LINE SMOOTH",
"101 212 OFFCURVE",
"149 296 OFFCURVE",
"149 301 CURVE SMOOTH",
"149 302 OFFCURVE",
"148 301 OFFCURVE",
"147 299 CURVE",
"148 317 OFFCURVE",
"129 331 OFFCURVE",
"106 331 CURVE SMOOTH",
"89 331 OFFCURVE",
"76 325 OFFCURVE",
"66 311 CURVE",
"64 314 OFFCURVE",
"40 265 OFFCURVE",
"23 194 CURVE SMOOTH",
"-59 -103 LINE SMOOTH",
"-60 -108 OFFCURVE",
"-61 -113 OFFCURVE",
"-61 -118 CURVE SMOOTH",
"-61 -143 OFFCURVE",
"-45 -158 OFFCURVE",
"-27 -158 CURVE SMOOTH",
"-8 -158 OFFCURVE",
"14 -141 OFFCURVE",
"25 -100 CURVE SMOOTH",
"54 5 LINE",
"67 0 OFFCURVE",
"81 -4 OFFCURVE",
"98 -4 CURVE SMOOTH",
"168 -4 OFFCURVE",
"212 73 OFFCURVE",
"216 98 CURVE SMOOTH",
"216 98 OFFCURVE",
"212 55 OFFCURVE",
"211 59 CURVE",
"211 11 OFFCURVE",
"229 -4 OFFCURVE",
"269 -4 CURVE SMOOTH",
"323 -4 OFFCURVE",
"421 51 OFFCURVE",
"447 101 CURVE",
"445 115 OFFCURVE",
"413 139 OFFCURVE",
"396 139 CURVE SMOOTH",
"389 139 OFFCURVE",
"392 136 OFFCURVE",
"383 132 CURVE SMOOTH",
"375 126 OFFCURVE",
"333 82 OFFCURVE",
"305 80 CURVE SMOOTH",
"301 80 OFFCURVE",
"297 81 OFFCURVE",
"299 99 CURVE SMOOTH",
"309 184 OFFCURVE",
"340 267 OFFCURVE",
"340 297 CURVE SMOOTH",
"340 316 OFFCURVE",
"319 332 OFFCURVE",
"300 332 CURVE SMOOTH",
"270 332 OFFCURVE",
"261 328 OFFCURVE",
"244 276 CURVE SMOOTH",
"221 191 LINE SMOOTH",
"199 120 OFFCURVE",
"151 75 OFFCURVE"
);
}
);
width = 347;
}
);
unicode = 03BC;
},
{
glyphname = pi;
lastChange = "2016-06-28 17:14:25 +0000";
layers = (
{
layerId = "1677BB6F-42BC-4502-A615-23038A63E498";
paths = (
{
closed = 1;
nodes = (
"314 423 CURVE SMOOTH",
"207 423 OFFCURVE",
"117 382 OFFCURVE",
"117 265 CURVE SMOOTH",
"117 259 OFFCURVE",
"118 254 OFFCURVE",
"118 248 CURVE SMOOTH",
"118 226 OFFCURVE",
"139 212 OFFCURVE",
"158 212 CURVE SMOOTH",
"171 212 OFFCURVE",
"184 219 OFFCURVE",
"188 234 CURVE SMOOTH",
"199 310 OFFCURVE",
"215 335 OFFCURVE",
"266 340 CURVE",
"214 186 OFFCURVE",
"170 64 OFFCURVE",
"170 27 CURVE SMOOTH",
"170 4 OFFCURVE",
"182 -22 OFFCURVE",
"214 -22 CURVE SMOOTH",
"238 -22 OFFCURVE",
"275 38 OFFCURVE",
"275 45 CURVE SMOOTH",
"275 46 LINE SMOOTH",
"274 46 OFFCURVE",
"270 42 OFFCURVE",
"263 32 CURVE",
"279 113 OFFCURVE",
"318 209 OFFCURVE",
"345 338 CURVE",
"377 336 OFFCURVE",
"390 333 OFFCURVE",
"431 329 CURVE",
"408 193 OFFCURVE",
"399 107 OFFCURVE",
"399 53 CURVE SMOOTH",
"399 -14 OFFCURVE",
"414 -30 OFFCURVE",
"435 -30 CURVE SMOOTH",
"447 -30 OFFCURVE",
"461 -25 OFFCURVE",
"476 -20 CURVE SMOOTH",
"498 -14 OFFCURVE",
"504 -8 OFFCURVE",
"504 11 CURVE SMOOTH",
"504 32 OFFCURVE",
"496 69 OFFCURVE",
"496 139 CURVE SMOOTH",
"496 185 OFFCURVE",
"499 245 OFFCURVE",
"510 324 CURVE",
"520 323 OFFCURVE",
"529 323 OFFCURVE",
"539 323 CURVE SMOOTH",
"569 323 LINE SMOOTH",
"635 323 OFFCURVE",
"653 373 OFFCURVE",
"657 373 CURVE SMOOTH",
"657 373 OFFCURVE",
"658 373 OFFCURVE",
"658 372 CURVE",
"655 392 OFFCURVE",
"639 407 OFFCURVE",
"619 407 CURVE SMOOTH",
"616 407 LINE SMOOTH",
"482 407 OFFCURVE",
"419 423 OFFCURVE"
);
},
{
closed = 1;
nodes = (
"658 372 CURVE",
"658 372 OFFCURVE",
"658 371 OFFCURVE",
"658 371 CURVE",
"658 371 OFFCURVE",
"658 372 OFFCURVE"
);
},
{
closed = 1;
nodes = (
"658 371 CURVE",
"658 369 OFFCURVE",
"658 366 OFFCURVE",
"658 362 CURVE",
"658 365 OFFCURVE",
"658 368 OFFCURVE"
);
}
);
width = 605;
}
);
unicode = 03C0;
},
{
glyphname = zero;
lastChange = "2016-06-28 17:14:25 +0000";
layers = (
{
layerId = "1677BB6F-42BC-4502-A615-23038A63E498";
paths = (
{
closed = 1;
nodes = (
"42 181 CURVE SMOOTH",
"42 76 OFFCURVE",
"93 -7 OFFCURVE",
"199 -7 CURVE SMOOTH",
"300 -7 OFFCURVE",
"393 65 OFFCURVE",
"408 273 CURVE SMOOTH",
"409 283 OFFCURVE",
"409 292 OFFCURVE",
"409 302 CURVE SMOOTH",
"409 407 OFFCURVE",
"363 495 OFFCURVE",
"254 495 CURVE SMOOTH",
"125 495 OFFCURVE",
"42 366 OFFCURVE"
);
},
{
closed = 1;
nodes = (
"249 403 CURVE SMOOTH",
"294 403 OFFCURVE",
"306 360 OFFCURVE",
"306 304 CURVE SMOOTH",
"306 290 OFFCURVE",
"305 276 OFFCURVE",
"304 261 CURVE SMOOTH",
"294 125 OFFCURVE",
"253 80 OFFCURVE",
"208 80 CURVE SMOOTH",
"165 80 OFFCURVE",
"149 122 OFFCURVE",
"149 185 CURVE SMOOTH",
"149 193 OFFCURVE",
"149 201 OFFCURVE",
"150 210 CURVE SMOOTH",
"160 343 OFFCURVE",
"203 403 OFFCURVE"
);
}
);
width = 417;
}
);
unicode = 0030;
},
{
glyphname = one;
lastChange = "2016-06-28 17:14:25 +0000";
layers = (
{
layerId = "1677BB6F-42BC-4502-A615-23038A63E498";
paths = (
{
closed = 1;
nodes = (
"235 12 CURVE SMOOTH",
"271 170 OFFCURVE",
"316 417 OFFCURVE",
"322 448 CURVE SMOOTH",
"323 455 OFFCURVE",
"324 461 OFFCURVE",
"324 467 CURVE SMOOTH",
"324 482 OFFCURVE",
"320 492 OFFCURVE",
"308 492 CURVE SMOOTH",
"303 492 LINE SMOOTH",
"268 485 OFFCURVE",
"157 465 OFFCURVE",
"129 456 CURVE SMOOTH",
"118 453 OFFCURVE",
"113 434 OFFCURVE",
"113 415 CURVE SMOOTH",
"113 394 OFFCURVE",
"119 372 OFFCURVE",
"131 372 CURVE SMOOTH",
"134 372 LINE SMOOTH",
"147 375 OFFCURVE",
"202 391 OFFCURVE",
"218 397 CURVE",
"198 312 OFFCURVE",
"169 181 OFFCURVE",
"137 22 CURVE SMOOTH",
"137 20 OFFCURVE",
"136 18 OFFCURVE",
"136 16 CURVE SMOOTH",
"136 -6 OFFCURVE",
"160 -16 OFFCURVE",
"184 -16 CURVE SMOOTH",
"208 -16 OFFCURVE",
"232 -6 OFFCURVE"
);
}
);
width = 333;
}
);
unicode = 0031;
},
{
glyphname = two;
lastChange = "2016-06-28 17:14:25 +0000";
layers = (
{
layerId = "1677BB6F-42BC-4502-A615-23038A63E498";
paths = (
{
closed = 1;
nodes = (
"114 96 CURVE SMOOTH",
"114 108 OFFCURVE",
"123 120 OFFCURVE",
"145 120 CURVE SMOOTH",
"159 120 OFFCURVE",
"180 115 OFFCURVE",
"207 102 CURVE",
"182 81 OFFCURVE",
"159 72 OFFCURVE",
"142 72 CURVE SMOOTH",
"125 72 OFFCURVE",
"114 81 OFFCURVE"
);
},
{
closed = 1;
nodes = (
"238 501 CURVE SMOOTH",
"130 501 OFFCURVE",
"59 447 OFFCURVE",
"59 339 CURVE SMOOTH",
"59 296 OFFCURVE",
"68 259 OFFCURVE",
"108 259 CURVE SMOOTH",
"213 259 OFFCURVE",
"95 409 OFFCURVE",
"228 425 CURVE SMOOTH",
"231 425 OFFCURVE",
"235 426 OFFCURVE",
"238 426 CURVE SMOOTH",
"287 426 OFFCURVE",
"309 377 OFFCURVE",
"309 319 CURVE SMOOTH",
"309 260 OFFCURVE",
"285 191 OFFCURVE",
"242 151 CURVE",
"209 174 OFFCURVE",
"177 186 OFFCURVE",
"133 186 CURVE SMOOTH",
"81 186 OFFCURVE",
"46 154 OFFCURVE",
"46 100 CURVE SMOOTH",
"46 34 OFFCURVE",
"91 2 OFFCURVE",
"145 2 CURVE SMOOTH",
"180 2 OFFCURVE",
"219 15 OFFCURVE",
"250 42 CURVE",
"274 24 OFFCURVE",
"305 0 OFFCURVE",
"344 0 CURVE SMOOTH",
"393 0 OFFCURVE",
"410 51 OFFCURVE",
"410 83 CURVE SMOOTH",
"410 90 LINE SMOOTH",
"410 105 OFFCURVE",
"409 113 OFFCURVE",
"396 113 CURVE SMOOTH",
"378 113 OFFCURVE",
"372 86 OFFCURVE",
"348 86 CURVE SMOOTH",
"338 86 OFFCURVE",
"324 90 OFFCURVE",
"309 102 CURVE",
"369 170 OFFCURVE",
"401 255 OFFCURVE",
"401 329 CURVE SMOOTH",
"401 424 OFFCURVE",
"349 501 OFFCURVE"
);
}
);
width = 417;
}
);
unicode = 0032;
},
{
glyphname = three;
lastChange = "2016-06-28 17:14:25 +0000";
layers = (
{
layerId = "1677BB6F-42BC-4502-A615-23038A63E498";
paths = (
{
closed = 1;
nodes = (
"233 -23 CURVE SMOOTH",
"307 -23 OFFCURVE",
"396 13 OFFCURVE",
"396 145 CURVE SMOOTH",
"396 200 OFFCURVE",
"359 254 OFFCURVE",
"290 269 CURVE",
"363 280 OFFCURVE",
"386 345 OFFCURVE",
"386 384 CURVE SMOOTH",
"386 452 OFFCURVE",
"339 480 OFFCURVE",
"280 489 CURVE SMOOTH",
"272 490 OFFCURVE",
"263 491 OFFCURVE",
"255 491 CURVE SMOOTH",
"199 491 OFFCURVE",
"137 463 OFFCURVE",
"105 427 CURVE SMOOTH",
"101 422 OFFCURVE",
"99 416 OFFCURVE",
"99 409 CURVE SMOOTH",
"99 389 OFFCURVE",
"115 366 OFFCURVE",
"137 366 CURVE SMOOTH",
"147 366 OFFCURVE",
"158 371 OFFCURVE",
"170 384 CURVE SMOOTH",
"188 401 OFFCURVE",
"211 410 OFFCURVE",
"232 410 CURVE SMOOTH",
"258 410 OFFCURVE",
"280 395 OFFCURVE",
"280 360 CURVE SMOOTH",
"280 311 OFFCURVE",
"226 293 OFFCURVE",
"195 293 CURVE SMOOTH",
"158 293 OFFCURVE",
"143 282 OFFCURVE",
"143 258 CURVE SMOOTH",
"143 232 OFFCURVE",
"155 219 OFFCURVE",
"176 219 CURVE SMOOTH",
"239 219 OFFCURVE",
"296 187 OFFCURVE",
"301 146 CURVE SMOOTH",
"302 141 OFFCURVE",
"302 136 OFFCURVE",
"302 131 CURVE SMOOTH",
"302 80 OFFCURVE",
"266 58 OFFCURVE",
"227 58 CURVE SMOOTH",
"190 58 OFFCURVE",
"149 78 OFFCURVE",
"133 112 CURVE SMOOTH",
"127 124 OFFCURVE",
"116 129 OFFCURVE",
"105 129 CURVE SMOOTH",
"84 129 OFFCURVE",
"60 111 OFFCURVE",
"60 85 CURVE SMOOTH",
"60 78 OFFCURVE",
"62 69 OFFCURVE",
"66 61 CURVE SMOOTH",
"96 0 OFFCURVE",
"164 -23 OFFCURVE"
);
}
);
width = 417;
}
);
unicode = 0033;
},
{
glyphname = four;
lastChange = "2016-06-28 17:14:25 +0000";
layers = (
{
layerId = "1677BB6F-42BC-4502-A615-23038A63E498";
paths = (
{
closed = 1;
nodes = (
"254 -21 CURVE SMOOTH",
"280 -21 OFFCURVE",
"295 -18 OFFCURVE",
"307 32 CURVE SMOOTH",
"315 61 LINE",
"322 61 OFFCURVE",
"359 63 OFFCURVE",
"367 63 CURVE SMOOTH",
"393 64 OFFCURVE",
"406 88 OFFCURVE",
"406 110 CURVE SMOOTH",
"406 127 OFFCURVE",
"398 142 OFFCURVE",
"381 142 CURVE SMOOTH",
"380 142 LINE",
"380 142 OFFCURVE",
"348 143 OFFCURVE",
"333 143 CURVE",
"341 180 OFFCURVE",
"363 265 OFFCURVE",
"369 289 CURVE SMOOTH",
"369 291 OFFCURVE",
"370 293 OFFCURVE",
"370 295 CURVE SMOOTH",
"370 312 OFFCURVE",
"349 316 OFFCURVE",
"333 316 CURVE SMOOTH",
"305 316 OFFCURVE",
"290 302 OFFCURVE",
"282 277 CURVE SMOOTH",
"275 255 OFFCURVE",
"251 173 OFFCURVE",
"243 142 CURVE",
"239 144 OFFCURVE",
"225 145 OFFCURVE",
"211 145 CURVE SMOOTH",
"189 145 OFFCURVE",
"167 143 OFFCURVE",
"167 143 CURVE",
"204 261 OFFCURVE",
"233 357 OFFCURVE",
"257 440 CURVE SMOOTH",
"258 443 OFFCURVE",
"258 446 OFFCURVE",
"258 449 CURVE SMOOTH",
"258 468 OFFCURVE",
"237 478 OFFCURVE",
"216 478 CURVE SMOOTH",
"198 478 OFFCURVE",
"179 471 OFFCURVE",
"174 455 CURVE SMOOTH",
"148 378 OFFCURVE",
"91 210 OFFCURVE",
"69 132 CURVE SMOOTH",
"65 117 OFFCURVE",
"63 105 OFFCURVE",
"63 95 CURVE SMOOTH",
"63 71 OFFCURVE",
"76 62 OFFCURVE",
"97 61 CURVE SMOOTH",
"97 61 OFFCURVE",
"202 60 OFFCURVE",
"225 60 CURVE",
"218 30 LINE SMOOTH",
"217 22 OFFCURVE",
"216 15 OFFCURVE",
"216 9 CURVE SMOOTH",
"216 -8 OFFCURVE",
"223 -20 OFFCURVE"
);
}
);
width = 417;
}
);
unicode = 0034;
},
{
glyphname = five;
lastChange = "2016-06-28 17:14:25 +0000";
layers = (
{
layerId = "1677BB6F-42BC-4502-A615-23038A63E498";
paths = (
{
closed = 1;
nodes = (
"72 104 CURVE SMOOTH",
"72 27 OFFCURVE",
"138 -8 OFFCURVE",
"240 -8 CURVE SMOOTH",
"320 -8 OFFCURVE",
"410 35 OFFCURVE",
"410 145 CURVE SMOOTH",
"410 264 OFFCURVE",
"330 306 OFFCURVE",
"252 306 CURVE SMOOTH",
"235 306 OFFCURVE",
"219 304 OFFCURVE",
"204 301 CURVE",
"232 377 LINE SMOOTH",
"245 377 LINE SMOOTH",
"294 377 OFFCURVE",
"334 370 OFFCURVE",
"365 370 CURVE SMOOTH",
"404 370 OFFCURVE",
"427 381 OFFCURVE",
"433 431 CURVE SMOOTH",
"434 438 OFFCURVE",
"434 444 OFFCURVE",
"434 450 CURVE SMOOTH",
"434 482 OFFCURVE",
"423 491 OFFCURVE",
"414 491 CURVE SMOOTH",
"410 491 OFFCURVE",
"408 489 OFFCURVE",
"406 487 CURVE SMOOTH",
"392 467 OFFCURVE",
"376 460 OFFCURVE",
"358 460 CURVE SMOOTH",
"324 460 OFFCURVE",
"281 485 OFFCURVE",
"224 485 CURVE SMOOTH",
"123 485 OFFCURVE",
"179 414 OFFCURVE",
"119 304 CURVE SMOOTH",
"112 289 OFFCURVE",
"108 275 OFFCURVE",
"108 264 CURVE SMOOTH",
"108 244 OFFCURVE",
"119 231 OFFCURVE",
"138 231 CURVE SMOOTH",
"141 231 OFFCURVE",
"144 231 OFFCURVE",
"147 232 CURVE SMOOTH",
"165 235 OFFCURVE",
"182 237 OFFCURVE",
"197 237 CURVE SMOOTH",
"268 237 OFFCURVE",
"312 202 OFFCURVE",
"312 146 CURVE SMOOTH",
"312 95 OFFCURVE",
"267 73 OFFCURVE",
"226 73 CURVE SMOOTH",
"178 74 OFFCURVE",
"162 88 OFFCURVE",
"149 110 CURVE",
"141 115 OFFCURVE",
"138 125 OFFCURVE",
"138 138 CURVE SMOOTH",
"138 158 OFFCURVE",
"124 164 OFFCURVE",
"126 166 CURVE",
"105 166 OFFCURVE",
"72 152 OFFCURVE"
);
}
);
width = 430;
}
);
unicode = 0035;
},
{
glyphname = six;
lastChange = "2016-06-28 17:14:25 +0000";
layers = (
{
layerId = "1677BB6F-42BC-4502-A615-23038A63E498";
paths = (
{
closed = 1;
nodes = (
"229 72 CURVE SMOOTH",
"172 72 OFFCURVE",
"146 123 OFFCURVE",
"146 155 CURVE SMOOTH",
"146 210 OFFCURVE",
"179 235 OFFCURVE",
"231 235 CURVE SMOOTH",
"271 235 OFFCURVE",
"294 192 OFFCURVE",
"294 151 CURVE SMOOTH",
"294 111 OFFCURVE",
"273 72 OFFCURVE"
);
},
{
closed = 1;
nodes = (
"388 154 CURVE SMOOTH",
"388 257 OFFCURVE",
"312 320 OFFCURVE",
"241 320 CURVE SMOOTH",
"210 320 OFFCURVE",
"180 308 OFFCURVE",
"159 282 CURVE",
"201 372 OFFCURVE",
"271 400 OFFCURVE",
"333 429 CURVE SMOOTH",
"350 436 OFFCURVE",
"360 453 OFFCURVE",
"360 472 CURVE SMOOTH",
"360 494 OFFCURVE",
"347 505 OFFCURVE",
"321 505 CURVE SMOOTH",
"308 505 OFFCURVE",
"299 501 OFFCURVE",
"289 496 CURVE SMOOTH",
"170 438 OFFCURVE",
"54 351 OFFCURVE",
"54 177 CURVE SMOOTH",
"54 51 OFFCURVE",
"118 0 OFFCURVE",
"201 -12 CURVE SMOOTH",
"210 -13 OFFCURVE",
"219 -14 OFFCURVE",
"227 -14 CURVE SMOOTH",
"323 -14 OFFCURVE",
"388 56 OFFCURVE"
);
}
);
width = 387;
}
);
unicode = 0036;
},
{
glyphname = seven;
lastChange = "2016-06-28 17:14:25 +0000";
layers = (
{
layerId = "1677BB6F-42BC-4502-A615-23038A63E498";
paths = (
{
closed = 1;
nodes = (
"248 23 CURVE SMOOTH",
"274 112 OFFCURVE",
"337 240 OFFCURVE",
"413 362 CURVE SMOOTH",
"415 369 OFFCURVE",
"446 399 OFFCURVE",
"446 429 CURVE SMOOTH",
"446 448 OFFCURVE",
"439 467 OFFCURVE",
"416 467 CURVE SMOOTH",
"408 467 OFFCURVE",
"376 462 OFFCURVE",
"362 462 CURVE SMOOTH",
"141 462 LINE SMOOTH",
"128 462 OFFCURVE",
"117 438 OFFCURVE",
"117 414 CURVE SMOOTH",
"117 392 OFFCURVE",
"127 371 OFFCURVE",
"155 371 CURVE SMOOTH",
"159 371 OFFCURVE",
"163 371 OFFCURVE",
"168 372 CURVE SMOOTH",
"198 378 OFFCURVE",
"246 385 OFFCURVE",
"283 388 CURVE SMOOTH",
"331 391 LINE",
"237 248 OFFCURVE",
"185 125 OFFCURVE",
"152 46 CURVE SMOOTH",
"150 41 OFFCURVE",
"150 37 OFFCURVE",
"150 33 CURVE SMOOTH",
"150 7 OFFCURVE",
"177 -13 OFFCURVE",
"203 -13 CURVE SMOOTH",
"222 -13 OFFCURVE",
"240 -2 OFFCURVE"
);
}
);
width = 417;
}
);
unicode = 0037;
},
{
glyphname = eight;
lastChange = "2016-06-28 17:14:25 +0000";
layers = (
{
layerId = "1677BB6F-42BC-4502-A615-23038A63E498";
paths = (
{
closed = 1;
nodes = (
"256 308 CURVE",
"241 324 OFFCURVE",
"208 351 OFFCURVE",
"208 377 CURVE SMOOTH",
"208 415 OFFCURVE",
"234 428 OFFCURVE",
"273 428 CURVE SMOOTH",
"282 428 OFFCURVE",
"310 416 OFFCURVE",
"310 387 CURVE SMOOTH",
"310 355 OFFCURVE",
"274 321 OFFCURVE"
);
},
{
closed = 1;
nodes = (
"224 65 CURVE SMOOTH",
"185 65 OFFCURVE",
"174 92 OFFCURVE",
"174 110 CURVE SMOOTH",
"174 158 OFFCURVE",
"209 190 OFFCURVE",
"240 207 CURVE",
"256 190 OFFCURVE",
"282 147 OFFCURVE",
"282 126 CURVE SMOOTH",
"282 100 OFFCURVE",
"264 65 OFFCURVE"
);
},
{
closed = 1;
nodes = (
"409 408 CURVE SMOOTH",
"409 483 OFFCURVE",
"338 509 OFFCURVE",
"264 509 CURVE SMOOTH",
"178 509 OFFCURVE",
"115 451 OFFCURVE",
"115 367 CURVE SMOOTH",
"115 320 OFFCURVE",
"159 283 OFFCURVE",
"189 267 CURVE",
"131 235 OFFCURVE",
"86 187 OFFCURVE",
"86 102 CURVE SMOOTH",
"86 18 OFFCURVE",
"141 -18 OFFCURVE",
"232 -18 CURVE SMOOTH",
"322 -18 OFFCURVE",
"385 29 OFFCURVE",
"385 111 CURVE SMOOTH",
"385 178 OFFCURVE",
"344 218 OFFCURVE",
"302 248 CURVE",
"364 276 OFFCURVE",
"409 321 OFFCURVE"
);
}
);
width = 417;
}
);
unicode = 0038;
},
{
glyphname = nine;
lastChange = "2016-06-28 17:14:25 +0000";
layers = (
{
layerId = "1677BB6F-42BC-4502-A615-23038A63E498";
paths = (
{
closed = 1;
nodes = (
"292 231 CURVE SMOOTH",
"292 171 OFFCURVE",
"269 138 OFFCURVE",
"208 138 CURVE SMOOTH",
"197 138 LINE SMOOTH",
"156 140 OFFCURVE",
"133 181 OFFCURVE",
"133 224 CURVE SMOOTH",
"133 271 OFFCURVE",
"161 319 OFFCURVE",
"221 319 CURVE SMOOTH",
"226 319 OFFCURVE",
"232 319 OFFCURVE",
"238 318 CURVE SMOOTH",
"282 312 OFFCURVE",
"292 267 OFFCURVE"
);
},
{
closed = 1;
nodes = (
"242 398 CURVE SMOOTH",
"232 399 OFFCURVE",
"222 400 OFFCURVE",
"212 400 CURVE SMOOTH",
"105 400 OFFCURVE",
"37 321 OFFCURVE",
"37 210 CURVE SMOOTH",
"37 108 OFFCURVE",
"115 63 OFFCURVE",
"188 63 CURVE SMOOTH",
"222 63 OFFCURVE",
"255 73 OFFCURVE",
"279 91 CURVE",
"229 -5 OFFCURVE",
"146 -38 OFFCURVE",
"78 -70 CURVE SMOOTH",
"54 -80 OFFCURVE",
"44 -95 OFFCURVE",
"44 -109 CURVE SMOOTH",
"44 -128 OFFCURVE",
"63 -145 OFFCURVE",
"91 -145 CURVE SMOOTH",
"100 -145 OFFCURVE",
"110 -143 OFFCURVE",
"121 -139 CURVE SMOOTH",
"260 -82 OFFCURVE",
"389 20 OFFCURVE",
"389 217 CURVE SMOOTH",
"389 339 OFFCURVE",
"326 388 OFFCURVE"
);
}
);
width = 417;
}
);
unicode = 0039;
},
{
glyphname = fraction;
lastChange = "2016-06-28 17:14:25 +0000";
layers = (
{
layerId = "1677BB6F-42BC-4502-A615-23038A63E498";
paths = (
{
closed = 1;
nodes = (
"93 -29 CURVE SMOOTH",
"349 575 LINE SMOOTH",
"351 580 OFFCURVE",
"352 586 OFFCURVE",
"352 591 CURVE SMOOTH",
"352 613 OFFCURVE",
"333 631 OFFCURVE",
"312 631 CURVE SMOOTH",
"298 631 OFFCURVE",
"283 622 OFFCURVE",
"274 601 CURVE SMOOTH",
"18 15 LINE SMOOTH",
"15 9 OFFCURVE",
"14 4 OFFCURVE",
"14 -2 CURVE SMOOTH",
"14 -28 OFFCURVE",
"41 -49 OFFCURVE",
"64 -49 CURVE SMOOTH",
"76 -49 OFFCURVE",
"88 -43 OFFCURVE"
);
}
);
width = 265;
}
);
unicode = 2044;
},
{
glyphname = onehalf;
lastChange = "2016-06-28 17:14:25 +0000";
layers = (
{
layerId = "1677BB6F-42BC-4502-A615-23038A63E498";
paths = (
{
closed = 1;
nodes = (
"235 217 CURVE SMOOTH",
"271 375 OFFCURVE",
"316 622 OFFCURVE",
"322 653 CURVE SMOOTH",
"323 660 OFFCURVE",
"324 666 OFFCURVE",
"324 672 CURVE SMOOTH",
"324 687 OFFCURVE",
"320 697 OFFCURVE",
"308 697 CURVE SMOOTH",
"303 697 LINE SMOOTH",
"268 690 OFFCURVE",
"157 670 OFFCURVE",
"129 662 CURVE SMOOTH",
"118 658 OFFCURVE",
"113 639 OFFCURVE",
"113 620 CURVE SMOOTH",
"113 598 OFFCURVE",
"119 577 OFFCURVE",
"131 577 CURVE SMOOTH",
"145 577 OFFCURVE",
"201 596 OFFCURVE",
"218 602 CURVE",
"198 517 OFFCURVE",
"169 386 OFFCURVE",
"137 228 CURVE SMOOTH",
"137 226 OFFCURVE",
"136 224 OFFCURVE",
"136 222 CURVE SMOOTH",
"136 200 OFFCURVE",
"159 190 OFFCURVE",
"183 190 CURVE SMOOTH",
"207 190 OFFCURVE",
"232 200 OFFCURVE"
);
},
{
closed = 1;
nodes = (
"406 -29 CURVE SMOOTH",
"660 575 LINE SMOOTH",
"662 580 OFFCURVE",
"664 586 OFFCURVE",
"664 591 CURVE SMOOTH",
"664 613 OFFCURVE",
"644 631 OFFCURVE",
"623 631 CURVE SMOOTH",
"609 631 OFFCURVE",
"594 622 OFFCURVE",
"585 601 CURVE SMOOTH",
"331 15 LINE SMOOTH",
"328 9 OFFCURVE",
"327 3 OFFCURVE",
"327 -3 CURVE SMOOTH",
"327 -29 OFFCURVE",
"353 -49 OFFCURVE",
"376 -49 CURVE SMOOTH",
"388 -49 OFFCURVE",
"400 -43 OFFCURVE"
);
},
{
closed = 1;
nodes = (
"737 78 CURVE SMOOTH",
"723 78 OFFCURVE",
"711 85 OFFCURVE",
"711 96 CURVE SMOOTH",
"711 105 OFFCURVE",
"717 110 OFFCURVE",
"730 110 CURVE SMOOTH",
"739 110 LINE SMOOTH",
"755 110 OFFCURVE",
"780 109 OFFCURVE",
"791 102 CURVE",
"769 85 OFFCURVE",
"747 78 OFFCURVE"
);
},
{
closed = 1;
nodes = (
"747 355 CURVE SMOOTH",
"747 395 OFFCURVE",
"794 425 OFFCURVE",
"828 425 CURVE SMOOTH",
"879 425 OFFCURVE",
"905 382 OFFCURVE",
"905 302 CURVE SMOOTH",
"905 294 OFFCURVE",
"905 285 OFFCURVE",
"904 276 CURVE SMOOTH",
"896 250 OFFCURVE",
"890 196 OFFCURVE",
"841 151 CURVE",
"808 174 OFFCURVE",
"776 186 OFFCURVE",
"731 186 CURVE SMOOTH",
"678 186 OFFCURVE",
"644 154 OFFCURVE",
"644 100 CURVE SMOOTH",
"644 41 OFFCURVE",
"694 2 OFFCURVE",
"751 2 CURVE SMOOTH",
"791 2 OFFCURVE",
"823 20 OFFCURVE",
"849 42 CURVE",
"871 24 OFFCURVE",
"902 0 OFFCURVE",
"943 0 CURVE SMOOTH",
"991 0 OFFCURVE",
"1008 46 OFFCURVE",
"1008 83 CURVE SMOOTH",
"1008 99 OFFCURVE",
"1005 112 OFFCURVE",
"988 112 CURVE SMOOTH",
"976 112 OFFCURVE",
"973 95 OFFCURVE",
"957 95 CURVE SMOOTH",
"946 95 LINE SMOOTH",
"931 95 OFFCURVE",
"918 96 OFFCURVE",
"906 102 CURVE",
"964 165 OFFCURVE",
"996 238 OFFCURVE",
"1000 297 CURVE SMOOTH",
"1000 304 LINE SMOOTH",
"1000 461 OFFCURVE",
"904 501 OFFCURVE",
"833 501 CURVE SMOOTH",
"727 501 OFFCURVE",
"657 445 OFFCURVE",
"657 339 CURVE SMOOTH",
"657 289 OFFCURVE",
"670 259 OFFCURVE",
"727 259 CURVE SMOOTH",
"750 259 OFFCURVE",
"757 268 OFFCURVE",
"757 287 CURVE SMOOTH",
"757 300 OFFCURVE",
"754 319 OFFCURVE",
"749 342 CURVE SMOOTH",
"748 347 OFFCURVE",
"747 351 OFFCURVE"
);
}
);
width = 1017;
}
);
unicode = 00BD;
},
{
glyphname = onequarter;
lastChange = "2016-06-28 17:14:25 +0000";
layers = (
{
layerId = "1677BB6F-42BC-4502-A615-23038A63E498";
paths = (
{
closed = 1;
nodes = (
"235 217 CURVE SMOOTH",
"271 375 OFFCURVE",
"316 622 OFFCURVE",
"322 653 CURVE SMOOTH",
"323 660 OFFCURVE",
"324 666 OFFCURVE",
"324 672 CURVE SMOOTH",
"324 687 OFFCURVE",
"320 697 OFFCURVE",
"308 697 CURVE SMOOTH",
"303 697 LINE SMOOTH",
"268 690 OFFCURVE",
"157 670 OFFCURVE",
"129 662 CURVE SMOOTH",
"118 658 OFFCURVE",
"113 639 OFFCURVE",
"113 620 CURVE SMOOTH",
"113 598 OFFCURVE",
"119 577 OFFCURVE",
"131 577 CURVE SMOOTH",
"145 577 OFFCURVE",
"201 596 OFFCURVE",
"218 602 CURVE",
"198 517 OFFCURVE",
"169 386 OFFCURVE",
"137 228 CURVE SMOOTH",
"137 226 OFFCURVE",
"136 224 OFFCURVE",
"136 222 CURVE SMOOTH",
"136 200 OFFCURVE",
"159 190 OFFCURVE",
"183 190 CURVE SMOOTH",
"207 190 OFFCURVE",
"232 200 OFFCURVE"
);
},
{
closed = 1;
nodes = (
"437 -29 CURVE SMOOTH",
"693 575 LINE SMOOTH",
"695 580 OFFCURVE",
"696 585 OFFCURVE",
"696 590 CURVE SMOOTH",
"696 612 OFFCURVE",
"676 631 OFFCURVE",
"655 631 CURVE SMOOTH",
"641 631 OFFCURVE",
"627 622 OFFCURVE",
"617 601 CURVE SMOOTH",
"362 15 LINE SMOOTH",
"359 9 OFFCURVE",
"358 4 OFFCURVE",
"358 -2 CURVE SMOOTH",
"358 -28 OFFCURVE",
"385 -49 OFFCURVE",
"408 -49 CURVE SMOOTH",
"420 -49 OFFCURVE",
"431 -43 OFFCURVE"
);
},
{
closed = 1;
nodes = (
"851 -21 CURVE SMOOTH",
"879 -21 OFFCURVE",
"892 -18 OFFCURVE",
"905 32 CURVE SMOOTH",
"914 61 LINE",
"921 61 OFFCURVE",
"958 63 OFFCURVE",
"965 63 CURVE SMOOTH",
"991 64 OFFCURVE",
"1005 89 OFFCURVE",
"1005 111 CURVE SMOOTH",
"1005 128 OFFCURVE",
"997 142 OFFCURVE",
"979 142 CURVE SMOOTH",
"978 142 LINE",
"978 142 OFFCURVE",
"945 143 OFFCURVE",
"930 143 CURVE",
"938 180 OFFCURVE",
"961 265 OFFCURVE",
"967 289 CURVE SMOOTH",
"967 291 OFFCURVE",
"968 293 OFFCURVE",
"968 295 CURVE SMOOTH",
"968 312 OFFCURVE",
"948 316 OFFCURVE",
"931 316 CURVE SMOOTH",
"904 316 OFFCURVE",
"889 302 OFFCURVE",
"880 277 CURVE SMOOTH",
"874 255 OFFCURVE",
"849 173 OFFCURVE",
"842 141 CURVE",
"838 144 OFFCURVE",
"824 145 OFFCURVE",
"810 145 CURVE SMOOTH",
"788 145 OFFCURVE",
"766 143 OFFCURVE",
"766 143 CURVE",
"802 261 OFFCURVE",
"833 357 OFFCURVE",
"857 440 CURVE SMOOTH",
"858 443 OFFCURVE",
"858 445 OFFCURVE",
"858 448 CURVE SMOOTH",
"858 468 OFFCURVE",
"836 478 OFFCURVE",
"814 478 CURVE SMOOTH",
"795 478 OFFCURVE",
"777 471 OFFCURVE",
"772 455 CURVE SMOOTH",
"745 378 OFFCURVE",
"690 210 OFFCURVE",
"666 132 CURVE SMOOTH",
"662 118 OFFCURVE",
"661 106 OFFCURVE",
"661 97 CURVE SMOOTH",
"661 71 OFFCURVE",
"674 62 OFFCURVE",
"696 61 CURVE SMOOTH",
"696 61 OFFCURVE",
"799 60 OFFCURVE",
"822 60 CURVE",
"816 30 LINE SMOOTH",
"814 22 OFFCURVE",
"813 15 OFFCURVE",
"813 9 CURVE SMOOTH",
"813 -9 OFFCURVE",
"822 -20 OFFCURVE"
);
}
);
width = 1017;
}
);
unicode = 00BC;
},
{
glyphname = threequarters;
lastChange = "2016-06-28 17:14:25 +0000";
layers = (
{
layerId = "1677BB6F-42BC-4502-A615-23038A63E498";
paths = (
{
closed = 1;
nodes = (
"183 183 CURVE SMOOTH",
"261 183 OFFCURVE",
"354 216 OFFCURVE",
"354 350 CURVE SMOOTH",
"354 405 OFFCURVE",
"317 459 OFFCURVE",
"250 474 CURVE",
"320 485 OFFCURVE",
"346 551 OFFCURVE",
"346 589 CURVE SMOOTH",
"346 657 OFFCURVE",
"297 685 OFFCURVE",
"238 694 CURVE SMOOTH",
"230 695 OFFCURVE",
"221 696 OFFCURVE",
"213 696 CURVE SMOOTH",
"157 696 OFFCURVE",
"97 668 OFFCURVE",
"65 632 CURVE SMOOTH",
"61 627 OFFCURVE",
"59 621 OFFCURVE",
"59 614 CURVE SMOOTH",
"59 595 OFFCURVE",
"74 572 OFFCURVE",
"96 572 CURVE SMOOTH",
"106 572 OFFCURVE",
"117 577 OFFCURVE",
"129 589 CURVE SMOOTH",
"147 606 OFFCURVE",
"171 615 OFFCURVE",
"192 615 CURVE SMOOTH",
"218 615 OFFCURVE",
"240 600 OFFCURVE",
"240 565 CURVE SMOOTH",
"240 516 OFFCURVE",
"185 498 OFFCURVE",
"153 498 CURVE SMOOTH",
"118 498 OFFCURVE",
"103 487 OFFCURVE",
"103 463 CURVE SMOOTH",
"103 437 OFFCURVE",
"114 424 OFFCURVE",
"134 424 CURVE SMOOTH",
"201 424 OFFCURVE",
"260 391 OFFCURVE",
"260 346 CURVE SMOOTH",
"260 284 OFFCURVE",
"233 264 OFFCURVE",
"199 264 CURVE SMOOTH",
"159 264 OFFCURVE",
"112 293 OFFCURVE",
"94 319 CURVE SMOOTH",
"88 328 OFFCURVE",
"77 332 OFFCURVE",
"67 332 CURVE SMOOTH",
"42 332 OFFCURVE",
"13 310 OFFCURVE",
"13 282 CURVE SMOOTH",
"13 274 OFFCURVE",
"16 265 OFFCURVE",
"22 256 CURVE SMOOTH",
"63 202 OFFCURVE",
"122 183 OFFCURVE"
);
},
{
closed = 1;
nodes = (
"423 -29 CURVE SMOOTH",
"680 575 LINE SMOOTH",
"682 580 OFFCURVE",
"683 584 OFFCURVE",
"683 589 CURVE SMOOTH",
"683 612 OFFCURVE",
"662 631 OFFCURVE",
"641 631 CURVE SMOOTH",
"627 631 OFFCURVE",
"613 622 OFFCURVE",
"603 601 CURVE SMOOTH",
"348 15 LINE SMOOTH",
"345 9 OFFCURVE",
"344 4 OFFCURVE",
"344 -2 CURVE SMOOTH",
"344 -28 OFFCURVE",
"371 -49 OFFCURVE",
"394 -49 CURVE SMOOTH",
"406 -49 OFFCURVE",
"418 -43 OFFCURVE"
);
},
{
closed = 1;
nodes = (
"834 -21 CURVE SMOOTH",
"862 -21 OFFCURVE",
"876 -18 OFFCURVE",
"887 32 CURVE",
"897 61 LINE",
"904 61 OFFCURVE",
"941 63 OFFCURVE",
"949 63 CURVE SMOOTH",
"974 64 OFFCURVE",
"987 88 OFFCURVE",
"987 110 CURVE SMOOTH",
"987 127 OFFCURVE",
"979 142 OFFCURVE",
"962 142 CURVE SMOOTH",
"961 142 LINE",
"961 142 OFFCURVE",
"929 143 OFFCURVE",
"913 143 CURVE",
"923 180 OFFCURVE",
"945 265 OFFCURVE",
"949 289 CURVE SMOOTH",
"950 292 OFFCURVE",
"950 294 OFFCURVE",
"950 296 CURVE SMOOTH",
"950 312 OFFCURVE",
"931 316 OFFCURVE",
"915 316 CURVE SMOOTH",
"887 316 OFFCURVE",
"871 302 OFFCURVE",
"864 277 CURVE SMOOTH",
"857 254 OFFCURVE",
"830 170 OFFCURVE",
"825 143 CURVE",
"749 143 LINE",
"785 261 OFFCURVE",
"815 357 OFFCURVE",
"839 440 CURVE SMOOTH",
"840 443 OFFCURVE",
"840 446 OFFCURVE",
"840 449 CURVE SMOOTH",
"840 468 OFFCURVE",
"819 478 OFFCURVE",
"797 478 CURVE SMOOTH",
"778 478 OFFCURVE",
"760 471 OFFCURVE",
"755 455 CURVE SMOOTH",
"730 378 OFFCURVE",
"672 210 OFFCURVE",
"651 132 CURVE SMOOTH",
"647 117 OFFCURVE",
"645 105 OFFCURVE",
"645 95 CURVE SMOOTH",
"645 71 OFFCURVE",
"658 62 OFFCURVE",
"679 61 CURVE SMOOTH",
"679 61 OFFCURVE",
"782 60 OFFCURVE",
"805 60 CURVE",
"800 30 LINE SMOOTH",
"798 22 OFFCURVE",
"797 15 OFFCURVE",
"797 8 CURVE SMOOTH",
"797 -9 OFFCURVE",
"805 -20 OFFCURVE"
);
}
);
width = 1102;
}
);
unicode = 00BE;
},
{
glyphname = asterisk;
lastChange = "2016-06-28 17:14:25 +0000";
layers = (
{
layerId = "1677BB6F-42BC-4502-A615-23038A63E498";
paths = (
{
closed = 1;
nodes = (
"145 291 CURVE SMOOTH",
"167 291 OFFCURVE",
"192 304 OFFCURVE",
"192 327 CURVE SMOOTH",
"192 368 OFFCURVE",
"191 371 OFFCURVE",
"191 397 CURVE SMOOTH",
"191 421 LINE",
"227 383 OFFCURVE",
"221 391 OFFCURVE",
"260 354 CURVE SMOOTH",
"265 349 OFFCURVE",
"271 346 OFFCURVE",
"277 346 CURVE SMOOTH",
"299 346 OFFCURVE",
"321 379 OFFCURVE",
"321 403 CURVE SMOOTH",
"321 415 OFFCURVE",
"315 426 OFFCURVE",
"300 429 CURVE SMOOTH",
"256 437 OFFCURVE",
"238 448 OFFCURVE",
"226 451 CURVE",
"257 456 OFFCURVE",
"343 456 OFFCURVE",
"343 496 CURVE SMOOTH",
"343 520 OFFCURVE",
"314 541 OFFCURVE",
"293 541 CURVE SMOOTH",
"289 541 OFFCURVE",
"286 541 OFFCURVE",
"283 539 CURVE SMOOTH",
"260 525 OFFCURVE",
"230 507 OFFCURVE",
"205 493 CURVE",
"215 521 OFFCURVE",
"230 556 OFFCURVE",
"239 583 CURVE SMOOTH",
"240 586 OFFCURVE",
"241 590 OFFCURVE",
"241 593 CURVE SMOOTH",
"241 611 OFFCURVE",
"224 628 OFFCURVE",
"206 628 CURVE SMOOTH",
"184 628 OFFCURVE",
"160 616 OFFCURVE",
"160 592 CURVE SMOOTH",
"160 497 LINE",
"140 517 OFFCURVE",
"126 524 OFFCURVE",
"101 560 CURVE SMOOTH",
"95 568 OFFCURVE",
"86 571 OFFCURVE",
"77 571 CURVE SMOOTH",
"51 571 OFFCURVE",
"20 547 OFFCURVE",
"20 523 CURVE SMOOTH",
"20 511 OFFCURVE",
"29 498 OFFCURVE",
"51 490 CURVE SMOOTH",
"94 482 OFFCURVE",
"99 476 OFFCURVE",
"121 467 CURVE",
"74 458 OFFCURVE",
"7 461 OFFCURVE",
"7 422 CURVE SMOOTH",
"7 401 OFFCURVE",
"32 376 OFFCURVE",
"54 376 CURVE SMOOTH",
"58 376 OFFCURVE",
"63 377 OFFCURVE",
"67 379 CURVE SMOOTH",
"92 392 OFFCURVE",
"121 408 OFFCURVE",
"145 422 CURVE",
"131 393 OFFCURVE",
"109 356 OFFCURVE",
"109 322 CURVE SMOOTH",
"109 301 OFFCURVE",
"125 291 OFFCURVE"
);
}
);
width = 350;
}
);
unicode = 002A;
},
{
glyphname = backslash;
lastChange = "2016-06-28 17:14:25 +0000";
layers = (
{
layerId = "1677BB6F-42BC-4502-A615-23038A63E498";
paths = (
{
closed = 1;
nodes = (
"359 -12 CURVE SMOOTH",
"382 -12 OFFCURVE",
"395 7 OFFCURVE",
"395 26 CURVE SMOOTH",
"395 38 OFFCURVE",
"391 52 OFFCURVE",
"383 69 CURVE SMOOTH",
"148 583 LINE SMOOTH",
"132 619 OFFCURVE",
"124 640 OFFCURVE",
"104 640 CURVE SMOOTH",
"79 640 OFFCURVE",
"61 622 OFFCURVE",
"61 605 CURVE SMOOTH",
"61 592 OFFCURVE",
"67 575 OFFCURVE",
"77 553 CURVE SMOOTH",
"309 42 LINE SMOOTH",
"324 10 OFFCURVE",
"339 -12 OFFCURVE"
);
}
);
width = 426;
}
);
unicode = 005C;
},
{
glyphname = bullet;
lastChange = "2016-06-28 17:14:25 +0000";
layers = (
{
layerId = "1677BB6F-42BC-4502-A615-23038A63E498";
paths = (
{
closed = 1;
nodes = (
"175 80 CURVE SMOOTH",
"254 80 OFFCURVE",
"301 149 OFFCURVE",
"301 229 CURVE SMOOTH",
"301 285 OFFCURVE",
"272 312 OFFCURVE",
"219 312 CURVE SMOOTH",
"144 312 OFFCURVE",
"80 262 OFFCURVE",
"80 186 CURVE SMOOTH",
"80 124 OFFCURVE",
"113 80 OFFCURVE"
);
}
);
width = 383;
}
);
unicode = 2022;
},
{
glyphname = colon;
lastChange = "2016-06-28 17:14:25 +0000";
layers = (
{
layerId = "1677BB6F-42BC-4502-A615-23038A63E498";
paths = (
{
closed = 1;
nodes = (
"186 229 CURVE SMOOTH",
"231 229 OFFCURVE",
"256 260 OFFCURVE",
"256 302 CURVE SMOOTH",
"256 342 OFFCURVE",
"232 364 OFFCURVE",
"192 364 CURVE SMOOTH",
"148 364 OFFCURVE",
"124 334 OFFCURVE",
"124 292 CURVE SMOOTH",
"124 253 OFFCURVE",
"147 229 OFFCURVE"
);
},
{
closed = 1;
nodes = (
"166 0 CURVE SMOOTH",
"210 0 OFFCURVE",
"235 29 OFFCURVE",
"235 71 CURVE SMOOTH",
"235 112 OFFCURVE",
"213 134 OFFCURVE",
"172 134 CURVE SMOOTH",
"128 134 OFFCURVE",
"102 103 OFFCURVE",
"102 61 CURVE SMOOTH",
"102 22 OFFCURVE",
"125 0 OFFCURVE"
);
}
);
width = 240;
}
);
unicode = 003A;
},
{
glyphname = comma;
lastChange = "2016-06-28 17:14:25 +0000";
layers = (
{
layerId = "1677BB6F-42BC-4502-A615-23038A63E498";
paths = (
{
closed = 1;
nodes = (
"111 -95 CURVE SMOOTH",
"165 -61 OFFCURVE",
"217 -6 OFFCURVE",
"217 58 CURVE SMOOTH",
"217 92 OFFCURVE",
"202 114 OFFCURVE",
"167 114 CURVE SMOOTH",
"134 114 OFFCURVE",
"121 94 OFFCURVE",
"119 72 CURVE SMOOTH",
"111 8 OFFCURVE",
"106 -12 OFFCURVE",
"75 -65 CURVE SMOOTH",
"73 -68 OFFCURVE",
"72 -71 OFFCURVE",
"72 -74 CURVE SMOOTH",
"72 -87 OFFCURVE",
"88 -98 OFFCURVE",
"101 -98 CURVE SMOOTH",
"105 -98 OFFCURVE",
"108 -97 OFFCURVE"
);
}
);
width = 290;
}
);
unicode = 002C;
},
{
glyphname = ellipsis;
lastChange = "2016-06-28 17:14:25 +0000";
layers = (
{
layerId = "1677BB6F-42BC-4502-A615-23038A63E498";
paths = (
{
closed = 1;
nodes = (
"569 0 CURVE SMOOTH",
"609 0 OFFCURVE",
"633 26 OFFCURVE",
"633 65 CURVE SMOOTH",
"633 102 OFFCURVE",
"612 121 OFFCURVE",
"575 121 CURVE SMOOTH",
"535 121 OFFCURVE",
"513 94 OFFCURVE",
"513 55 CURVE SMOOTH",
"513 19 OFFCURVE",
"533 0 OFFCURVE"
);
},
{
closed = 1;
nodes = (
"389 0 CURVE SMOOTH",
"429 0 OFFCURVE",
"453 26 OFFCURVE",
"453 65 CURVE SMOOTH",
"453 102 OFFCURVE",
"432 121 OFFCURVE",
"395 121 CURVE SMOOTH",
"355 121 OFFCURVE",
"332 94 OFFCURVE",
"332 55 CURVE SMOOTH",
"332 19 OFFCURVE",
"352 0 OFFCURVE"
);
},
{
closed = 1;
nodes = (
"207 0 CURVE SMOOTH",
"247 0 OFFCURVE",
"270 26 OFFCURVE",
"270 65 CURVE SMOOTH",
"270 102 OFFCURVE",
"250 121 OFFCURVE",
"213 121 CURVE SMOOTH",
"173 121 OFFCURVE",
"150 94 OFFCURVE",
"150 55 CURVE SMOOTH",
"150 19 OFFCURVE",
"170 0 OFFCURVE"
);
}
);
width = 671;
}
);
unicode = 2026;
},
{
glyphname = exclam;
lastChange = "2016-06-28 17:14:25 +0000";
layers = (
{
layerId = "1677BB6F-42BC-4502-A615-23038A63E498";
paths = (
{
closed = 1;
nodes = (
"208 0 CURVE SMOOTH",
"255 0 OFFCURVE",
"283 32 OFFCURVE",
"283 78 CURVE SMOOTH",
"283 121 OFFCURVE",
"258 143 OFFCURVE",
"214 143 CURVE SMOOTH",
"167 143 OFFCURVE",
"140 113 OFFCURVE",
"140 67 CURVE SMOOTH",
"140 24 OFFCURVE",
"164 0 OFFCURVE"
);
},
{
closed = 1;
nodes = (
"429 608 CURVE SMOOTH",
"429 634 OFFCURVE",
"412 654 OFFCURVE",
"375 654 CURVE SMOOTH",
"345 654 OFFCURVE",
"324 632 OFFCURVE",
"317 602 CURVE SMOOTH",
"233 262 LINE SMOOTH",
"232 259 OFFCURVE",
"232 256 OFFCURVE",
"232 254 CURVE SMOOTH",
"232 241 OFFCURVE",
"241 233 OFFCURVE",
"251 233 CURVE SMOOTH",
"259 233 OFFCURVE",
"268 238 OFFCURVE",
"274 250 CURVE SMOOTH",
"408 536 LINE SMOOTH",
"421 564 OFFCURVE",
"429 589 OFFCURVE"
);
}
);
width = 363;
}
);
unicode = 0021;
},
{
glyphname = numbersign;
lastChange = "2016-06-28 17:14:25 +0000";
layers = (
{
layerId = "1677BB6F-42BC-4502-A615-23038A63E498";
paths = (
{
closed = 1;
nodes = (
"318 235 LINE",
"355 322 LINE",
"446 322 LINE",
"413 235 LINE"
);
},
{
closed = 1;
nodes = (
"440 532 CURVE SMOOTH",
"440 553 OFFCURVE",
"426 560 OFFCURVE",
"407 560 CURVE SMOOTH",
"377 560 OFFCURVE",
"354 539 OFFCURVE",
"340 507 CURVE SMOOTH",
"298 409 LINE",
"233 409 OFFCURVE",
"201 409 OFFCURVE",
"195 364 CURVE SMOOTH",
"195 358 LINE SMOOTH",
"195 330 OFFCURVE",
"224 323 OFFCURVE",
"264 322 CURVE",
"224 234 LINE",
"168 233 OFFCURVE",
"141 231 OFFCURVE",
"134 191 CURVE SMOOTH",
"134 188 OFFCURVE",
"133 186 OFFCURVE",
"133 184 CURVE SMOOTH",
"133 162 OFFCURVE",
"155 154 OFFCURVE",
"189 152 CURVE",
"143 49 LINE SMOOTH",
"139 39 OFFCURVE",
"137 30 OFFCURVE",
"137 23 CURVE SMOOTH",
"137 -1 OFFCURVE",
"155 -13 OFFCURVE",
"171 -13 CURVE SMOOTH",
"197 -13 OFFCURVE",
"213 -4 OFFCURVE",
"224 20 CURVE SMOOTH",
"284 151 LINE",
"379 150 LINE",
"336 36 LINE SMOOTH",
"334 30 OFFCURVE",
"333 24 OFFCURVE",
"333 19 CURVE SMOOTH",
"333 2 OFFCURVE",
"345 -12 OFFCURVE",
"370 -12 CURVE SMOOTH",
"401 -12 OFFCURVE",
"410 2 OFFCURVE",
"421 31 CURVE SMOOTH",
"464 150 LINE",
"480 150 LINE SMOOTH",
"527 150 OFFCURVE",
"563 162 OFFCURVE",
"563 209 CURVE SMOOTH",
"563 229 OFFCURVE",
"548 235 OFFCURVE",
"530 236 CURVE SMOOTH",
"498 236 LINE",
"529 322 LINE",
"587 323 OFFCURVE",
"633 333 OFFCURVE",
"633 382 CURVE SMOOTH",
"633 402 OFFCURVE",
"618 409 OFFCURVE",
"601 409 CURVE SMOOTH",
"556 409 LINE",
"594 506 LINE SMOOTH",
"598 517 OFFCURVE",
"600 526 OFFCURVE",
"600 534 CURVE SMOOTH",
"600 553 OFFCURVE",
"590 560 OFFCURVE",
"570 560 CURVE SMOOTH",
"543 560 OFFCURVE",
"525 546 OFFCURVE",
"510 509 CURVE SMOOTH",
"470 409 LINE",
"392 409 LINE",
"435 511 LINE SMOOTH",
"438 519 OFFCURVE",
"440 526 OFFCURVE"
);
}
);
width = 577;
}
);
unicode = 0023;
},
{
glyphname = period;
lastChange = "2016-06-28 17:14:25 +0000";
layers = (
{
layerId = "1677BB6F-42BC-4502-A615-23038A63E498";
paths = (
{
closed = 1;
nodes = (
"190 0 CURVE SMOOTH",
"237 0 OFFCURVE",
"265 32 OFFCURVE",
"265 78 CURVE SMOOTH",
"265 121 OFFCURVE",
"240 143 OFFCURVE",
"196 143 CURVE SMOOTH",
"149 143 OFFCURVE",
"122 113 OFFCURVE",
"122 67 CURVE SMOOTH",
"122 24 OFFCURVE",
"146 0 OFFCURVE"
);
}
);
width = 296;
}
);
unicode = 002E;
},
{
glyphname = periodcentered;
lastChange = "2016-06-28 17:14:25 +0000";
layers = (
{
anchors = (
{
name = _mid;
position = "{-59, 125}";
}
);
layerId = "1677BB6F-42BC-4502-A615-23038A63E498";
paths = (
{
closed = 1;
nodes = (
"236 -13 CURVE SMOOTH",
"284 -13 OFFCURVE",
"314 19 OFFCURVE",
"314 66 CURVE SMOOTH",
"314 111 OFFCURVE",
"287 134 OFFCURVE",
"243 134 CURVE SMOOTH",
"194 134 OFFCURVE",
"168 101 OFFCURVE",
"168 54 CURVE SMOOTH",
"168 11 OFFCURVE",
"193 -13 OFFCURVE"
);
}
);
width = 240;
}
);
unicode = 00B7;
},
{
glyphname = question;
lastChange = "2016-06-28 17:14:25 +0000";
layers = (
{
layerId = "1677BB6F-42BC-4502-A615-23038A63E498";
paths = (
{
closed = 1;
nodes = (
"186 -10 CURVE SMOOTH",
"230 -10 OFFCURVE",
"256 19 OFFCURVE",
"256 61 CURVE SMOOTH",
"256 102 OFFCURVE",
"233 124 OFFCURVE",
"193 124 CURVE SMOOTH",
"148 124 OFFCURVE",
"124 93 OFFCURVE",
"124 51 CURVE SMOOTH",
"124 12 OFFCURVE",
"147 -10 OFFCURVE"
);
},
{
closed = 1;
nodes = (
"250 547 CURVE SMOOTH",
"291 547 OFFCURVE",
"329 529 OFFCURVE",
"329 478 CURVE SMOOTH",
"329 470 LINE SMOOTH",
"321 360 OFFCURVE",
"193 349 OFFCURVE",
"191 250 CURVE SMOOTH",
"191 240 OFFCURVE",
"195 227 OFFCURVE",
"215 227 CURVE SMOOTH",
"231 227 OFFCURVE",
"236 238 OFFCURVE",
"243 255 CURVE SMOOTH",
"273 325 OFFCURVE",
"430 326 OFFCURVE",
"430 488 CURVE SMOOTH",
"430 589 OFFCURVE",
"346 638 OFFCURVE",
"258 638 CURVE SMOOTH",
"200 638 OFFCURVE",
"102 614 OFFCURVE",
"78 509 CURVE SMOOTH",
"77 507 OFFCURVE",
"77 504 OFFCURVE",
"77 502 CURVE SMOOTH",
"77 480 OFFCURVE",
"103 465 OFFCURVE",
"123 465 CURVE SMOOTH",
"133 465 OFFCURVE",
"143 469 OFFCURVE",
"146 477 CURVE SMOOTH",
"169 528 OFFCURVE",
"210 547 OFFCURVE"
);
}
);
width = 350;
}
);
unicode = 003F;
},
{
glyphname = quotedbl;
lastChange = "2016-06-28 17:14:25 +0000";
layers = (
{
layerId = "1677BB6F-42BC-4502-A615-23038A63E498";
paths = (
{
closed = 1;
nodes = (
"182 408 CURVE SMOOTH",
"182 392 OFFCURVE",
"189 384 OFFCURVE",
"209 384 CURVE SMOOTH",
"226 384 OFFCURVE",
"236 393 OFFCURVE",
"241 410 CURVE SMOOTH",
"247 429 OFFCURVE",
"288 556 OFFCURVE",
"300 597 CURVE SMOOTH",
"301 602 OFFCURVE",
"302 606 OFFCURVE",
"302 610 CURVE SMOOTH",
"302 632 OFFCURVE",
"282 639 OFFCURVE",
"258 639 CURVE SMOOTH",
"236 639 OFFCURVE",
"216 633 OFFCURVE",
"211 604 CURVE SMOOTH",
"204 565 OFFCURVE",
"189 472 OFFCURVE",
"183 420 CURVE SMOOTH",
"183 416 OFFCURVE",
"182 412 OFFCURVE"
);
},
{
closed = 1;
nodes = (
"324 409 CURVE SMOOTH",
"324 393 OFFCURVE",
"333 383 OFFCURVE",
"353 383 CURVE SMOOTH",
"369 383 OFFCURVE",
"380 393 OFFCURVE",
"387 412 CURVE SMOOTH",
"407 463 OFFCURVE",
"438 554 OFFCURVE",
"454 596 CURVE SMOOTH",
"456 601 OFFCURVE",
"456 605 OFFCURVE",
"456 609 CURVE SMOOTH",
"456 634 OFFCURVE",
"429 642 OFFCURVE",
"404 642 CURVE SMOOTH",
"380 642 OFFCURVE",
"365 631 OFFCURVE",
"361 612 CURVE SMOOTH",
"349 553 OFFCURVE",
"331 453 OFFCURVE",
"325 421 CURVE SMOOTH",
"324 417 OFFCURVE",
"324 413 OFFCURVE"
);
}
);
width = 573;
}
);
unicode = 0022;
},
{
glyphname = quotesingle;
lastChange = "2016-06-28 17:14:25 +0000";
layers = (
{
layerId = "1677BB6F-42BC-4502-A615-23038A63E498";
paths = (
{
closed = 1;
nodes = (
"188 409 CURVE SMOOTH",
"188 393 OFFCURVE",
"197 383 OFFCURVE",
"217 383 CURVE SMOOTH",
"233 383 OFFCURVE",
"244 393 OFFCURVE",
"251 412 CURVE SMOOTH",
"271 463 OFFCURVE",
"302 554 OFFCURVE",
"318 596 CURVE SMOOTH",
"320 601 OFFCURVE",
"320 605 OFFCURVE",
"320 609 CURVE SMOOTH",
"320 634 OFFCURVE",
"293 642 OFFCURVE",
"268 642 CURVE SMOOTH",
"244 642 OFFCURVE",
"229 631 OFFCURVE",
"225 612 CURVE SMOOTH",
"213 553 OFFCURVE",
"195 453 OFFCURVE",
"189 421 CURVE SMOOTH",
"188 417 OFFCURVE",
"188 413 OFFCURVE"
);
}
);
width = 300;
}
);
unicode = 0027;
},
{
glyphname = semicolon;
lastChange = "2016-06-28 17:14:25 +0000";
layers = (
{
layerId = "1677BB6F-42BC-4502-A615-23038A63E498";
paths = (
{
closed = 1;
nodes = (
"231 222 CURVE SMOOTH",
"276 222 OFFCURVE",
"301 253 OFFCURVE",
"301 295 CURVE SMOOTH",
"301 335 OFFCURVE",
"277 358 OFFCURVE",
"237 358 CURVE SMOOTH",
"193 358 OFFCURVE",
"169 327 OFFCURVE",
"169 285 CURVE SMOOTH",
"169 246 OFFCURVE",
"192 222 OFFCURVE"
);
},
{
closed = 1;
nodes = (
"166 -66 CURVE SMOOTH",
"167 -66 LINE SMOOTH",
"199 -66 OFFCURVE",
"250 -32 OFFCURVE",
"263 70 CURVE SMOOTH",
"263 73 OFFCURVE",
"264 76 OFFCURVE",
"264 79 CURVE SMOOTH",
"264 106 OFFCURVE",
"246 124 OFFCURVE",
"212 124 CURVE SMOOTH",
"179 124 OFFCURVE",
"157 105 OFFCURVE",
"157 80 CURVE SMOOTH",
"157 73 OFFCURVE",
"158 66 OFFCURVE",
"158 60 CURVE SMOOTH",
"158 8 OFFCURVE",
"139 -23 OFFCURVE",
"139 -43 CURVE SMOOTH",
"139 -57 OFFCURVE",
"150 -66 OFFCURVE"
);
}
);
width = 339;
}
);
unicode = 003B;
},
{
glyphname = slash;
lastChange = "2016-06-28 17:14:25 +0000";
layers = (
{
layerId = "1677BB6F-42BC-4502-A615-23038A63E498";
paths = (
{
closed = 1;
nodes = (
"136 12 CURVE SMOOTH",
"136 -7 OFFCURVE",
"149 -26 OFFCURVE",
"172 -26 CURVE SMOOTH",
"192 -26 OFFCURVE",
"207 -4 OFFCURVE",
"222 28 CURVE SMOOTH",
"454 539 LINE SMOOTH",
"464 561 OFFCURVE",
"470 578 OFFCURVE",
"470 591 CURVE SMOOTH",
"470 608 OFFCURVE",
"452 626 OFFCURVE",
"427 626 CURVE SMOOTH",
"407 626 OFFCURVE",
"399 605 OFFCURVE",
"383 569 CURVE SMOOTH",
"148 55 LINE SMOOTH",
"140 38 OFFCURVE",
"136 24 OFFCURVE"
);
}
);
width = 426;
}
);
unicode = 002F;
},
{
glyphname = underscore;
lastChange = "2016-06-28 17:14:25 +0000";
layers = (
{
layerId = "1677BB6F-42BC-4502-A615-23038A63E498";
paths = (
{
closed = 1;
nodes = (
"148 -26 LINE SMOOTH",
"103 -26 OFFCURVE",
"77 -29 OFFCURVE",
"77 -62 CURVE SMOOTH",
"77 -86 OFFCURVE",
"95 -97 OFFCURVE",
"130 -97 CURVE SMOOTH",
"374 -97 LINE SMOOTH",
"422 -97 OFFCURVE",
"435 -86 OFFCURVE",
"435 -55 CURVE SMOOTH",
"435 -37 OFFCURVE",
"425 -26 OFFCURVE",
"390 -26 CURVE SMOOTH"
);
}
);
width = 456;
}
);
unicode = 005F;
},
{
glyphname = braceleft;
lastChange = "2016-06-28 17:14:25 +0000";
layers = (
{
layerId = "1677BB6F-42BC-4502-A615-23038A63E498";
paths = (
{
closed = 1;
nodes = (
"148 321 LINE SMOOTH",
"127 321 OFFCURVE",
"109 308 OFFCURVE",
"109 279 CURVE SMOOTH",
"109 257 OFFCURVE",
"120 240 OFFCURVE",
"139 238 CURVE SMOOTH",
"195 234 OFFCURVE",
"203 220 OFFCURVE",
"203 185 CURVE SMOOTH",
"203 129 OFFCURVE",
"188 79 OFFCURVE",
"188 27 CURVE SMOOTH",
"188 -58 OFFCURVE",
"226 -106 OFFCURVE",
"330 -106 CURVE SMOOTH",
"344 -106 OFFCURVE",
"360 -105 OFFCURVE",
"377 -103 CURVE SMOOTH",
"391 -101 OFFCURVE",
"398 -86 OFFCURVE",
"398 -71 CURVE SMOOTH",
"398 -54 OFFCURVE",
"389 -36 OFFCURVE",
"370 -36 CURVE SMOOTH",
"358 -36 OFFCURVE",
"346 -37 OFFCURVE",
"337 -37 CURVE SMOOTH",
"282 -37 OFFCURVE",
"278 -23 OFFCURVE",
"278 12 CURVE SMOOTH",
"278 34 LINE SMOOTH",
"278 83 OFFCURVE",
"293 139 OFFCURVE",
"293 193 CURVE SMOOTH",
"293 231 OFFCURVE",
"272 257 OFFCURVE",
"243 273 CURVE",
"281 286 OFFCURVE",
"309 314 OFFCURVE",
"312 365 CURVE SMOOTH",
"321 533 OFFCURVE",
"329 571 OFFCURVE",
"368 578 CURVE SMOOTH",
"372 579 OFFCURVE",
"377 579 OFFCURVE",
"381 579 CURVE SMOOTH",
"408 579 OFFCURVE",
"434 569 OFFCURVE",
"450 563 CURVE SMOOTH",
"454 562 OFFCURVE",
"457 561 OFFCURVE",
"460 561 CURVE SMOOTH",
"478 561 OFFCURVE",
"488 579 OFFCURVE",
"488 596 CURVE SMOOTH",
"488 606 OFFCURVE",
"485 616 OFFCURVE",
"477 621 CURVE SMOOTH",
"453 634 OFFCURVE",
"413 649 OFFCURVE",
"370 649 CURVE SMOOTH",
"258 649 OFFCURVE",
"234 565 OFFCURVE",
"224 386 CURVE SMOOTH",
"222 341 OFFCURVE",
"207 321 OFFCURVE",
"165 321 CURVE SMOOTH"
);
}
);
width = 394;
}
);
unicode = 007B;
},
{
glyphname = braceright;
lastChange = "2016-06-28 17:14:25 +0000";
layers = (
{
layerId = "1677BB6F-42BC-4502-A615-23038A63E498";
paths = (
{
closed = 1;
nodes = (
"160 569 CURVE SMOOTH",
"167 569 OFFCURVE",
"174 570 OFFCURVE",
"180 570 CURVE SMOOTH",
"237 570 OFFCURVE",
"245 550 OFFCURVE",
"245 497 CURVE SMOOTH",
"245 448 OFFCURVE",
"230 393 OFFCURVE",
"230 338 CURVE SMOOTH",
"230 300 OFFCURVE",
"254 274 OFFCURVE",
"285 258 CURVE",
"245 245 OFFCURVE",
"214 218 OFFCURVE",
"211 168 CURVE SMOOTH",
"202 0 OFFCURVE",
"193 -41 OFFCURVE",
"161 -48 CURVE SMOOTH",
"154 -48 LINE SMOOTH",
"125 -48 OFFCURVE",
"96 -38 OFFCURVE",
"78 -33 CURVE SMOOTH",
"74 -31 OFFCURVE",
"70 -31 OFFCURVE",
"67 -31 CURVE SMOOTH",
"50 -31 OFFCURVE",
"40 -48 OFFCURVE",
"40 -64 CURVE SMOOTH",
"40 -74 OFFCURVE",
"44 -84 OFFCURVE",
"53 -89 CURVE SMOOTH",
"76 -103 OFFCURVE",
"114 -116 OFFCURVE",
"154 -116 CURVE SMOOTH",
"160 -116 OFFCURVE",
"167 -116 OFFCURVE",
"173 -115 CURVE SMOOTH",
"271 -109 OFFCURVE",
"295 -28 OFFCURVE",
"305 146 CURVE SMOOTH",
"308 193 OFFCURVE",
"318 211 OFFCURVE",
"355 211 CURVE SMOOTH",
"383 211 OFFCURVE",
"399 221 OFFCURVE",
"399 253 CURVE SMOOTH",
"399 274 OFFCURVE",
"389 293 OFFCURVE",
"371 294 CURVE SMOOTH",
"330 296 OFFCURVE",
"326 312 OFFCURVE",
"326 347 CURVE SMOOTH",
"326 403 OFFCURVE",
"340 454 OFFCURVE",
"340 504 CURVE SMOOTH",
"340 590 OFFCURVE",
"303 636 OFFCURVE",
"203 636 CURVE SMOOTH",
"187 636 OFFCURVE",
"171 635 OFFCURVE",
"152 633 CURVE SMOOTH",
"138 632 OFFCURVE",
"131 618 OFFCURVE",
"131 604 CURVE SMOOTH",
"131 587 OFFCURVE",
"141 569 OFFCURVE"
);
}
);
width = 426;
}
);
unicode = 007D;
},
{
glyphname = bracketleft;
lastChange = "2016-06-28 17:14:25 +0000";
layers = (
{
layerId = "1677BB6F-42BC-4502-A615-23038A63E498";
paths = (
{
closed = 1;
nodes = (
"181 -71 CURVE SMOOTH",
"282 -72 LINE SMOOTH",
"306 -72 OFFCURVE",
"336 -51 OFFCURVE",
"336 -21 CURVE SMOOTH",
"336 2 OFFCURVE",
"312 13 OFFCURVE",
"287 13 CURVE SMOOTH",
"222 13 LINE",
"241 137 OFFCURVE",
"240 158 OFFCURVE",
"251 238 CURVE SMOOTH",
"260 294 OFFCURVE",
"269 386 OFFCURVE",
"285 489 CURVE",
"372 489 LINE SMOOTH",
"395 489 OFFCURVE",
"419 506 OFFCURVE",
"419 532 CURVE SMOOTH",
"419 559 OFFCURVE",
"401 576 OFFCURVE",
"375 576 CURVE SMOOTH",
"264 576 LINE SMOOTH",
"229 576 OFFCURVE",
"208 567 OFFCURVE",
"199 514 CURVE SMOOTH",
"177 379 OFFCURVE",
"169 304 OFFCURVE",
"146 133 CURVE SMOOTH",
"126 -18 LINE SMOOTH",
"125 -25 OFFCURVE",
"124 -31 OFFCURVE",
"124 -37 CURVE SMOOTH",
"124 -62 OFFCURVE",
"140 -70 OFFCURVE"
);
}
);
width = 316;
}
);
unicode = 005B;
},
{
glyphname = bracketright;
lastChange = "2016-06-28 17:14:25 +0000";
layers = (
{
layerId = "1677BB6F-42BC-4502-A615-23038A63E498";
paths = (
{
closed = 1;
nodes = (
"45 -71 CURVE SMOOTH",
"154 -71 LINE SMOOTH",
"193 -71 OFFCURVE",
"217 -65 OFFCURVE",
"228 -4 CURVE SMOOTH",
"251 133 OFFCURVE",
"255 231 OFFCURVE",
"282 416 CURVE",
"280 405 OFFCURVE",
"279 400 OFFCURVE",
"279 400 CURVE SMOOTH",
"278 400 OFFCURVE",
"294 513 OFFCURVE",
"294 513 CURVE SMOOTH",
"295 522 OFFCURVE",
"296 529 OFFCURVE",
"296 536 CURVE SMOOTH",
"296 566 OFFCURVE",
"281 576 OFFCURVE",
"241 576 CURVE SMOOTH",
"141 576 LINE SMOOTH",
"118 576 OFFCURVE",
"90 556 OFFCURVE",
"90 526 CURVE SMOOTH",
"90 503 OFFCURVE",
"114 491 OFFCURVE",
"132 491 CURVE SMOOTH",
"200 491 LINE",
"180 367 OFFCURVE",
"185 384 OFFCURVE",
"168 256 CURVE SMOOTH",
"149 131 OFFCURVE",
"153 116 OFFCURVE",
"136 13 CURVE",
"49 13 LINE SMOOTH",
"26 13 OFFCURVE",
"3 -3 OFFCURVE",
"3 -28 CURVE SMOOTH",
"3 -55 OFFCURVE",
"19 -71 OFFCURVE"
);
}
);
width = 316;
}
);
unicode = 005D;
},
{
glyphname = parenleft;
lastChange = "2016-06-28 17:14:25 +0000";
layers = (
{
layerId = "1677BB6F-42BC-4502-A615-23038A63E498";
paths = (
{
closed = 1;
nodes = (
"373 -131 CURVE SMOOTH",
"375 -131 OFFCURVE",
"376 -132 OFFCURVE",
"378 -132 CURVE SMOOTH",
"394 -132 OFFCURVE",
"410 -108 OFFCURVE",
"410 -87 CURVE SMOOTH",
"410 -76 OFFCURVE",
"406 -66 OFFCURVE",
"395 -60 CURVE SMOOTH",
"311 -15 OFFCURVE",
"273 74 OFFCURVE",
"273 175 CURVE SMOOTH",
"273 314 OFFCURVE",
"346 474 OFFCURVE",
"473 568 CURVE SMOOTH",
"482 574 OFFCURVE",
"485 582 OFFCURVE",
"485 591 CURVE SMOOTH",
"485 612 OFFCURVE",
"465 634 OFFCURVE",
"447 634 CURVE SMOOTH",
"443 634 OFFCURVE",
"440 633 OFFCURVE",
"436 631 CURVE SMOOTH",
"264 516 OFFCURVE",
"162 324 OFFCURVE",
"162 159 CURVE SMOOTH",
"162 27 OFFCURVE",
"227 -87 OFFCURVE"
);
}
);
width = 355;
}
);
unicode = 0028;
},
{
glyphname = parenright;
lastChange = "2016-06-28 17:14:25 +0000";
layers = (
{
layerId = "1677BB6F-42BC-4502-A615-23038A63E498";
paths = (
{
closed = 1;
nodes = (
"71 -134 CURVE SMOOTH",
"266 -67 OFFCURVE",
"359 80 OFFCURVE",
"359 240 CURVE SMOOTH",
"359 377 OFFCURVE",
"291 522 OFFCURVE",
"159 634 CURVE SMOOTH",
"155 638 OFFCURVE",
"150 639 OFFCURVE",
"145 639 CURVE SMOOTH",
"126 639 OFFCURVE",
"105 617 OFFCURVE",
"105 594 CURVE SMOOTH",
"105 585 OFFCURVE",
"108 576 OFFCURVE",
"116 568 CURVE SMOOTH",
"200 482 OFFCURVE",
"241 374 OFFCURVE",
"241 270 CURVE SMOOTH",
"241 134 OFFCURVE",
"172 5 OFFCURVE",
"40 -60 CURVE SMOOTH",
"25 -67 OFFCURVE",
"18 -80 OFFCURVE",
"18 -93 CURVE SMOOTH",
"18 -114 OFFCURVE",
"36 -136 OFFCURVE",
"59 -136 CURVE SMOOTH",
"63 -136 OFFCURVE",
"67 -135 OFFCURVE"
);
}
);
width = 398;
}
);
unicode = 0029;
},
{
glyphname = emdash;
lastChange = "2016-06-28 17:14:25 +0000";
layers = (
{
layerId = "1677BB6F-42BC-4502-A615-23038A63E498";
paths = (
{
closed = 1;
nodes = (
"54 124 CURVE SMOOTH",
"318 124 LINE SMOOTH",
"352 124 OFFCURVE",
"367 145 OFFCURVE",
"367 177 CURVE SMOOTH",
"367 206 OFFCURVE",
"346 214 OFFCURVE",
"319 214 CURVE SMOOTH",
"63 214 LINE SMOOTH",
"32 214 OFFCURVE",
"14 201 OFFCURVE",
"14 168 CURVE SMOOTH",
"14 145 OFFCURVE",
"29 124 OFFCURVE"
);
}
);
width = 383;
}
);
unicode = 2014;
},
{
glyphname = endash;
lastChange = "2016-06-28 17:14:25 +0000";
layers = (
{
layerId = "1677BB6F-42BC-4502-A615-23038A63E498";
paths = (
{
closed = 1;
nodes = (
"54 131 CURVE SMOOTH",
"274 131 LINE SMOOTH",
"304 131 OFFCURVE",
"317 148 OFFCURVE",
"317 177 CURVE SMOOTH",
"317 201 OFFCURVE",
"300 208 OFFCURVE",
"276 208 CURVE SMOOTH",
"64 208 LINE SMOOTH",
"35 208 OFFCURVE",
"22 197 OFFCURVE",
"22 168 CURVE SMOOTH",
"22 147 OFFCURVE",
"34 131 OFFCURVE"
);
}
);
width = 338;
}
);
unicode = 2013;
},
{
glyphname = hyphen;
lastChange = "2016-06-28 17:14:25 +0000";
layers = (
{
anchors = (
{
name = _mid;
position = "{232, 307}";
}
);
layerId = "1677BB6F-42BC-4502-A615-23038A63E498";
paths = (
{
closed = 1;
nodes = (
"88 268 CURVE SMOOTH",
"88 247 OFFCURVE",
"103 225 OFFCURVE",
"123 225 CURVE SMOOTH",
"128 225 OFFCURVE",
"133 226 OFFCURVE",
"138 229 CURVE SMOOTH",
"203 261 OFFCURVE",
"246 280 OFFCURVE",
"353 308 CURVE SMOOTH",
"376 314 OFFCURVE",
"386 321 OFFCURVE",
"386 339 CURVE SMOOTH",
"386 366 OFFCURVE",
"365 373 OFFCURVE",
"346 373 CURVE SMOOTH",
"262 362 OFFCURVE",
"173 342 OFFCURVE",
"123 316 CURVE SMOOTH",
"95 298 OFFCURVE",
"88 281 OFFCURVE"
);
}
);
width = 387;
}
);
unicode = 002D;
},
{
glyphname = guillemotleft;
lastChange = "2016-06-28 17:14:25 +0000";
layers = (
{
layerId = "1677BB6F-42BC-4502-A615-23038A63E498";
paths = (
{
closed = 1;
nodes = (
"465 28 LINE SMOOTH",
"472 22 OFFCURVE",
"481 19 OFFCURVE",
"489 19 CURVE SMOOTH",
"513 19 OFFCURVE",
"539 42 OFFCURVE",
"539 65 CURVE SMOOTH",
"539 74 OFFCURVE",
"535 84 OFFCURVE",
"525 92 CURVE SMOOTH",
"420 185 LINE",
"524 259 LINE SMOOTH",
"539 269 OFFCURVE",
"545 282 OFFCURVE",
"545 295 CURVE SMOOTH",
"545 317 OFFCURVE",
"527 337 OFFCURVE",
"503 337 CURVE SMOOTH",
"494 337 OFFCURVE",
"483 334 OFFCURVE",
"473 327 CURVE SMOOTH",
"340 237 LINE SMOOTH",
"324 226 OFFCURVE",
"317 204 OFFCURVE",
"317 182 CURVE SMOOTH",
"317 159 OFFCURVE",
"332 141 OFFCURVE",
"348 127 CURVE SMOOTH"
);
},
{
closed = 1;
nodes = (
"244 28 LINE SMOOTH",
"251 22 OFFCURVE",
"260 19 OFFCURVE",
"268 19 CURVE SMOOTH",
"292 19 OFFCURVE",
"318 42 OFFCURVE",
"318 65 CURVE SMOOTH",
"318 74 OFFCURVE",
"314 84 OFFCURVE",
"304 92 CURVE SMOOTH",
"199 185 LINE",
"303 259 LINE SMOOTH",
"318 269 OFFCURVE",
"324 282 OFFCURVE",
"324 295 CURVE SMOOTH",
"324 317 OFFCURVE",
"306 337 OFFCURVE",
"282 337 CURVE SMOOTH",
"273 337 OFFCURVE",
"262 334 OFFCURVE",
"252 327 CURVE SMOOTH",
"119 237 LINE SMOOTH",
"103 226 OFFCURVE",
"96 204 OFFCURVE",
"96 182 CURVE SMOOTH",
"96 159 OFFCURVE",
"111 141 OFFCURVE",
"127 127 CURVE SMOOTH"
);
}
);
width = 566;
}
);
unicode = 00AB;
},
{
glyphname = guillemotright;
lastChange = "2016-06-28 17:14:25 +0000";
layers = (
{
layerId = "1677BB6F-42BC-4502-A615-23038A63E498";
paths = (
{
closed = 1;
nodes = (
"354 187 CURVE SMOOTH",
"354 207 OFFCURVE",
"348 227 OFFCURVE",
"334 237 CURVE SMOOTH",
"205 327 LINE SMOOTH",
"195 334 OFFCURVE",
"185 337 OFFCURVE",
"176 337 CURVE SMOOTH",
"152 337 OFFCURVE",
"132 316 OFFCURVE",
"132 294 CURVE SMOOTH",
"132 282 OFFCURVE",
"138 269 OFFCURVE",
"151 259 CURVE SMOOTH",
"251 185 LINE",
"141 92 LINE SMOOTH",
"130 83 OFFCURVE",
"126 73 OFFCURVE",
"126 63 CURVE SMOOTH",
"126 40 OFFCURVE",
"149 19 OFFCURVE",
"173 19 CURVE SMOOTH",
"181 19 OFFCURVE",
"190 22 OFFCURVE",
"198 28 CURVE SMOOTH",
"320 127 LINE SMOOTH",
"338 142 OFFCURVE",
"354 160 OFFCURVE"
);
},
{
closed = 1;
nodes = (
"575 187 CURVE SMOOTH",
"575 207 OFFCURVE",
"569 227 OFFCURVE",
"555 237 CURVE SMOOTH",
"426 327 LINE SMOOTH",
"416 334 OFFCURVE",
"406 337 OFFCURVE",
"397 337 CURVE SMOOTH",
"373 337 OFFCURVE",
"353 316 OFFCURVE",
"353 294 CURVE SMOOTH",
"353 282 OFFCURVE",
"359 269 OFFCURVE",
"372 259 CURVE SMOOTH",
"472 185 LINE",
"362 92 LINE SMOOTH",
"351 83 OFFCURVE",
"347 73 OFFCURVE",
"347 63 CURVE SMOOTH",
"347 40 OFFCURVE",
"370 19 OFFCURVE",
"394 19 CURVE SMOOTH",
"402 19 OFFCURVE",
"411 22 OFFCURVE",
"419 28 CURVE SMOOTH",
"541 127 LINE SMOOTH",
"559 142 OFFCURVE",
"575 160 OFFCURVE"
);
}
);
width = 594;
}
);
unicode = 00BB;
},
{
glyphname = guilsinglleft;
lastChange = "2016-06-28 17:14:25 +0000";
layers = (
{
layerId = "1677BB6F-42BC-4502-A615-23038A63E498";
paths = (
{
closed = 1;
nodes = (
"346 12 CURVE SMOOTH",
"370 12 OFFCURVE",
"392 34 OFFCURVE",
"392 64 CURVE SMOOTH",
"392 88 OFFCURVE",
"370 99 OFFCURVE",
"334 118 CURVE SMOOTH",
"180 200 LINE",
"377 262 LINE SMOOTH",
"402 270 OFFCURVE",
"414 281 OFFCURVE",
"414 301 CURVE SMOOTH",
"414 333 OFFCURVE",
"399 353 OFFCURVE",
"378 353 CURVE SMOOTH",
"369 353 OFFCURVE",
"357 350 OFFCURVE",
"342 346 CURVE SMOOTH",
"152 288 LINE SMOOTH",
"115 277 OFFCURVE",
"88 248 OFFCURVE",
"88 193 CURVE SMOOTH",
"88 162 OFFCURVE",
"101 137 OFFCURVE",
"136 118 CURVE SMOOTH",
"310 23 LINE SMOOTH",
"324 16 OFFCURVE",
"335 12 OFFCURVE"
);
}
);
width = 432;
}
);
unicode = 2039;
},
{
glyphname = guilsinglright;
lastChange = "2016-06-28 17:14:25 +0000";
layers = (
{
layerId = "1677BB6F-42BC-4502-A615-23038A63E498";
paths = (
{
closed = 1;
nodes = (
"193 353 CURVE SMOOTH",
"169 353 OFFCURVE",
"147 331 OFFCURVE",
"147 301 CURVE SMOOTH",
"147 277 OFFCURVE",
"169 266 OFFCURVE",
"205 247 CURVE SMOOTH",
"359 165 LINE",
"162 103 LINE SMOOTH",
"137 95 OFFCURVE",
"124 84 OFFCURVE",
"124 64 CURVE SMOOTH",
"124 32 OFFCURVE",
"140 12 OFFCURVE",
"161 12 CURVE SMOOTH",
"170 12 OFFCURVE",
"182 15 OFFCURVE",
"197 19 CURVE SMOOTH",
"387 77 LINE SMOOTH",
"424 88 OFFCURVE",
"451 117 OFFCURVE",
"451 172 CURVE SMOOTH",
"451 203 OFFCURVE",
"438 228 OFFCURVE",
"403 247 CURVE SMOOTH",
"229 342 LINE SMOOTH",
"215 349 OFFCURVE",
"204 353 OFFCURVE"
);
}
);
width = 456;
}
);
unicode = 203A;
},
{
glyphname = quotedblbase;
lastChange = "2016-06-28 17:14:25 +0000";
layers = (
{
layerId = "1677BB6F-42BC-4502-A615-23038A63E498";
paths = (
{
closed = 1;
nodes = (
"123 -92 CURVE SMOOTH",
"123 -108 OFFCURVE",
"130 -116 OFFCURVE",
"150 -116 CURVE SMOOTH",
"167 -116 OFFCURVE",
"177 -107 OFFCURVE",
"182 -90 CURVE SMOOTH",
"188 -71 OFFCURVE",
"229 56 OFFCURVE",
"241 97 CURVE SMOOTH",
"242 102 OFFCURVE",
"243 106 OFFCURVE",
"243 110 CURVE SMOOTH",
"243 132 OFFCURVE",
"223 139 OFFCURVE",
"199 139 CURVE SMOOTH",
"177 139 OFFCURVE",
"157 133 OFFCURVE",
"152 104 CURVE SMOOTH",
"145 65 OFFCURVE",
"130 -28 OFFCURVE",
"124 -80 CURVE SMOOTH",
"124 -84 OFFCURVE",
"123 -88 OFFCURVE"
);
},
{
closed = 1;
nodes = (
"265 -91 CURVE SMOOTH",
"265 -107 OFFCURVE",
"274 -117 OFFCURVE",
"294 -117 CURVE SMOOTH",
"310 -117 OFFCURVE",
"321 -107 OFFCURVE",
"328 -88 CURVE SMOOTH",
"348 -37 OFFCURVE",
"379 54 OFFCURVE",
"395 96 CURVE SMOOTH",
"397 101 OFFCURVE",
"397 105 OFFCURVE",
"397 109 CURVE SMOOTH",
"397 134 OFFCURVE",
"370 142 OFFCURVE",
"345 142 CURVE SMOOTH",
"321 142 OFFCURVE",
"306 131 OFFCURVE",
"302 112 CURVE SMOOTH",
"290 53 OFFCURVE",
"272 -47 OFFCURVE",
"266 -79 CURVE SMOOTH",
"265 -83 OFFCURVE",
"265 -87 OFFCURVE"
);
}
);
width = 449;
}
);
unicode = 201E;
},
{
glyphname = quotedblleft;
lastChange = "2016-06-28 17:14:25 +0000";
layers = (
{
layerId = "1677BB6F-42BC-4502-A615-23038A63E498";
paths = (
{
closed = 1;
nodes = (
"432 616 CURVE SMOOTH",
"432 632 OFFCURVE",
"425 640 OFFCURVE",
"405 640 CURVE SMOOTH",
"388 640 OFFCURVE",
"378 631 OFFCURVE",
"373 614 CURVE SMOOTH",
"367 595 OFFCURVE",
"326 468 OFFCURVE",
"314 427 CURVE SMOOTH",
"313 422 OFFCURVE",
"312 418 OFFCURVE",
"312 414 CURVE SMOOTH",
"312 392 OFFCURVE",
"332 385 OFFCURVE",
"356 385 CURVE SMOOTH",
"378 385 OFFCURVE",
"398 391 OFFCURVE",
"403 420 CURVE SMOOTH",
"410 459 OFFCURVE",
"425 552 OFFCURVE",
"431 604 CURVE SMOOTH",
"431 608 OFFCURVE",
"432 612 OFFCURVE"
);
},
{
closed = 1;
nodes = (
"290 615 CURVE SMOOTH",
"290 631 OFFCURVE",
"281 641 OFFCURVE",
"261 641 CURVE SMOOTH",
"245 641 OFFCURVE",
"234 631 OFFCURVE",
"227 612 CURVE SMOOTH",
"207 561 OFFCURVE",
"176 470 OFFCURVE",
"160 428 CURVE SMOOTH",
"158 423 OFFCURVE",
"158 419 OFFCURVE",
"158 415 CURVE SMOOTH",
"158 390 OFFCURVE",
"185 382 OFFCURVE",
"210 382 CURVE SMOOTH",
"234 382 OFFCURVE",
"249 393 OFFCURVE",
"253 412 CURVE SMOOTH",
"265 471 OFFCURVE",
"283 571 OFFCURVE",
"289 603 CURVE SMOOTH",
"290 607 OFFCURVE",
"290 611 OFFCURVE"
);
}
);
width = 436;
}
);
unicode = 201C;
},
{
glyphname = quotedblright;
lastChange = "2016-06-28 17:14:25 +0000";
layers = (
{
layerId = "1677BB6F-42BC-4502-A615-23038A63E498";
paths = (
{
closed = 1;
nodes = (
"153 408 CURVE SMOOTH",
"153 392 OFFCURVE",
"160 384 OFFCURVE",
"180 384 CURVE SMOOTH",
"197 384 OFFCURVE",
"207 393 OFFCURVE",
"212 410 CURVE SMOOTH",
"218 429 OFFCURVE",
"259 556 OFFCURVE",
"271 597 CURVE SMOOTH",
"272 602 OFFCURVE",
"273 606 OFFCURVE",
"273 610 CURVE SMOOTH",
"273 632 OFFCURVE",
"253 639 OFFCURVE",
"229 639 CURVE SMOOTH",
"207 639 OFFCURVE",
"187 633 OFFCURVE",
"182 604 CURVE SMOOTH",
"175 565 OFFCURVE",
"160 472 OFFCURVE",
"154 420 CURVE SMOOTH",
"154 416 OFFCURVE",
"153 412 OFFCURVE"
);
},
{
closed = 1;
nodes = (
"295 409 CURVE SMOOTH",
"295 393 OFFCURVE",
"304 383 OFFCURVE",
"324 383 CURVE SMOOTH",
"340 383 OFFCURVE",
"351 393 OFFCURVE",
"358 412 CURVE SMOOTH",
"378 463 OFFCURVE",
"409 554 OFFCURVE",
"425 596 CURVE SMOOTH",
"427 601 OFFCURVE",
"427 605 OFFCURVE",
"427 609 CURVE SMOOTH",
"427 634 OFFCURVE",
"400 642 OFFCURVE",
"375 642 CURVE SMOOTH",
"351 642 OFFCURVE",
"336 631 OFFCURVE",
"332 612 CURVE SMOOTH",
"320 553 OFFCURVE",
"302 453 OFFCURVE",
"296 421 CURVE SMOOTH",
"295 417 OFFCURVE",
"295 413 OFFCURVE"
);
}
);
width = 537;
}
);
unicode = 201D;
},
{
glyphname = quoteleft;
lastChange = "2016-06-28 17:14:25 +0000";
layers = (
{
layerId = "1677BB6F-42BC-4502-A615-23038A63E498";
paths = (
{
closed = 1;
nodes = (
"168 615 CURVE SMOOTH",
"168 631 OFFCURVE",
"159 641 OFFCURVE",
"139 641 CURVE SMOOTH",
"123 641 OFFCURVE",
"112 631 OFFCURVE",
"105 612 CURVE SMOOTH",
"85 561 OFFCURVE",
"54 470 OFFCURVE",
"38 428 CURVE SMOOTH",
"36 423 OFFCURVE",
"36 419 OFFCURVE",
"36 415 CURVE SMOOTH",
"36 390 OFFCURVE",
"63 382 OFFCURVE",
"88 382 CURVE SMOOTH",
"112 382 OFFCURVE",
"127 393 OFFCURVE",
"131 412 CURVE SMOOTH",
"143 471 OFFCURVE",
"161 571 OFFCURVE",
"167 603 CURVE SMOOTH",
"168 607 OFFCURVE",
"168 611 OFFCURVE"
);
}
);
width = 240;
}
);
unicode = 2018;
},
{
glyphname = quoteright;
lastChange = "2016-06-28 17:14:25 +0000";
layers = (
{
layerId = "1677BB6F-42BC-4502-A615-23038A63E498";
paths = (
{
closed = 1;
nodes = (
"57 409 CURVE SMOOTH",
"57 393 OFFCURVE",
"66 383 OFFCURVE",
"86 383 CURVE SMOOTH",
"102 383 OFFCURVE",
"113 393 OFFCURVE",
"120 412 CURVE SMOOTH",
"140 463 OFFCURVE",
"171 554 OFFCURVE",
"187 596 CURVE SMOOTH",
"189 601 OFFCURVE",
"189 605 OFFCURVE",
"189 609 CURVE SMOOTH",
"189 634 OFFCURVE",
"162 642 OFFCURVE",
"137 642 CURVE SMOOTH",
"113 642 OFFCURVE",
"98 631 OFFCURVE",
"94 612 CURVE SMOOTH",
"82 553 OFFCURVE",
"64 453 OFFCURVE",
"58 421 CURVE SMOOTH",
"57 417 OFFCURVE",
"57 413 OFFCURVE"
);
}
);
width = 219;
}
);
unicode = 2019;
},
{
glyphname = quotesinglbase;
lastChange = "2016-06-28 17:14:25 +0000";
layers = (
{
layerId = "1677BB6F-42BC-4502-A615-23038A63E498";
paths = (
{
closed = 1;
nodes = (
"123 -92 CURVE SMOOTH",
"123 -108 OFFCURVE",
"130 -116 OFFCURVE",
"150 -116 CURVE SMOOTH",
"167 -116 OFFCURVE",
"177 -107 OFFCURVE",
"182 -90 CURVE SMOOTH",
"188 -71 OFFCURVE",
"229 56 OFFCURVE",
"241 97 CURVE SMOOTH",
"242 102 OFFCURVE",
"243 106 OFFCURVE",
"243 110 CURVE SMOOTH",
"243 132 OFFCURVE",
"223 139 OFFCURVE",
"199 139 CURVE SMOOTH",
"177 139 OFFCURVE",
"157 133 OFFCURVE",
"152 104 CURVE SMOOTH",
"145 65 OFFCURVE",
"130 -28 OFFCURVE",
"124 -80 CURVE SMOOTH",
"124 -84 OFFCURVE",
"123 -88 OFFCURVE"
);
}
);
width = 307;
}
);
unicode = 201A;
},
{
glyphname = florin;
lastChange = "2016-06-28 17:14:25 +0000";
layers = (
{
layerId = "1677BB6F-42BC-4502-A615-23038A63E498";
paths = (
{
closed = 1;
nodes = (
"189 -52 CURVE SMOOTH",
"349 -52 OFFCURVE",
"364 200 OFFCURVE",
"386 284 CURVE",
"479 284 LINE SMOOTH",
"503 284 OFFCURVE",
"521 302 OFFCURVE",
"521 328 CURVE SMOOTH",
"521 355 OFFCURVE",
"505 371 OFFCURVE",
"479 371 CURVE SMOOTH",
"400 371 LINE",
"409 423 OFFCURVE",
"426 532 OFFCURVE",
"485 532 CURVE SMOOTH",
"503 532 OFFCURVE",
"520 508 OFFCURVE",
"546 508 CURVE SMOOTH",
"575 508 OFFCURVE",
"593 542 OFFCURVE",
"593 568 CURVE SMOOTH",
"593 614 OFFCURVE",
"537 630 OFFCURVE",
"497 630 CURVE SMOOTH",
"349 630 OFFCURVE",
"313 492 OFFCURVE",
"300 371 CURVE",
"285 372 OFFCURVE",
"270 373 OFFCURVE",
"254 373 CURVE SMOOTH",
"224 373 OFFCURVE",
"197 365 OFFCURVE",
"197 328 CURVE SMOOTH",
"197 301 OFFCURVE",
"212 284 OFFCURVE",
"238 284 CURVE SMOOTH",
"287 284 LINE",
"280 228 OFFCURVE",
"284 249 OFFCURVE",
"276 206 CURVE SMOOTH",
"269 157 OFFCURVE",
"254 46 OFFCURVE",
"194 46 CURVE SMOOTH",
"186 46 OFFCURVE",
"176 69 OFFCURVE",
"157 69 CURVE SMOOTH",
"129 69 OFFCURVE",
"110 36 OFFCURVE",
"110 10 CURVE SMOOTH",
"110 -33 OFFCURVE",
"153 -52 OFFCURVE"
);
}
);
width = 449;
}
);
unicode = 0192;
},
{
glyphname = cent;
lastChange = "2016-06-28 17:14:25 +0000";
layers = (
{
layerId = "1677BB6F-42BC-4502-A615-23038A63E498";
paths = (
{
closed = 1;
nodes = (
"147 73 CURVE",
"125 82 OFFCURVE",
"124 108 OFFCURVE",
"124 142 CURVE SMOOTH",
"124 190 OFFCURVE",
"130 229 OFFCURVE",
"161 247 CURVE",
"157 190 OFFCURVE",
"151 130 OFFCURVE"
);
},
{
closed = 1;
nodes = (
"158 -74 CURVE SMOOTH",
"169 -74 OFFCURVE",
"186 -62 OFFCURVE",
"189 -45 CURVE SMOOTH",
"194 -5 LINE",
"241 9 OFFCURVE",
"267 30 OFFCURVE",
"291 50 CURVE SMOOTH",
"298 56 OFFCURVE",
"303 62 OFFCURVE",
"303 75 CURVE SMOOTH",
"303 90 OFFCURVE",
"292 115 OFFCURVE",
"275 115 CURVE SMOOTH",
"271 115 OFFCURVE",
"266 114 OFFCURVE",
"261 110 CURVE SMOOTH",
"244 100 OFFCURVE",
"225 86 OFFCURVE",
"202 77 CURVE",
"207 136 OFFCURVE",
"210 198 OFFCURVE",
"214 255 CURVE",
"232 244 OFFCURVE",
"210 180 OFFCURVE",
"259 180 CURVE SMOOTH",
"293 180 OFFCURVE",
"304 219 OFFCURVE",
"304 249 CURVE SMOOTH",
"304 298 OFFCURVE",
"263 324 OFFCURVE",
"220 331 CURVE",
"221 338 OFFCURVE",
"223 355 OFFCURVE",
"223 364 CURVE SMOOTH",
"223 372 OFFCURVE",
"217 394 OFFCURVE",
"206 394 CURVE SMOOTH",
"179 394 OFFCURVE",
"170 363 OFFCURVE",
"169 348 CURVE SMOOTH",
"168 333 LINE",
"80 319 OFFCURVE",
"16 239 OFFCURVE",
"16 141 CURVE SMOOTH",
"16 60 OFFCURVE",
"60 -2 OFFCURVE",
"139 -6 CURVE",
"139 -16 OFFCURVE",
"137 -40 OFFCURVE",
"137 -54 CURVE SMOOTH",
"139 -66 OFFCURVE",
"143 -74 OFFCURVE"
);
}
);
width = 306;
}
);
unicode = 00A2;
},
{
glyphname = currency;
lastChange = "2016-06-28 17:14:25 +0000";
layers = (
{
layerId = "1677BB6F-42BC-4502-A615-23038A63E498";
paths = (
{
closed = 1;
nodes = (
"238 234 CURVE SMOOTH",
"191 234 OFFCURVE",
"167 264 OFFCURVE",
"167 308 CURVE SMOOTH",
"167 390 OFFCURVE",
"200 448 OFFCURVE",
"279 448 CURVE SMOOTH",
"318 448 OFFCURVE",
"338 419 OFFCURVE",
"341 385 CURVE SMOOTH",
"341 310 OFFCURVE",
"309 234 OFFCURVE"
);
},
{
closed = 1;
nodes = (
"227 154 CURVE SMOOTH",
"261 154 OFFCURVE",
"285 163 OFFCURVE",
"306 172 CURVE",
"323 153 OFFCURVE",
"352 119 OFFCURVE",
"382 119 CURVE SMOOTH",
"401 119 OFFCURVE",
"422 142 OFFCURVE",
"422 160 CURVE SMOOTH",
"423 172 OFFCURVE",
"414 183 OFFCURVE",
"400 196 CURVE SMOOTH",
"370 221 LINE",
"400 257 OFFCURVE",
"428 306 OFFCURVE",
"428 382 CURVE SMOOTH",
"428 403 OFFCURVE",
"423 422 OFFCURVE",
"417 440 CURVE",
"452 466 LINE SMOOTH",
"465 474 OFFCURVE",
"482 484 OFFCURVE",
"482 504 CURVE SMOOTH",
"482 522 OFFCURVE",
"466 543 OFFCURVE",
"446 543 CURVE SMOOTH",
"417 543 OFFCURVE",
"389 515 OFFCURVE",
"370 501 CURVE",
"348 515 OFFCURVE",
"321 525 OFFCURVE",
"282 525 CURVE SMOOTH",
"242 525 OFFCURVE",
"210 517 OFFCURVE",
"187 504 CURVE",
"149 538 LINE SMOOTH",
"137 547 OFFCURVE",
"125 554 OFFCURVE",
"115 554 CURVE SMOOTH",
"94 554 OFFCURVE",
"73 534 OFFCURVE",
"73 513 CURVE SMOOTH",
"73 497 OFFCURVE",
"86 486 OFFCURVE",
"96 477 CURVE SMOOTH",
"125 452 LINE",
"99 419 OFFCURVE",
"78 379 OFFCURVE",
"78 317 CURVE SMOOTH",
"78 288 OFFCURVE",
"82 266 OFFCURVE",
"93 241 CURVE",
"44 208 LINE SMOOTH",
"31 200 OFFCURVE",
"16 189 OFFCURVE",
"16 168 CURVE SMOOTH",
"16 149 OFFCURVE",
"30 130 OFFCURVE",
"50 130 CURVE SMOOTH",
"53 130 OFFCURVE",
"58 131 OFFCURVE",
"63 132 CURVE SMOOTH",
"91 143 OFFCURVE",
"116 163 OFFCURVE",
"139 181 CURVE",
"160 167 OFFCURVE",
"187 154 OFFCURVE"
);
}
);
width = 503;
}
);
unicode = 00A4;
},
{
glyphname = dollar;
lastChange = "2016-06-28 17:14:25 +0000";
layers = (
{
layerId = "1677BB6F-42BC-4502-A615-23038A63E498";
paths = (
{
closed = 1;
nodes = (
"351 68 CURVE",
"388 254 LINE",
"417 237 OFFCURVE",
"432 203 OFFCURVE",
"432 168 CURVE SMOOTH",
"432 122 OFFCURVE",
"405 75 OFFCURVE"
);
},
{
closed = 1;
nodes = (
"328 384 LINE",
"303 397 OFFCURVE",
"271 417 OFFCURVE",
"271 449 CURVE SMOOTH",
"271 489 OFFCURVE",
"299 513 OFFCURVE",
"353 515 CURVE"
);
},
{
closed = 1;
nodes = (
"254 -38 CURVE SMOOTH",
"254 -63 OFFCURVE",
"266 -79 OFFCURVE",
"297 -79 CURVE SMOOTH",
"324 -79 OFFCURVE",
"334 -60 OFFCURVE",
"338 -39 CURVE SMOOTH",
"344 1 LINE",
"444 8 OFFCURVE",
"531 61 OFFCURVE",
"531 177 CURVE SMOOTH",
"531 265 OFFCURVE",
"460 306 OFFCURVE",
"404 338 CURVE",
"436 513 LINE",
"467 506 OFFCURVE",
"497 479 OFFCURVE",
"515 455 CURVE SMOOTH",
"529 437 OFFCURVE",
"542 431 OFFCURVE",
"554 431 CURVE SMOOTH",
"576 431 OFFCURVE",
"592 454 OFFCURVE",
"592 472 CURVE SMOOTH",
"592 476 OFFCURVE",
"591 479 OFFCURVE",
"590 482 CURVE SMOOTH",
"555 558 OFFCURVE",
"500 576 OFFCURVE",
"448 590 CURVE",
"452 617 LINE SMOOTH",
"453 622 OFFCURVE",
"454 630 OFFCURVE",
"454 637 CURVE SMOOTH",
"454 657 OFFCURVE",
"448 679 OFFCURVE",
"427 679 CURVE SMOOTH",
"397 679 OFFCURVE",
"376 660 OFFCURVE",
"373 636 CURVE SMOOTH",
"367 597 LINE SMOOTH",
"360 597 LINE SMOOTH",
"253 597 OFFCURVE",
"153 550 OFFCURVE",
"153 441 CURVE SMOOTH",
"153 348 OFFCURVE",
"250 320 OFFCURVE",
"309 290 CURVE",
"268 70 LINE",
"219 78 OFFCURVE",
"185 111 OFFCURVE",
"185 147 CURVE SMOOTH",
"185 182 OFFCURVE",
"193 203 OFFCURVE",
"225 203 CURVE SMOOTH",
"245 203 OFFCURVE",
"258 216 OFFCURVE",
"258 234 CURVE SMOOTH",
"258 260 OFFCURVE",
"237 276 OFFCURVE",
"213 276 CURVE SMOOTH",
"134 276 OFFCURVE",
"84 224 OFFCURVE",
"84 148 CURVE SMOOTH",
"84 47 OFFCURVE",
"168 10 OFFCURVE",
"258 1 CURVE",
"256 -13 OFFCURVE",
"254 -27 OFFCURVE"
);
}
);
width = 593;
}
);
unicode = 0024;
},
{
glyphname = Euro;
lastChange = "2016-06-28 17:14:25 +0000";
layers = (
{
layerId = "1677BB6F-42BC-4502-A615-23038A63E498";
paths = (
{
closed = 1;
nodes = (
"97 359 LINE SMOOTH",
"71 359 OFFCURVE",
"47 346 OFFCURVE",
"47 318 CURVE SMOOTH",
"47 302 OFFCURVE",
"63 297 OFFCURVE",
"89 297 CURVE SMOOTH",
"102 297 LINE",
"99 291 OFFCURVE",
"87 239 OFFCURVE",
"87 227 CURVE",
"62 227 LINE SMOOTH",
"42 227 OFFCURVE",
"29 211 OFFCURVE",
"29 195 CURVE SMOOTH",
"29 181 OFFCURVE",
"40 167 OFFCURVE",
"69 167 CURVE SMOOTH",
"82 167 LINE",
"82 165 LINE SMOOTH",
"82 21 OFFCURVE",
"165 -69 OFFCURVE",
"299 -69 CURVE SMOOTH",
"453 -69 OFFCURVE",
"548 12 OFFCURVE",
"584 73 CURVE SMOOTH",
"586 76 OFFCURVE",
"587 80 OFFCURVE",
"587 84 CURVE SMOOTH",
"587 104 OFFCURVE",
"560 127 OFFCURVE",
"538 127 CURVE SMOOTH",
"531 127 OFFCURVE",
"524 124 OFFCURVE",
"519 119 CURVE SMOOTH",
"476 76 OFFCURVE",
"418 30 OFFCURVE",
"336 30 CURVE SMOOTH",
"244 30 OFFCURVE",
"202 77 OFFCURVE",
"202 161 CURVE SMOOTH",
"202 167 LINE",
"323 167 LINE SMOOTH",
"354 167 OFFCURVE",
"368 175 OFFCURVE",
"368 208 CURVE SMOOTH",
"368 226 OFFCURVE",
"353 227 OFFCURVE",
"334 227 CURVE SMOOTH",
"329 227 LINE SMOOTH",
"209 227 LINE",
"210 237 OFFCURVE",
"221 289 OFFCURVE",
"225 297 CURVE",
"354 297 LINE SMOOTH",
"390 297 OFFCURVE",
"402 307 OFFCURVE",
"402 331 CURVE SMOOTH",
"402 351 OFFCURVE",
"387 359 OFFCURVE",
"366 359 CURVE SMOOTH",
"246 359 LINE",
"282 459 OFFCURVE",
"342 518 OFFCURVE",
"426 526 CURVE SMOOTH",
"431 527 OFFCURVE",
"436 527 OFFCURVE",
"441 527 CURVE SMOOTH",
"500 527 OFFCURVE",
"525 489 OFFCURVE",
"525 453 CURVE SMOOTH",
"525 445 OFFCURVE",
"522 438 OFFCURVE",
"522 430 CURVE SMOOTH",
"522 411 OFFCURVE",
"540 400 OFFCURVE",
"559 400 CURVE SMOOTH",
"576 400 OFFCURVE",
"594 408 OFFCURVE",
"601 424 CURVE SMOOTH",
"609 442 OFFCURVE",
"613 461 OFFCURVE",
"613 480 CURVE SMOOTH",
"613 546 OFFCURVE",
"563 613 OFFCURVE",
"439 613 CURVE SMOOTH",
"272 613 OFFCURVE",
"174 487 OFFCURVE",
"127 359 CURVE"
);
}
);
width = 634;
}
);
unicode = 20AC;
},
{
glyphname = sterling;
lastChange = "2016-06-28 17:14:25 +0000";
layers = (
{
layerId = "1677BB6F-42BC-4502-A615-23038A63E498";
paths = (
{
closed = 1;
nodes = (
"154 39 CURVE SMOOTH",
"154 5 OFFCURVE",
"172 -7 OFFCURVE",
"213 -7 CURVE SMOOTH",
"444 -5 LINE SMOOTH",
"471 -5 OFFCURVE",
"484 19 OFFCURVE",
"484 42 CURVE SMOOTH",
"484 62 OFFCURVE",
"474 81 OFFCURVE",
"457 81 CURVE SMOOTH",
"263 81 LINE",
"296 272 LINE",
"392 272 LINE SMOOTH",
"414 272 OFFCURVE",
"424 293 OFFCURVE",
"424 313 CURVE SMOOTH",
"424 330 OFFCURVE",
"417 345 OFFCURVE",
"404 345 CURVE SMOOTH",
"305 345 LINE",
"321 435 LINE SMOOTH",
"328 477 OFFCURVE",
"366 505 OFFCURVE",
"407 505 CURVE SMOOTH",
"428 505 OFFCURVE",
"450 498 OFFCURVE",
"469 482 CURVE SMOOTH",
"484 470 OFFCURVE",
"495 455 OFFCURVE",
"509 455 CURVE SMOOTH",
"525 455 OFFCURVE",
"553 471 OFFCURVE",
"553 495 CURVE SMOOTH",
"553 504 OFFCURVE",
"549 514 OFFCURVE",
"543 523 CURVE SMOOTH",
"514 568 OFFCURVE",
"458 593 OFFCURVE",
"401 593 CURVE SMOOTH",
"325 593 OFFCURVE",
"247 550 OFFCURVE",
"225 451 CURVE SMOOTH",
"202 345 LINE",
"156 345 LINE SMOOTH",
"135 345 OFFCURVE",
"123 323 OFFCURVE",
"123 304 CURVE SMOOTH",
"123 287 OFFCURVE",
"131 272 OFFCURVE",
"148 272 CURVE SMOOTH",
"193 272 LINE",
"157 66 LINE SMOOTH",
"155 56 OFFCURVE",
"154 47 OFFCURVE"
);
}
);
width = 514;
}
);
unicode = 00A3;
},
{
glyphname = yen;
lastChange = "2016-06-28 17:14:25 +0000";
layers = (
{
layerId = "1677BB6F-42BC-4502-A615-23038A63E498";
paths = (
{
closed = 1;
nodes = (
"304 24 CURVE SMOOTH",
"339 133 LINE",
"438 133 LINE SMOOTH",
"468 133 OFFCURVE",
"486 139 OFFCURVE",
"486 166 CURVE SMOOTH",
"486 179 OFFCURVE",
"473 185 OFFCURVE",
"455 185 CURVE SMOOTH",
"354 185 LINE",
"368 227 LINE",
"459 227 LINE SMOOTH",
"492 227 OFFCURVE",
"503 236 OFFCURVE",
"503 256 CURVE SMOOTH",
"503 276 OFFCURVE",
"483 277 OFFCURVE",
"465 277 CURVE SMOOTH",
"415 277 LINE",
"572 502 LINE SMOOTH",
"580 514 OFFCURVE",
"584 525 OFFCURVE",
"584 535 CURVE SMOOTH",
"584 561 OFFCURVE",
"560 581 OFFCURVE",
"534 581 CURVE SMOOTH",
"517 581 OFFCURVE",
"499 572 OFFCURVE",
"486 552 CURVE SMOOTH",
"337 320 LINE",
"272 553 LINE SMOOTH",
"265 577 OFFCURVE",
"246 588 OFFCURVE",
"225 588 CURVE SMOOTH",
"198 588 OFFCURVE",
"169 569 OFFCURVE",
"169 539 CURVE SMOOTH",
"169 534 OFFCURVE",
"169 529 OFFCURVE",
"171 524 CURVE SMOOTH",
"245 281 LINE",
"170 281 LINE SMOOTH",
"147 281 OFFCURVE",
"124 280 OFFCURVE",
"124 251 CURVE SMOOTH",
"124 236 OFFCURVE",
"140 227 OFFCURVE",
"166 227 CURVE SMOOTH",
"255 227 LINE",
"242 185 LINE",
"152 185 LINE SMOOTH",
"126 185 OFFCURVE",
"111 179 OFFCURVE",
"111 158 CURVE SMOOTH",
"111 140 OFFCURVE",
"128 133 OFFCURVE",
"145 133 CURVE SMOOTH",
"226 133 LINE",
"202 51 LINE SMOOTH",
"200 45 OFFCURVE",
"199 39 OFFCURVE",
"199 34 CURVE SMOOTH",
"199 5 OFFCURVE",
"226 -10 OFFCURVE",
"252 -10 CURVE SMOOTH",
"274 -10 OFFCURVE",
"296 1 OFFCURVE"
);
}
);
width = 508;
}
);
unicode = 00A5;
},
